<ttFont>
    <TTGlyph name="A" xMin="9" yMin="-5" xMax="546" yMax="580">
      <contour>
        <pt x="396" y="46" on="1"/>
        <pt x="414" y="46" on="0"/>
        <pt x="474" y="129" on="0"/>
        <pt x="533" y="260" on="0"/>
        <pt x="546" y="260" on="0"/>
        <pt x="546" y="252" on="1"/>
        <pt x="546" y="224" on="0"/>
        <pt x="517" y="163" on="1"/>
        <pt x="438" y="-5" on="0"/>
        <pt x="383" y="-5" on="1"/>
        <pt x="337" y="-5" on="0"/>
        <pt x="317" y="11" on="1"/>
        <pt x="308" y="20" on="0"/>
        <pt x="308" y="201" on="1"/>
        <pt x="144" y="189" on="1"/>
        <pt x="125" y="137" on="0"/>
        <pt x="95" y="33" on="0"/>
        <pt x="90" y="21" on="1"/>
        <pt x="79" y="-5" on="0"/>
        <pt x="37" y="-5" on="1"/>
        <pt x="9" y="-5" on="0"/>
        <pt x="9" y="43" on="0"/>
        <pt x="47" y="89" on="1"/>
        <pt x="54" y="98" on="0"/>
        <pt x="93" y="186" on="1"/>
        <pt x="79" y="185" on="0"/>
        <pt x="66" y="185" on="1"/>
        <pt x="31" y="185" on="0"/>
        <pt x="31" y="215" on="1"/>
        <pt x="31" y="242" on="0"/>
        <pt x="59" y="242" on="1"/>
        <pt x="61" y="242" on="0"/>
        <pt x="116" y="237" on="1"/>
        <pt x="131" y="272" on="0"/>
        <pt x="148" y="306" on="1"/>
        <pt x="279" y="580" on="0"/>
        <pt x="328" y="580" on="1"/>
        <pt x="365" y="580" on="0"/>
        <pt x="379" y="237" on="1"/>
        <pt x="388" y="237" on="1"/>
        <pt x="395" y="237" on="0"/>
        <pt x="395" y="217" on="0"/>
        <pt x="380" y="210" on="1"/>
        <pt x="386" y="46" on="0"/>
      </contour>
      <contour>
        <pt x="159" y="232" on="1"/>
        <pt x="276" y="232" on="0"/>
        <pt x="308" y="233" on="1"/>
        <pt x="307" y="249" on="0"/>
        <pt x="305" y="329" on="0"/>
        <pt x="303" y="388" on="0"/>
        <pt x="302" y="420" on="1"/>
        <pt x="298" y="489" on="0"/>
        <pt x="290" y="489" on="1"/>
        <pt x="279" y="489" on="0"/>
        <pt x="211" y="359" on="0"/>
        <pt x="192" y="314" on="1"/>
        <pt x="166" y="249" on="0"/>
      </contour>
    </TTGlyph>
    <TTGlyph name="AE" xMin="9" yMin="-42" xMax="786" yMax="580">
      <contour>
        <pt x="377" y="97" on="0"/>
        <pt x="453" y="-1" on="0"/>
        <pt x="586" y="-1" on="0"/>
        <pt x="704" y="123" on="0"/>
        <pt x="743" y="205" on="1"/>
        <pt x="747" y="215" on="0"/>
        <pt x="757" y="233" on="0"/>
        <pt x="763" y="245" on="0"/>
        <pt x="767" y="252" on="0"/>
        <pt x="770" y="256" on="1"/>
        <pt x="774" y="262" on="0"/>
        <pt x="786" y="262" on="0"/>
        <pt x="786" y="254" on="1"/>
        <pt x="786" y="218" on="0"/>
        <pt x="685" y="44" on="0"/>
        <pt x="567" y="-42" on="0"/>
        <pt x="393" y="-42" on="0"/>
        <pt x="297" y="56" on="0"/>
        <pt x="297" y="129" on="1"/>
        <pt x="297" y="141" on="0"/>
        <pt x="299" y="201" on="1"/>
        <pt x="294" y="201" on="0"/>
        <pt x="174" y="192" on="0"/>
        <pt x="144" y="190" on="1"/>
        <pt x="126" y="138" on="0"/>
        <pt x="95" y="33" on="0"/>
        <pt x="90" y="21" on="1"/>
        <pt x="79" y="-5" on="0"/>
        <pt x="37" y="-5" on="1"/>
        <pt x="9" y="-5" on="0"/>
        <pt x="9" y="43" on="0"/>
        <pt x="47" y="89" on="1"/>
        <pt x="54" y="98" on="0"/>
        <pt x="93" y="186" on="1"/>
        <pt x="83" y="185" on="0"/>
        <pt x="66" y="185" on="1"/>
        <pt x="31" y="185" on="0"/>
        <pt x="31" y="215" on="1"/>
        <pt x="31" y="242" on="0"/>
        <pt x="59" y="242" on="1"/>
        <pt x="61" y="242" on="0"/>
        <pt x="116" y="237" on="1"/>
        <pt x="161" y="344" on="0"/>
        <pt x="299" y="580" on="0"/>
        <pt x="328" y="580" on="1"/>
        <pt x="360" y="580" on="0"/>
        <pt x="366" y="459" on="1"/>
        <pt x="391" y="513" on="0"/>
        <pt x="508" y="573" on="0"/>
        <pt x="616" y="573" on="0"/>
        <pt x="665" y="526" on="0"/>
        <pt x="665" y="464" on="0"/>
        <pt x="637" y="427" on="0"/>
        <pt x="617" y="427" on="1"/>
        <pt x="600" y="427" on="0"/>
        <pt x="600" y="446" on="1"/>
        <pt x="600" y="452" on="0"/>
        <pt x="609" y="482" on="0"/>
        <pt x="609" y="510" on="0"/>
        <pt x="578" y="542" on="0"/>
        <pt x="552" y="542" on="1"/>
        <pt x="495" y="542" on="0"/>
        <pt x="424" y="462" on="0"/>
        <pt x="424" y="358" on="0"/>
        <pt x="449" y="325" on="1"/>
        <pt x="493" y="346" on="0"/>
        <pt x="566" y="346" on="0"/>
        <pt x="611" y="321" on="0"/>
        <pt x="611" y="272" on="0"/>
        <pt x="557" y="248" on="0"/>
        <pt x="484" y="248" on="0"/>
        <pt x="428" y="276" on="1"/>
        <pt x="405" y="251" on="0"/>
        <pt x="377" y="184" on="0"/>
        <pt x="377" y="156" on="1"/>
      </contour>
      <contour>
        <pt x="159" y="232" on="1"/>
        <pt x="245" y="232" on="0"/>
        <pt x="301" y="233" on="1"/>
        <pt x="305" y="323" on="0"/>
        <pt x="305" y="376" on="1"/>
        <pt x="305" y="489" on="0"/>
        <pt x="290" y="489" on="1"/>
        <pt x="279" y="489" on="0"/>
        <pt x="183" y="303" on="0"/>
      </contour>
      <contour>
        <pt x="543" y="276" on="1"/>
        <pt x="552" y="276" on="0"/>
        <pt x="562" y="285" on="0"/>
        <pt x="562" y="288" on="1"/>
        <pt x="562" y="300" on="0"/>
        <pt x="530" y="317" on="0"/>
        <pt x="487" y="317" on="0"/>
        <pt x="467" y="306" on="1"/>
        <pt x="500" y="276" on="0"/>
      </contour>
      <contour>
        <pt x="371" y="271" on="1"/>
        <pt x="400" y="295" on="1"/>
        <pt x="383" y="308" on="0"/>
        <pt x="370" y="327" on="1"/>
        <pt x="370" y="288" on="0"/>
      </contour>
    </TTGlyph>
    <TTGlyph name="Aacute" xMin="9" yMin="-5" xMax="546" yMax="770">
      <contour>
        <pt x="396" y="46" on="1"/>
        <pt x="414" y="46" on="0"/>
        <pt x="474" y="129" on="0"/>
        <pt x="533" y="260" on="0"/>
        <pt x="546" y="260" on="0"/>
        <pt x="546" y="252" on="1"/>
        <pt x="546" y="224" on="0"/>
        <pt x="517" y="163" on="1"/>
        <pt x="438" y="-5" on="0"/>
        <pt x="383" y="-5" on="1"/>
        <pt x="337" y="-5" on="0"/>
        <pt x="317" y="11" on="1"/>
        <pt x="308" y="20" on="0"/>
        <pt x="308" y="201" on="1"/>
        <pt x="144" y="189" on="1"/>
        <pt x="125" y="137" on="0"/>
        <pt x="95" y="33" on="0"/>
        <pt x="90" y="21" on="1"/>
        <pt x="79" y="-5" on="0"/>
        <pt x="37" y="-5" on="1"/>
        <pt x="9" y="-5" on="0"/>
        <pt x="9" y="43" on="0"/>
        <pt x="47" y="89" on="1"/>
        <pt x="54" y="98" on="0"/>
        <pt x="93" y="186" on="1"/>
        <pt x="79" y="185" on="0"/>
        <pt x="66" y="185" on="1"/>
        <pt x="31" y="185" on="0"/>
        <pt x="31" y="215" on="1"/>
        <pt x="31" y="242" on="0"/>
        <pt x="59" y="242" on="1"/>
        <pt x="61" y="242" on="0"/>
        <pt x="116" y="237" on="1"/>
        <pt x="131" y="272" on="0"/>
        <pt x="148" y="306" on="1"/>
        <pt x="279" y="580" on="0"/>
        <pt x="328" y="580" on="1"/>
        <pt x="365" y="580" on="0"/>
        <pt x="379" y="237" on="1"/>
        <pt x="388" y="237" on="1"/>
        <pt x="395" y="237" on="0"/>
        <pt x="395" y="217" on="0"/>
        <pt x="380" y="210" on="1"/>
        <pt x="386" y="46" on="0"/>
      </contour>
      <contour>
        <pt x="159" y="232" on="1"/>
        <pt x="276" y="232" on="0"/>
        <pt x="308" y="233" on="1"/>
        <pt x="307" y="249" on="0"/>
        <pt x="305" y="329" on="0"/>
        <pt x="303" y="388" on="0"/>
        <pt x="302" y="420" on="1"/>
        <pt x="298" y="489" on="0"/>
        <pt x="290" y="489" on="1"/>
        <pt x="279" y="489" on="0"/>
        <pt x="211" y="359" on="0"/>
        <pt x="192" y="314" on="1"/>
        <pt x="166" y="249" on="0"/>
      </contour>
      <contour>
        <pt x="333" y="719" on="1"/>
        <pt x="333" y="727" on="0"/>
        <pt x="323" y="742" on="0"/>
        <pt x="323" y="752" on="0"/>
        <pt x="358" y="770" on="0"/>
        <pt x="380" y="770" on="0"/>
        <pt x="401" y="746" on="0"/>
        <pt x="401" y="724" on="1"/>
        <pt x="401" y="690" on="0"/>
        <pt x="358" y="658" on="1"/>
        <pt x="338" y="643" on="0"/>
        <pt x="285" y="621" on="0"/>
        <pt x="260" y="621" on="0"/>
        <pt x="260" y="630" on="1"/>
        <pt x="260" y="635" on="0"/>
        <pt x="274" y="643" on="1"/>
        <pt x="332" y="671" on="0"/>
      </contour>
    </TTGlyph>
    <TTGlyph name="Acircumflex" xMin="9" yMin="-5" xMax="546" yMax="770">
      <contour>
        <pt x="396" y="46" on="1"/>
        <pt x="414" y="46" on="0"/>
        <pt x="474" y="129" on="0"/>
        <pt x="533" y="260" on="0"/>
        <pt x="546" y="260" on="0"/>
        <pt x="546" y="252" on="1"/>
        <pt x="546" y="224" on="0"/>
        <pt x="517" y="163" on="1"/>
        <pt x="438" y="-5" on="0"/>
        <pt x="383" y="-5" on="1"/>
        <pt x="337" y="-5" on="0"/>
        <pt x="317" y="11" on="1"/>
        <pt x="308" y="20" on="0"/>
        <pt x="308" y="201" on="1"/>
        <pt x="144" y="189" on="1"/>
        <pt x="125" y="137" on="0"/>
        <pt x="95" y="33" on="0"/>
        <pt x="90" y="21" on="1"/>
        <pt x="79" y="-5" on="0"/>
        <pt x="37" y="-5" on="1"/>
        <pt x="9" y="-5" on="0"/>
        <pt x="9" y="43" on="0"/>
        <pt x="47" y="89" on="1"/>
        <pt x="54" y="98" on="0"/>
        <pt x="93" y="186" on="1"/>
        <pt x="79" y="185" on="0"/>
        <pt x="66" y="185" on="1"/>
        <pt x="31" y="185" on="0"/>
        <pt x="31" y="215" on="1"/>
        <pt x="31" y="242" on="0"/>
        <pt x="59" y="242" on="1"/>
        <pt x="61" y="242" on="0"/>
        <pt x="116" y="237" on="1"/>
        <pt x="131" y="272" on="0"/>
        <pt x="148" y="306" on="1"/>
        <pt x="279" y="580" on="0"/>
        <pt x="328" y="580" on="1"/>
        <pt x="365" y="580" on="0"/>
        <pt x="379" y="237" on="1"/>
        <pt x="388" y="237" on="1"/>
        <pt x="395" y="237" on="0"/>
        <pt x="395" y="217" on="0"/>
        <pt x="380" y="210" on="1"/>
        <pt x="386" y="46" on="0"/>
      </contour>
      <contour>
        <pt x="159" y="232" on="1"/>
        <pt x="276" y="232" on="0"/>
        <pt x="308" y="233" on="1"/>
        <pt x="307" y="249" on="0"/>
        <pt x="305" y="329" on="0"/>
        <pt x="303" y="388" on="0"/>
        <pt x="302" y="420" on="1"/>
        <pt x="298" y="489" on="0"/>
        <pt x="290" y="489" on="1"/>
        <pt x="279" y="489" on="0"/>
        <pt x="211" y="359" on="0"/>
        <pt x="192" y="314" on="1"/>
        <pt x="166" y="249" on="0"/>
      </contour>
      <contour>
        <pt x="444" y="631" on="0"/>
        <pt x="420" y="615" on="0"/>
        <pt x="414" y="615" on="1"/>
        <pt x="362" y="615" on="0"/>
        <pt x="327" y="686" on="1"/>
        <pt x="315" y="660" on="0"/>
        <pt x="253" y="626" on="0"/>
        <pt x="224" y="626" on="0"/>
        <pt x="223" y="635" on="1"/>
        <pt x="223" y="639" on="0"/>
        <pt x="240" y="647" on="0"/>
        <pt x="257" y="658" on="0"/>
        <pt x="279" y="679" on="0"/>
        <pt x="291" y="690" on="0"/>
        <pt x="299" y="711" on="0"/>
        <pt x="300" y="714" on="1"/>
        <pt x="305" y="726" on="0"/>
        <pt x="305" y="741" on="1"/>
        <pt x="306" y="749" on="0"/>
        <pt x="341" y="770" on="0"/>
        <pt x="349" y="770" on="1"/>
        <pt x="361" y="770" on="0"/>
        <pt x="367" y="731" on="0"/>
        <pt x="374" y="705" on="0"/>
        <pt x="386" y="685" on="1"/>
        <pt x="403" y="659" on="0"/>
        <pt x="428" y="648" on="1"/>
        <pt x="444" y="641" on="0"/>
      </contour>
    </TTGlyph>
    <TTGlyph name="Adieresis" xMin="9" yMin="-5" xMax="546" yMax="705">
      <contour>
        <pt x="396" y="46" on="1"/>
        <pt x="414" y="46" on="0"/>
        <pt x="474" y="129" on="0"/>
        <pt x="533" y="260" on="0"/>
        <pt x="546" y="260" on="0"/>
        <pt x="546" y="252" on="1"/>
        <pt x="546" y="224" on="0"/>
        <pt x="517" y="163" on="1"/>
        <pt x="438" y="-5" on="0"/>
        <pt x="383" y="-5" on="1"/>
        <pt x="337" y="-5" on="0"/>
        <pt x="317" y="11" on="1"/>
        <pt x="308" y="20" on="0"/>
        <pt x="308" y="201" on="1"/>
        <pt x="144" y="189" on="1"/>
        <pt x="125" y="137" on="0"/>
        <pt x="95" y="33" on="0"/>
        <pt x="90" y="21" on="1"/>
        <pt x="79" y="-5" on="0"/>
        <pt x="37" y="-5" on="1"/>
        <pt x="9" y="-5" on="0"/>
        <pt x="9" y="43" on="0"/>
        <pt x="47" y="89" on="1"/>
        <pt x="54" y="98" on="0"/>
        <pt x="93" y="186" on="1"/>
        <pt x="79" y="185" on="0"/>
        <pt x="66" y="185" on="1"/>
        <pt x="31" y="185" on="0"/>
        <pt x="31" y="215" on="1"/>
        <pt x="31" y="242" on="0"/>
        <pt x="59" y="242" on="1"/>
        <pt x="61" y="242" on="0"/>
        <pt x="116" y="237" on="1"/>
        <pt x="131" y="272" on="0"/>
        <pt x="148" y="306" on="1"/>
        <pt x="279" y="580" on="0"/>
        <pt x="328" y="580" on="1"/>
        <pt x="365" y="580" on="0"/>
        <pt x="379" y="237" on="1"/>
        <pt x="388" y="237" on="1"/>
        <pt x="395" y="237" on="0"/>
        <pt x="395" y="217" on="0"/>
        <pt x="380" y="210" on="1"/>
        <pt x="386" y="46" on="0"/>
      </contour>
      <contour>
        <pt x="159" y="232" on="1"/>
        <pt x="276" y="232" on="0"/>
        <pt x="308" y="233" on="1"/>
        <pt x="307" y="249" on="0"/>
        <pt x="305" y="329" on="0"/>
        <pt x="303" y="388" on="0"/>
        <pt x="302" y="420" on="1"/>
        <pt x="298" y="489" on="0"/>
        <pt x="290" y="489" on="1"/>
        <pt x="279" y="489" on="0"/>
        <pt x="211" y="359" on="0"/>
        <pt x="192" y="314" on="1"/>
        <pt x="166" y="249" on="0"/>
      </contour>
      <contour>
        <pt x="246" y="623" on="0"/>
        <pt x="219" y="641" on="0"/>
        <pt x="219" y="681" on="0"/>
        <pt x="256" y="705" on="0"/>
        <pt x="288" y="705" on="0"/>
        <pt x="310" y="687" on="0"/>
        <pt x="310" y="674" on="1"/>
        <pt x="310" y="623" on="0"/>
        <pt x="259" y="623" on="1"/>
      </contour>
      <contour>
        <pt x="390" y="623" on="0"/>
        <pt x="363" y="641" on="0"/>
        <pt x="363" y="681" on="0"/>
        <pt x="401" y="705" on="0"/>
        <pt x="433" y="705" on="0"/>
        <pt x="454" y="687" on="0"/>
        <pt x="454" y="674" on="1"/>
        <pt x="454" y="623" on="0"/>
        <pt x="404" y="623" on="1"/>
      </contour>
    </TTGlyph>
    <TTGlyph name="Agrave" xMin="9" yMin="-5" xMax="545" yMax="770">
      <contour>
        <pt x="396" y="46" on="1"/>
        <pt x="413" y="46" on="0"/>
        <pt x="473" y="129" on="0"/>
        <pt x="532" y="260" on="0"/>
        <pt x="545" y="260" on="0"/>
        <pt x="545" y="252" on="1"/>
        <pt x="545" y="224" on="0"/>
        <pt x="516" y="163" on="1"/>
        <pt x="437" y="-5" on="0"/>
        <pt x="383" y="-5" on="1"/>
        <pt x="337" y="-5" on="0"/>
        <pt x="317" y="11" on="1"/>
        <pt x="308" y="20" on="0"/>
        <pt x="308" y="201" on="1"/>
        <pt x="144" y="189" on="1"/>
        <pt x="125" y="137" on="0"/>
        <pt x="95" y="33" on="0"/>
        <pt x="90" y="21" on="1"/>
        <pt x="79" y="-5" on="0"/>
        <pt x="37" y="-5" on="1"/>
        <pt x="9" y="-5" on="0"/>
        <pt x="9" y="43" on="0"/>
        <pt x="47" y="89" on="1"/>
        <pt x="54" y="98" on="0"/>
        <pt x="93" y="186" on="1"/>
        <pt x="79" y="185" on="0"/>
        <pt x="66" y="185" on="1"/>
        <pt x="31" y="185" on="0"/>
        <pt x="31" y="215" on="1"/>
        <pt x="31" y="242" on="0"/>
        <pt x="59" y="242" on="1"/>
        <pt x="61" y="242" on="0"/>
        <pt x="116" y="237" on="1"/>
        <pt x="131" y="272" on="0"/>
        <pt x="148" y="306" on="1"/>
        <pt x="279" y="580" on="0"/>
        <pt x="328" y="580" on="1"/>
        <pt x="365" y="580" on="0"/>
        <pt x="379" y="237" on="1"/>
        <pt x="388" y="237" on="1"/>
        <pt x="395" y="237" on="0"/>
        <pt x="395" y="217" on="0"/>
        <pt x="380" y="210" on="1"/>
        <pt x="386" y="46" on="0"/>
      </contour>
      <contour>
        <pt x="159" y="232" on="1"/>
        <pt x="276" y="232" on="0"/>
        <pt x="308" y="233" on="1"/>
        <pt x="307" y="249" on="0"/>
        <pt x="305" y="329" on="0"/>
        <pt x="303" y="388" on="0"/>
        <pt x="302" y="420" on="1"/>
        <pt x="298" y="489" on="0"/>
        <pt x="290" y="489" on="1"/>
        <pt x="279" y="489" on="0"/>
        <pt x="211" y="359" on="0"/>
        <pt x="192" y="314" on="1"/>
        <pt x="166" y="249" on="0"/>
      </contour>
      <contour>
        <pt x="329" y="747" on="0"/>
        <pt x="344" y="711" on="0"/>
        <pt x="352" y="699" on="0"/>
        <pt x="359" y="690" on="0"/>
        <pt x="365" y="684" on="0"/>
        <pt x="375" y="677" on="0"/>
        <pt x="381" y="673" on="0"/>
        <pt x="394" y="666" on="0"/>
        <pt x="399" y="664" on="0"/>
        <pt x="407" y="660" on="1"/>
        <pt x="417" y="655" on="1"/>
        <pt x="430" y="648" on="0"/>
        <pt x="430" y="638" on="1"/>
        <pt x="430" y="623" on="0"/>
        <pt x="395" y="623" on="0"/>
        <pt x="339" y="642" on="0"/>
        <pt x="318" y="656" on="1"/>
        <pt x="268" y="690" on="0"/>
        <pt x="268" y="728" on="1"/>
        <pt x="268" y="739" on="0"/>
        <pt x="300" y="770" on="0"/>
        <pt x="315" y="770" on="0"/>
      </contour>
    </TTGlyph>
    <TTGlyph name="Aogonek" xMin="9" yMin="-173" xMax="547" yMax="580">
      <contour>
        <pt x="159" y="232" on="1"/>
        <pt x="276" y="232" on="0"/>
        <pt x="308" y="233" on="1"/>
        <pt x="307" y="249" on="0"/>
        <pt x="305" y="329" on="0"/>
        <pt x="303" y="388" on="0"/>
        <pt x="302" y="420" on="1"/>
        <pt x="298" y="489" on="0"/>
        <pt x="290" y="489" on="1"/>
        <pt x="279" y="489" on="0"/>
        <pt x="183" y="303" on="0"/>
      </contour>
      <contour>
        <pt x="418" y="15" on="1"/>
        <pt x="370" y="-31" on="0"/>
        <pt x="370" y="-89" on="1"/>
        <pt x="370" y="-106" on="0"/>
        <pt x="387" y="-125" on="0"/>
        <pt x="412" y="-125" on="0"/>
        <pt x="439" y="-98" on="0"/>
        <pt x="441" y="-98" on="1"/>
        <pt x="448" y="-98" on="0"/>
        <pt x="448" y="-132" on="0"/>
        <pt x="400" y="-173" on="0"/>
        <pt x="352" y="-173" on="0"/>
        <pt x="318" y="-143" on="0"/>
        <pt x="318" y="-117" on="1"/>
        <pt x="318" y="-62" on="0"/>
        <pt x="365" y="-4" on="1"/>
        <pt x="328" y="1" on="0"/>
        <pt x="308" y="20" on="0"/>
        <pt x="308" y="201" on="1"/>
        <pt x="144" y="189" on="1"/>
        <pt x="125" y="137" on="0"/>
        <pt x="95" y="33" on="0"/>
        <pt x="90" y="21" on="1"/>
        <pt x="79" y="-5" on="0"/>
        <pt x="37" y="-5" on="1"/>
        <pt x="9" y="-5" on="0"/>
        <pt x="9" y="43" on="0"/>
        <pt x="47" y="89" on="1"/>
        <pt x="54" y="98" on="0"/>
        <pt x="93" y="186" on="1"/>
        <pt x="79" y="185" on="0"/>
        <pt x="66" y="185" on="1"/>
        <pt x="31" y="185" on="0"/>
        <pt x="31" y="215" on="1"/>
        <pt x="31" y="242" on="0"/>
        <pt x="59" y="242" on="1"/>
        <pt x="61" y="242" on="0"/>
        <pt x="116" y="237" on="1"/>
        <pt x="161" y="344" on="0"/>
        <pt x="299" y="580" on="0"/>
        <pt x="328" y="580" on="1"/>
        <pt x="348" y="580" on="0"/>
        <pt x="369" y="414" on="0"/>
        <pt x="379" y="237" on="1"/>
        <pt x="395" y="237" on="0"/>
        <pt x="395" y="217" on="0"/>
        <pt x="380" y="210" on="1"/>
        <pt x="386" y="46" on="0"/>
        <pt x="397" y="46" on="1"/>
        <pt x="415" y="46" on="0"/>
        <pt x="475" y="129" on="0"/>
        <pt x="534" y="260" on="0"/>
        <pt x="547" y="260" on="0"/>
        <pt x="547" y="252" on="1"/>
        <pt x="547" y="224" on="0"/>
        <pt x="518" y="163" on="1"/>
        <pt x="471" y="62" on="0"/>
      </contour>
    </TTGlyph>
    <TTGlyph name="Aring" xMin="9" yMin="-5" xMax="546" yMax="668">
      <contour>
        <pt x="396" y="46" on="1"/>
        <pt x="414" y="46" on="0"/>
        <pt x="474" y="129" on="0"/>
        <pt x="533" y="260" on="0"/>
        <pt x="546" y="260" on="0"/>
        <pt x="546" y="252" on="1"/>
        <pt x="546" y="224" on="0"/>
        <pt x="517" y="163" on="1"/>
        <pt x="438" y="-5" on="0"/>
        <pt x="383" y="-5" on="1"/>
        <pt x="337" y="-5" on="0"/>
        <pt x="317" y="11" on="1"/>
        <pt x="308" y="20" on="0"/>
        <pt x="308" y="201" on="1"/>
        <pt x="144" y="189" on="1"/>
        <pt x="125" y="137" on="0"/>
        <pt x="95" y="33" on="0"/>
        <pt x="90" y="21" on="1"/>
        <pt x="79" y="-5" on="0"/>
        <pt x="37" y="-5" on="1"/>
        <pt x="9" y="-5" on="0"/>
        <pt x="9" y="43" on="0"/>
        <pt x="47" y="89" on="1"/>
        <pt x="54" y="98" on="0"/>
        <pt x="93" y="186" on="1"/>
        <pt x="79" y="185" on="0"/>
        <pt x="66" y="185" on="1"/>
        <pt x="31" y="185" on="0"/>
        <pt x="31" y="215" on="1"/>
        <pt x="31" y="242" on="0"/>
        <pt x="59" y="242" on="1"/>
        <pt x="61" y="242" on="0"/>
        <pt x="116" y="237" on="1"/>
        <pt x="131" y="272" on="0"/>
        <pt x="148" y="306" on="1"/>
        <pt x="237" y="493" on="0"/>
        <pt x="291" y="554" on="1"/>
        <pt x="263" y="565" on="0"/>
        <pt x="263" y="626" on="0"/>
        <pt x="296" y="668" on="0"/>
        <pt x="350" y="668" on="0"/>
        <pt x="377" y="639" on="0"/>
        <pt x="377" y="618" on="1"/>
        <pt x="377" y="577" on="0"/>
        <pt x="345" y="559" on="1"/>
        <pt x="367" y="503" on="0"/>
        <pt x="379" y="237" on="1"/>
        <pt x="388" y="237" on="1"/>
        <pt x="395" y="237" on="0"/>
        <pt x="395" y="217" on="0"/>
        <pt x="380" y="210" on="1"/>
        <pt x="386" y="46" on="0"/>
      </contour>
      <contour>
        <pt x="159" y="232" on="1"/>
        <pt x="276" y="232" on="0"/>
        <pt x="308" y="233" on="1"/>
        <pt x="307" y="249" on="0"/>
        <pt x="305" y="329" on="0"/>
        <pt x="303" y="388" on="0"/>
        <pt x="302" y="420" on="1"/>
        <pt x="298" y="489" on="0"/>
        <pt x="290" y="489" on="1"/>
        <pt x="279" y="489" on="0"/>
        <pt x="211" y="359" on="0"/>
        <pt x="192" y="314" on="1"/>
        <pt x="166" y="249" on="0"/>
      </contour>
      <contour>
        <pt x="348" y="622" on="0"/>
        <pt x="336" y="638" on="0"/>
        <pt x="314" y="638" on="0"/>
        <pt x="297" y="620" on="0"/>
        <pt x="297" y="608" on="1"/>
        <pt x="297" y="580" on="0"/>
        <pt x="319" y="580" on="1"/>
        <pt x="331" y="580" on="0"/>
        <pt x="348" y="599" on="0"/>
      </contour>
    </TTGlyph>
    <TTGlyph name="Atilde" xMin="9" yMin="-5" xMax="546" yMax="725">
      <contour>
        <pt x="396" y="46" on="1"/>
        <pt x="414" y="46" on="0"/>
        <pt x="474" y="129" on="0"/>
        <pt x="533" y="260" on="0"/>
        <pt x="546" y="260" on="0"/>
        <pt x="546" y="252" on="1"/>
        <pt x="546" y="224" on="0"/>
        <pt x="517" y="163" on="1"/>
        <pt x="438" y="-5" on="0"/>
        <pt x="383" y="-5" on="1"/>
        <pt x="337" y="-5" on="0"/>
        <pt x="317" y="11" on="1"/>
        <pt x="308" y="20" on="0"/>
        <pt x="308" y="201" on="1"/>
        <pt x="144" y="189" on="1"/>
        <pt x="125" y="137" on="0"/>
        <pt x="95" y="33" on="0"/>
        <pt x="90" y="21" on="1"/>
        <pt x="79" y="-5" on="0"/>
        <pt x="37" y="-5" on="1"/>
        <pt x="9" y="-5" on="0"/>
        <pt x="9" y="43" on="0"/>
        <pt x="47" y="89" on="1"/>
        <pt x="54" y="98" on="0"/>
        <pt x="93" y="186" on="1"/>
        <pt x="79" y="185" on="0"/>
        <pt x="66" y="185" on="1"/>
        <pt x="31" y="185" on="0"/>
        <pt x="31" y="215" on="1"/>
        <pt x="31" y="242" on="0"/>
        <pt x="59" y="242" on="1"/>
        <pt x="61" y="242" on="0"/>
        <pt x="116" y="237" on="1"/>
        <pt x="131" y="272" on="0"/>
        <pt x="148" y="306" on="1"/>
        <pt x="279" y="580" on="0"/>
        <pt x="328" y="580" on="1"/>
        <pt x="365" y="580" on="0"/>
        <pt x="379" y="237" on="1"/>
        <pt x="388" y="237" on="1"/>
        <pt x="395" y="237" on="0"/>
        <pt x="395" y="217" on="0"/>
        <pt x="380" y="210" on="1"/>
        <pt x="386" y="46" on="0"/>
      </contour>
      <contour>
        <pt x="159" y="232" on="1"/>
        <pt x="276" y="232" on="0"/>
        <pt x="308" y="233" on="1"/>
        <pt x="307" y="249" on="0"/>
        <pt x="305" y="329" on="0"/>
        <pt x="303" y="388" on="0"/>
        <pt x="302" y="420" on="1"/>
        <pt x="298" y="489" on="0"/>
        <pt x="290" y="489" on="1"/>
        <pt x="279" y="489" on="0"/>
        <pt x="211" y="359" on="0"/>
        <pt x="192" y="314" on="1"/>
        <pt x="166" y="249" on="0"/>
      </contour>
      <contour>
        <pt x="288" y="725" on="0"/>
        <pt x="389" y="684" on="0"/>
        <pt x="410" y="684" on="0"/>
        <pt x="432" y="717" on="0"/>
        <pt x="438" y="717" on="1"/>
        <pt x="451" y="717" on="0"/>
        <pt x="451" y="674" on="0"/>
        <pt x="405" y="626" on="0"/>
        <pt x="353" y="626" on="0"/>
        <pt x="281" y="669" on="0"/>
        <pt x="262" y="669" on="1"/>
        <pt x="255" y="669" on="0"/>
        <pt x="242" y="641" on="0"/>
        <pt x="234" y="641" on="1"/>
        <pt x="217" y="641" on="0"/>
        <pt x="217" y="681" on="0"/>
        <pt x="246" y="725" on="0"/>
      </contour>
    </TTGlyph>
    <TTGlyph name="B" xMin="0" yMin="-10" xMax="481" yMax="620">
      <contour>
        <pt x="255" y="26" on="1"/>
        <pt x="309" y="26" on="0"/>
        <pt x="392" y="102" on="0"/>
        <pt x="392" y="201" on="0"/>
        <pt x="361" y="243" on="1"/>
        <pt x="327" y="226" on="0"/>
        <pt x="294" y="226" on="1"/>
        <pt x="217" y="226" on="0"/>
        <pt x="217" y="274" on="1"/>
        <pt x="217" y="288" on="0"/>
        <pt x="255" y="311" on="0"/>
        <pt x="326" y="311" on="0"/>
        <pt x="368" y="290" on="1"/>
        <pt x="408" y="333" on="0"/>
        <pt x="408" y="387" on="1"/>
        <pt x="408" y="454" on="0"/>
        <pt x="291" y="533" on="0"/>
        <pt x="224" y="533" on="1"/>
        <pt x="210" y="533" on="0"/>
        <pt x="203" y="532" on="1"/>
        <pt x="202" y="503" on="0"/>
        <pt x="198" y="439" on="1"/>
        <pt x="192" y="343" on="0"/>
        <pt x="192" y="146" on="1"/>
        <pt x="192" y="70" on="0"/>
        <pt x="181" y="70" on="1"/>
        <pt x="138" y="70" on="0"/>
        <pt x="114" y="94" on="0"/>
        <pt x="114" y="151" on="1"/>
        <pt x="114" y="165" on="0"/>
        <pt x="125" y="367" on="0"/>
        <pt x="125" y="491" on="0"/>
        <pt x="129" y="520" on="1"/>
        <pt x="76" y="502" on="0"/>
        <pt x="72" y="462" on="1"/>
        <pt x="68" y="429" on="0"/>
        <pt x="47" y="403" on="0"/>
        <pt x="12" y="403" on="0"/>
        <pt x="0" y="422" on="0"/>
        <pt x="0" y="432" on="1"/>
        <pt x="0" y="519" on="0"/>
        <pt x="135" y="552" on="1"/>
        <pt x="152" y="620" on="0"/>
        <pt x="189" y="620" on="1"/>
        <pt x="204" y="620" on="0"/>
        <pt x="204" y="564" on="1"/>
        <pt x="230" y="567" on="0"/>
        <pt x="307" y="567" on="0"/>
        <pt x="407" y="538" on="0"/>
        <pt x="481" y="465" on="0"/>
        <pt x="481" y="420" on="1"/>
        <pt x="481" y="336" on="0"/>
        <pt x="400" y="269" on="1"/>
        <pt x="456" y="225" on="0"/>
        <pt x="456" y="103" on="0"/>
        <pt x="418" y="63" on="1"/>
        <pt x="347" y="-10" on="0"/>
        <pt x="228" y="-10" on="1"/>
        <pt x="147" y="-10" on="0"/>
        <pt x="112" y="1" on="1"/>
        <pt x="105" y="3" on="0"/>
        <pt x="90" y="20" on="0"/>
        <pt x="90" y="33" on="1"/>
        <pt x="90" y="54" on="0"/>
        <pt x="131" y="54" on="1"/>
        <pt x="144" y="54" on="0"/>
        <pt x="232" y="26" on="0"/>
      </contour>
      <contour>
        <pt x="340" y="265" on="1"/>
        <pt x="310" y="290" on="0"/>
        <pt x="257" y="290" on="0"/>
        <pt x="257" y="279" on="1"/>
        <pt x="257" y="256" on="0"/>
        <pt x="306" y="256" on="1"/>
        <pt x="324" y="256" on="0"/>
      </contour>
    </TTGlyph>
    <TTGlyph name="C" xMin="0" yMin="-10" xMax="475" yMax="580">
      <contour>
        <pt x="410" y="165" on="1"/>
        <pt x="417" y="175" on="0"/>
        <pt x="430" y="200" on="1"/>
        <pt x="462" y="257" on="0"/>
        <pt x="475" y="257" on="0"/>
        <pt x="475" y="249" on="1"/>
        <pt x="475" y="200" on="0"/>
        <pt x="424" y="125" on="1"/>
        <pt x="332" y="-10" on="0"/>
        <pt x="179" y="-10" on="1"/>
        <pt x="136" y="-10" on="0"/>
        <pt x="64" y="30" on="0"/>
        <pt x="43" y="61" on="1"/>
        <pt x="0" y="124" on="0"/>
        <pt x="0" y="193" on="1"/>
        <pt x="0" y="367" on="0"/>
        <pt x="181" y="580" on="0"/>
        <pt x="305" y="580" on="1"/>
        <pt x="352" y="580" on="0"/>
        <pt x="412" y="525" on="0"/>
        <pt x="412" y="441" on="0"/>
        <pt x="370" y="369" on="0"/>
        <pt x="311" y="369" on="0"/>
        <pt x="311" y="385" on="1"/>
        <pt x="311" y="403" on="0"/>
        <pt x="350" y="449" on="0"/>
        <pt x="350" y="472" on="1"/>
        <pt x="350" y="543" on="0"/>
        <pt x="199" y="543" on="0"/>
        <pt x="77" y="341" on="0"/>
        <pt x="77" y="234" on="1"/>
        <pt x="77" y="160" on="0"/>
        <pt x="161" y="45" on="0"/>
        <pt x="237" y="45" on="1"/>
        <pt x="327" y="45" on="0"/>
      </contour>
    </TTGlyph>
    <TTGlyph name="Cacute" xMin="0" yMin="-10" xMax="475" yMax="770">
      <contour>
        <pt x="237" y="45" on="1"/>
        <pt x="327" y="45" on="0"/>
        <pt x="410" y="165" on="1"/>
        <pt x="417" y="175" on="0"/>
        <pt x="430" y="200" on="1"/>
        <pt x="462" y="257" on="0"/>
        <pt x="475" y="257" on="0"/>
        <pt x="475" y="249" on="1"/>
        <pt x="475" y="200" on="0"/>
        <pt x="424" y="125" on="1"/>
        <pt x="332" y="-10" on="0"/>
        <pt x="179" y="-10" on="1"/>
        <pt x="136" y="-10" on="0"/>
        <pt x="64" y="30" on="0"/>
        <pt x="43" y="61" on="1"/>
        <pt x="0" y="124" on="0"/>
        <pt x="0" y="193" on="1"/>
        <pt x="0" y="367" on="0"/>
        <pt x="181" y="580" on="0"/>
        <pt x="305" y="580" on="1"/>
        <pt x="352" y="580" on="0"/>
        <pt x="412" y="525" on="0"/>
        <pt x="412" y="441" on="0"/>
        <pt x="370" y="369" on="0"/>
        <pt x="311" y="369" on="0"/>
        <pt x="311" y="385" on="1"/>
        <pt x="311" y="403" on="0"/>
        <pt x="350" y="449" on="0"/>
        <pt x="350" y="472" on="1"/>
        <pt x="350" y="543" on="0"/>
        <pt x="199" y="543" on="0"/>
        <pt x="77" y="341" on="0"/>
        <pt x="77" y="234" on="1"/>
        <pt x="77" y="160" on="0"/>
        <pt x="161" y="45" on="0"/>
      </contour>
      <contour>
        <pt x="307" y="719" on="1"/>
        <pt x="307" y="727" on="0"/>
        <pt x="297" y="742" on="0"/>
        <pt x="297" y="752" on="0"/>
        <pt x="332" y="770" on="0"/>
        <pt x="354" y="770" on="0"/>
        <pt x="375" y="746" on="0"/>
        <pt x="375" y="724" on="1"/>
        <pt x="375" y="690" on="0"/>
        <pt x="332" y="658" on="1"/>
        <pt x="312" y="643" on="0"/>
        <pt x="259" y="621" on="0"/>
        <pt x="234" y="621" on="0"/>
        <pt x="234" y="630" on="1"/>
        <pt x="234" y="635" on="0"/>
        <pt x="248" y="643" on="1"/>
        <pt x="306" y="671" on="0"/>
      </contour>
    </TTGlyph>
    <TTGlyph name="Ccedilla" xMin="0" yMin="-150" xMax="476" yMax="580">
      <contour>
        <pt x="195" y="-9" on="1"/>
        <pt x="195" y="-15" on="0"/>
        <pt x="207" y="-24" on="1"/>
        <pt x="243" y="-51" on="0"/>
        <pt x="243" y="-107" on="0"/>
        <pt x="198" y="-150" on="0"/>
        <pt x="154" y="-150" on="0"/>
        <pt x="117" y="-136" on="0"/>
        <pt x="117" y="-125" on="1"/>
        <pt x="117" y="-107" on="0"/>
        <pt x="133" y="-107" on="1"/>
        <pt x="136" y="-107" on="0"/>
        <pt x="150" y="-116" on="0"/>
        <pt x="171" y="-116" on="0"/>
        <pt x="189" y="-96" on="0"/>
        <pt x="189" y="-58" on="0"/>
        <pt x="157" y="-26" on="0"/>
        <pt x="157" y="-15" on="0"/>
        <pt x="160" y="-9" on="1"/>
        <pt x="85" y="-1" on="0"/>
        <pt x="0" y="125" on="0"/>
        <pt x="0" y="193" on="1"/>
        <pt x="0" y="367" on="0"/>
        <pt x="181" y="580" on="0"/>
        <pt x="305" y="580" on="1"/>
        <pt x="352" y="580" on="0"/>
        <pt x="412" y="525" on="0"/>
        <pt x="412" y="441" on="0"/>
        <pt x="370" y="369" on="0"/>
        <pt x="311" y="369" on="0"/>
        <pt x="311" y="385" on="1"/>
        <pt x="311" y="403" on="0"/>
        <pt x="350" y="449" on="0"/>
        <pt x="350" y="472" on="1"/>
        <pt x="350" y="543" on="0"/>
        <pt x="199" y="543" on="0"/>
        <pt x="77" y="341" on="0"/>
        <pt x="77" y="234" on="1"/>
        <pt x="77" y="160" on="0"/>
        <pt x="161" y="45" on="0"/>
        <pt x="238" y="45" on="1"/>
        <pt x="328" y="45" on="0"/>
        <pt x="411" y="165" on="1"/>
        <pt x="418" y="175" on="0"/>
        <pt x="432" y="200" on="1"/>
        <pt x="463" y="257" on="0"/>
        <pt x="476" y="257" on="0"/>
        <pt x="476" y="249" on="1"/>
        <pt x="476" y="200" on="0"/>
        <pt x="425" y="125" on="1"/>
        <pt x="391" y="75" on="0"/>
        <pt x="268" y="-9" on="0"/>
      </contour>
    </TTGlyph>
    <TTGlyph name="D" xMin="21" yMin="-34" xMax="611" yMax="635">
      <contour>
        <pt x="78" y="359" on="1"/>
        <pt x="84" y="295" on="1"/>
        <pt x="84" y="285" on="0"/>
        <pt x="63" y="273" on="0"/>
        <pt x="56" y="273" on="1"/>
        <pt x="42" y="273" on="0"/>
        <pt x="21" y="318" on="0"/>
        <pt x="21" y="337" on="1"/>
        <pt x="21" y="411" on="0"/>
        <pt x="124" y="514" on="0"/>
        <pt x="203" y="540" on="1"/>
        <pt x="203" y="574" on="0"/>
        <pt x="232" y="635" on="0"/>
        <pt x="263" y="635" on="1"/>
        <pt x="276" y="635" on="0"/>
        <pt x="276" y="598" on="1"/>
        <pt x="276" y="556" on="1"/>
        <pt x="308" y="560" on="0"/>
        <pt x="323" y="560" on="1"/>
        <pt x="456" y="560" on="0"/>
        <pt x="611" y="411" on="0"/>
        <pt x="611" y="298" on="1"/>
        <pt x="611" y="220" on="0"/>
        <pt x="555" y="100" on="0"/>
        <pt x="507" y="65" on="1"/>
        <pt x="411" y="-5" on="0"/>
        <pt x="277" y="-5" on="1"/>
        <pt x="256" y="-5" on="1"/>
        <pt x="253" y="-34" on="0"/>
        <pt x="248" y="-34" on="1"/>
        <pt x="201" y="-34" on="0"/>
        <pt x="185" y="-21" on="1"/>
        <pt x="178" y="-14" on="0"/>
        <pt x="177" y="3" on="1"/>
        <pt x="88" y="28" on="0"/>
        <pt x="88" y="58" on="1"/>
        <pt x="88" y="68" on="0"/>
        <pt x="102" y="79" on="0"/>
        <pt x="119" y="79" on="0"/>
        <pt x="177" y="55" on="1"/>
        <pt x="186" y="317" on="0"/>
        <pt x="200" y="505" on="1"/>
        <pt x="145" y="486" on="0"/>
        <pt x="78" y="410" on="0"/>
      </contour>
      <contour>
        <pt x="296" y="521" on="1"/>
        <pt x="282" y="521" on="0"/>
        <pt x="275" y="520" on="1"/>
        <pt x="271" y="345" on="0"/>
        <pt x="265" y="226" on="1"/>
        <pt x="260" y="71" on="0"/>
        <pt x="258" y="31" on="1"/>
        <pt x="278" y="28" on="0"/>
        <pt x="300" y="28" on="1"/>
        <pt x="395" y="28" on="0"/>
        <pt x="535" y="169" on="0"/>
        <pt x="535" y="375" on="0"/>
        <pt x="401" y="521" on="0"/>
      </contour>
    </TTGlyph>
    <TTGlyph name="E" xMin="22" yMin="-15" xMax="499" yMax="600">
      <contour>
        <pt x="287" y="327" on="0"/>
        <pt x="255" y="344" on="0"/>
        <pt x="213" y="344" on="0"/>
        <pt x="193" y="334" on="1"/>
        <pt x="227" y="303" on="0"/>
        <pt x="268" y="303" on="1"/>
        <pt x="277" y="303" on="0"/>
        <pt x="287" y="312" on="0"/>
        <pt x="287" y="315" on="1"/>
      </contour>
      <contour>
        <pt x="334" y="482" on="1"/>
        <pt x="336" y="509" on="1"/>
        <pt x="336" y="531" on="0"/>
        <pt x="303" y="570" on="0"/>
        <pt x="275" y="570" on="1"/>
        <pt x="227" y="570" on="0"/>
        <pt x="149" y="484" on="0"/>
        <pt x="149" y="387" on="0"/>
        <pt x="174" y="354" on="1"/>
        <pt x="217" y="373" on="0"/>
        <pt x="291" y="373" on="0"/>
        <pt x="336" y="348" on="0"/>
        <pt x="336" y="298" on="0"/>
        <pt x="287" y="274" on="0"/>
        <pt x="257" y="274" on="1"/>
        <pt x="201" y="274" on="0"/>
        <pt x="155" y="305" on="1"/>
        <pt x="131" y="280" on="0"/>
        <pt x="102" y="212" on="0"/>
        <pt x="102" y="183" on="1"/>
        <pt x="102" y="124" on="0"/>
        <pt x="178" y="26" on="0"/>
        <pt x="241" y="26" on="1"/>
        <pt x="373" y="26" on="0"/>
        <pt x="456" y="200" on="1"/>
        <pt x="484" y="257" on="0"/>
        <pt x="499" y="257" on="0"/>
        <pt x="499" y="249" on="1"/>
        <pt x="499" y="209" on="0"/>
        <pt x="400" y="48" on="0"/>
        <pt x="285" y="-15" on="0"/>
        <pt x="118" y="-15" on="0"/>
        <pt x="22" y="83" on="0"/>
        <pt x="22" y="156" on="1"/>
        <pt x="22" y="204" on="0"/>
        <pt x="79" y="293" on="0"/>
        <pt x="124" y="325" on="1"/>
        <pt x="77" y="364" on="0"/>
        <pt x="77" y="419" on="1"/>
        <pt x="77" y="495" on="0"/>
        <pt x="195" y="600" on="0"/>
        <pt x="279" y="600" on="1"/>
        <pt x="334" y="600" on="0"/>
        <pt x="409" y="543" on="0"/>
        <pt x="409" y="504" on="1"/>
        <pt x="409" y="482" on="0"/>
        <pt x="383" y="454" on="0"/>
        <pt x="363" y="454" on="1"/>
        <pt x="334" y="454" on="0"/>
      </contour>
    </TTGlyph>
    <TTGlyph name="Eacute" xMin="22" yMin="-15" xMax="499" yMax="789">
      <contour>
        <pt x="334" y="482" on="1"/>
        <pt x="336" y="509" on="1"/>
        <pt x="336" y="531" on="0"/>
        <pt x="303" y="570" on="0"/>
        <pt x="275" y="570" on="1"/>
        <pt x="227" y="570" on="0"/>
        <pt x="149" y="484" on="0"/>
        <pt x="149" y="387" on="0"/>
        <pt x="174" y="354" on="1"/>
        <pt x="217" y="373" on="0"/>
        <pt x="291" y="373" on="0"/>
        <pt x="336" y="348" on="0"/>
        <pt x="336" y="298" on="0"/>
        <pt x="287" y="274" on="0"/>
        <pt x="257" y="274" on="1"/>
        <pt x="201" y="274" on="0"/>
        <pt x="155" y="305" on="1"/>
        <pt x="131" y="280" on="0"/>
        <pt x="102" y="212" on="0"/>
        <pt x="102" y="183" on="1"/>
        <pt x="102" y="124" on="0"/>
        <pt x="178" y="26" on="0"/>
        <pt x="241" y="26" on="1"/>
        <pt x="373" y="26" on="0"/>
        <pt x="456" y="200" on="1"/>
        <pt x="484" y="257" on="0"/>
        <pt x="499" y="257" on="0"/>
        <pt x="499" y="249" on="1"/>
        <pt x="499" y="209" on="0"/>
        <pt x="400" y="48" on="0"/>
        <pt x="285" y="-15" on="0"/>
        <pt x="118" y="-15" on="0"/>
        <pt x="22" y="83" on="0"/>
        <pt x="22" y="156" on="1"/>
        <pt x="22" y="204" on="0"/>
        <pt x="79" y="293" on="0"/>
        <pt x="124" y="325" on="1"/>
        <pt x="77" y="364" on="0"/>
        <pt x="77" y="419" on="1"/>
        <pt x="77" y="495" on="0"/>
        <pt x="195" y="600" on="0"/>
        <pt x="279" y="600" on="1"/>
        <pt x="334" y="600" on="0"/>
        <pt x="409" y="543" on="0"/>
        <pt x="409" y="504" on="1"/>
        <pt x="409" y="482" on="0"/>
        <pt x="383" y="454" on="0"/>
        <pt x="363" y="454" on="1"/>
        <pt x="334" y="454" on="0"/>
      </contour>
      <contour>
        <pt x="287" y="327" on="0"/>
        <pt x="255" y="344" on="0"/>
        <pt x="213" y="344" on="0"/>
        <pt x="193" y="334" on="1"/>
        <pt x="227" y="303" on="0"/>
        <pt x="268" y="303" on="1"/>
        <pt x="277" y="303" on="0"/>
        <pt x="287" y="312" on="0"/>
        <pt x="287" y="315" on="1"/>
      </contour>
      <contour>
        <pt x="288" y="738" on="1"/>
        <pt x="288" y="746" on="0"/>
        <pt x="278" y="761" on="0"/>
        <pt x="278" y="771" on="0"/>
        <pt x="313" y="789" on="0"/>
        <pt x="335" y="789" on="0"/>
        <pt x="356" y="766" on="0"/>
        <pt x="356" y="743" on="1"/>
        <pt x="356" y="709" on="0"/>
        <pt x="313" y="677" on="1"/>
        <pt x="293" y="662" on="0"/>
        <pt x="240" y="640" on="0"/>
        <pt x="215" y="640" on="0"/>
        <pt x="215" y="649" on="1"/>
        <pt x="215" y="654" on="0"/>
        <pt x="229" y="662" on="1"/>
        <pt x="287" y="690" on="0"/>
      </contour>
    </TTGlyph>
    <TTGlyph name="Ecircumflex" xMin="22" yMin="-15" xMax="499" yMax="770">
      <contour>
        <pt x="334" y="482" on="1"/>
        <pt x="336" y="509" on="1"/>
        <pt x="336" y="531" on="0"/>
        <pt x="303" y="570" on="0"/>
        <pt x="275" y="570" on="1"/>
        <pt x="227" y="570" on="0"/>
        <pt x="149" y="484" on="0"/>
        <pt x="149" y="387" on="0"/>
        <pt x="174" y="354" on="1"/>
        <pt x="217" y="373" on="0"/>
        <pt x="291" y="373" on="0"/>
        <pt x="336" y="348" on="0"/>
        <pt x="336" y="298" on="0"/>
        <pt x="287" y="274" on="0"/>
        <pt x="257" y="274" on="1"/>
        <pt x="201" y="274" on="0"/>
        <pt x="155" y="305" on="1"/>
        <pt x="131" y="280" on="0"/>
        <pt x="102" y="212" on="0"/>
        <pt x="102" y="183" on="1"/>
        <pt x="102" y="124" on="0"/>
        <pt x="178" y="26" on="0"/>
        <pt x="241" y="26" on="1"/>
        <pt x="373" y="26" on="0"/>
        <pt x="456" y="200" on="1"/>
        <pt x="484" y="257" on="0"/>
        <pt x="499" y="257" on="0"/>
        <pt x="499" y="249" on="1"/>
        <pt x="499" y="209" on="0"/>
        <pt x="400" y="48" on="0"/>
        <pt x="285" y="-15" on="0"/>
        <pt x="118" y="-15" on="0"/>
        <pt x="22" y="83" on="0"/>
        <pt x="22" y="156" on="1"/>
        <pt x="22" y="204" on="0"/>
        <pt x="79" y="293" on="0"/>
        <pt x="124" y="325" on="1"/>
        <pt x="77" y="364" on="0"/>
        <pt x="77" y="419" on="1"/>
        <pt x="77" y="495" on="0"/>
        <pt x="195" y="600" on="0"/>
        <pt x="279" y="600" on="1"/>
        <pt x="334" y="600" on="0"/>
        <pt x="409" y="543" on="0"/>
        <pt x="409" y="504" on="1"/>
        <pt x="409" y="482" on="0"/>
        <pt x="383" y="454" on="0"/>
        <pt x="363" y="454" on="1"/>
        <pt x="334" y="454" on="0"/>
      </contour>
      <contour>
        <pt x="287" y="327" on="0"/>
        <pt x="255" y="344" on="0"/>
        <pt x="213" y="344" on="0"/>
        <pt x="193" y="334" on="1"/>
        <pt x="227" y="303" on="0"/>
        <pt x="268" y="303" on="1"/>
        <pt x="277" y="303" on="0"/>
        <pt x="287" y="312" on="0"/>
        <pt x="287" y="315" on="1"/>
      </contour>
      <contour>
        <pt x="399" y="631" on="0"/>
        <pt x="375" y="615" on="0"/>
        <pt x="369" y="615" on="1"/>
        <pt x="317" y="615" on="0"/>
        <pt x="282" y="686" on="1"/>
        <pt x="270" y="660" on="0"/>
        <pt x="208" y="626" on="0"/>
        <pt x="179" y="626" on="0"/>
        <pt x="178" y="635" on="1"/>
        <pt x="178" y="639" on="0"/>
        <pt x="195" y="647" on="0"/>
        <pt x="212" y="658" on="0"/>
        <pt x="234" y="679" on="0"/>
        <pt x="246" y="690" on="0"/>
        <pt x="254" y="711" on="0"/>
        <pt x="255" y="714" on="1"/>
        <pt x="260" y="726" on="0"/>
        <pt x="260" y="741" on="1"/>
        <pt x="261" y="749" on="0"/>
        <pt x="296" y="770" on="0"/>
        <pt x="304" y="770" on="1"/>
        <pt x="316" y="770" on="0"/>
        <pt x="322" y="731" on="0"/>
        <pt x="329" y="705" on="0"/>
        <pt x="342" y="685" on="1"/>
        <pt x="358" y="659" on="0"/>
        <pt x="383" y="648" on="1"/>
        <pt x="399" y="641" on="0"/>
      </contour>
    </TTGlyph>
    <TTGlyph name="Edieresis" xMin="22" yMin="-15" xMax="499" yMax="735">
      <contour>
        <pt x="334" y="482" on="1"/>
        <pt x="336" y="509" on="1"/>
        <pt x="336" y="531" on="0"/>
        <pt x="303" y="570" on="0"/>
        <pt x="275" y="570" on="1"/>
        <pt x="227" y="570" on="0"/>
        <pt x="149" y="484" on="0"/>
        <pt x="149" y="387" on="0"/>
        <pt x="174" y="354" on="1"/>
        <pt x="217" y="373" on="0"/>
        <pt x="291" y="373" on="0"/>
        <pt x="336" y="348" on="0"/>
        <pt x="336" y="298" on="0"/>
        <pt x="287" y="274" on="0"/>
        <pt x="257" y="274" on="1"/>
        <pt x="201" y="274" on="0"/>
        <pt x="155" y="305" on="1"/>
        <pt x="131" y="280" on="0"/>
        <pt x="102" y="212" on="0"/>
        <pt x="102" y="183" on="1"/>
        <pt x="102" y="124" on="0"/>
        <pt x="178" y="26" on="0"/>
        <pt x="241" y="26" on="1"/>
        <pt x="373" y="26" on="0"/>
        <pt x="456" y="200" on="1"/>
        <pt x="484" y="257" on="0"/>
        <pt x="499" y="257" on="0"/>
        <pt x="499" y="249" on="1"/>
        <pt x="499" y="209" on="0"/>
        <pt x="400" y="48" on="0"/>
        <pt x="285" y="-15" on="0"/>
        <pt x="118" y="-15" on="0"/>
        <pt x="22" y="83" on="0"/>
        <pt x="22" y="156" on="1"/>
        <pt x="22" y="204" on="0"/>
        <pt x="79" y="293" on="0"/>
        <pt x="124" y="325" on="1"/>
        <pt x="77" y="364" on="0"/>
        <pt x="77" y="419" on="1"/>
        <pt x="77" y="495" on="0"/>
        <pt x="195" y="600" on="0"/>
        <pt x="279" y="600" on="1"/>
        <pt x="334" y="600" on="0"/>
        <pt x="409" y="543" on="0"/>
        <pt x="409" y="504" on="1"/>
        <pt x="409" y="482" on="0"/>
        <pt x="383" y="454" on="0"/>
        <pt x="363" y="454" on="1"/>
        <pt x="334" y="454" on="0"/>
      </contour>
      <contour>
        <pt x="287" y="327" on="0"/>
        <pt x="255" y="344" on="0"/>
        <pt x="213" y="344" on="0"/>
        <pt x="193" y="334" on="1"/>
        <pt x="227" y="303" on="0"/>
        <pt x="268" y="303" on="1"/>
        <pt x="277" y="303" on="0"/>
        <pt x="287" y="312" on="0"/>
        <pt x="287" y="315" on="1"/>
      </contour>
      <contour>
        <pt x="200" y="653" on="0"/>
        <pt x="173" y="671" on="0"/>
        <pt x="173" y="711" on="0"/>
        <pt x="210" y="735" on="0"/>
        <pt x="242" y="735" on="0"/>
        <pt x="264" y="717" on="0"/>
        <pt x="264" y="704" on="1"/>
        <pt x="264" y="653" on="0"/>
        <pt x="213" y="653" on="1"/>
      </contour>
      <contour>
        <pt x="344" y="653" on="0"/>
        <pt x="317" y="671" on="0"/>
        <pt x="317" y="711" on="0"/>
        <pt x="355" y="735" on="0"/>
        <pt x="387" y="735" on="0"/>
        <pt x="408" y="717" on="0"/>
        <pt x="408" y="704" on="1"/>
        <pt x="408" y="653" on="0"/>
        <pt x="358" y="653" on="1"/>
      </contour>
    </TTGlyph>
    <TTGlyph name="Egrave" xMin="22" yMin="-15" xMax="499" yMax="770">
      <contour>
        <pt x="334" y="482" on="1"/>
        <pt x="336" y="509" on="1"/>
        <pt x="336" y="531" on="0"/>
        <pt x="303" y="570" on="0"/>
        <pt x="275" y="570" on="1"/>
        <pt x="227" y="570" on="0"/>
        <pt x="149" y="484" on="0"/>
        <pt x="149" y="387" on="0"/>
        <pt x="174" y="354" on="1"/>
        <pt x="217" y="373" on="0"/>
        <pt x="291" y="373" on="0"/>
        <pt x="336" y="348" on="0"/>
        <pt x="336" y="298" on="0"/>
        <pt x="287" y="274" on="0"/>
        <pt x="257" y="274" on="1"/>
        <pt x="201" y="274" on="0"/>
        <pt x="155" y="305" on="1"/>
        <pt x="131" y="280" on="0"/>
        <pt x="102" y="212" on="0"/>
        <pt x="102" y="183" on="1"/>
        <pt x="102" y="124" on="0"/>
        <pt x="178" y="26" on="0"/>
        <pt x="241" y="26" on="1"/>
        <pt x="373" y="26" on="0"/>
        <pt x="456" y="200" on="1"/>
        <pt x="484" y="257" on="0"/>
        <pt x="499" y="257" on="0"/>
        <pt x="499" y="249" on="1"/>
        <pt x="499" y="209" on="0"/>
        <pt x="400" y="48" on="0"/>
        <pt x="285" y="-15" on="0"/>
        <pt x="118" y="-15" on="0"/>
        <pt x="22" y="83" on="0"/>
        <pt x="22" y="156" on="1"/>
        <pt x="22" y="204" on="0"/>
        <pt x="79" y="293" on="0"/>
        <pt x="124" y="325" on="1"/>
        <pt x="77" y="364" on="0"/>
        <pt x="77" y="419" on="1"/>
        <pt x="77" y="495" on="0"/>
        <pt x="195" y="600" on="0"/>
        <pt x="279" y="600" on="1"/>
        <pt x="334" y="600" on="0"/>
        <pt x="409" y="543" on="0"/>
        <pt x="409" y="504" on="1"/>
        <pt x="409" y="482" on="0"/>
        <pt x="383" y="454" on="0"/>
        <pt x="363" y="454" on="1"/>
        <pt x="334" y="454" on="0"/>
      </contour>
      <contour>
        <pt x="287" y="327" on="0"/>
        <pt x="255" y="344" on="0"/>
        <pt x="213" y="344" on="0"/>
        <pt x="193" y="334" on="1"/>
        <pt x="227" y="303" on="0"/>
        <pt x="268" y="303" on="1"/>
        <pt x="277" y="303" on="0"/>
        <pt x="287" y="312" on="0"/>
        <pt x="287" y="315" on="1"/>
      </contour>
      <contour>
        <pt x="271" y="747" on="0"/>
        <pt x="286" y="711" on="0"/>
        <pt x="294" y="699" on="0"/>
        <pt x="301" y="690" on="0"/>
        <pt x="307" y="684" on="0"/>
        <pt x="317" y="677" on="0"/>
        <pt x="323" y="673" on="0"/>
        <pt x="336" y="666" on="0"/>
        <pt x="341" y="664" on="0"/>
        <pt x="349" y="660" on="1"/>
        <pt x="359" y="655" on="1"/>
        <pt x="372" y="648" on="0"/>
        <pt x="372" y="638" on="1"/>
        <pt x="372" y="623" on="0"/>
        <pt x="337" y="623" on="0"/>
        <pt x="281" y="642" on="0"/>
        <pt x="260" y="656" on="1"/>
        <pt x="210" y="690" on="0"/>
        <pt x="210" y="728" on="1"/>
        <pt x="210" y="739" on="0"/>
        <pt x="242" y="770" on="0"/>
        <pt x="257" y="770" on="0"/>
      </contour>
    </TTGlyph>
    <TTGlyph name="Eogonek" xMin="22" yMin="-173" xMax="499" yMax="600">
      <contour>
        <pt x="287" y="327" on="0"/>
        <pt x="255" y="344" on="0"/>
        <pt x="213" y="344" on="0"/>
        <pt x="193" y="334" on="1"/>
        <pt x="227" y="303" on="0"/>
        <pt x="268" y="303" on="1"/>
        <pt x="277" y="303" on="0"/>
        <pt x="287" y="312" on="0"/>
        <pt x="287" y="315" on="1"/>
      </contour>
      <contour>
        <pt x="334" y="482" on="1"/>
        <pt x="336" y="509" on="1"/>
        <pt x="336" y="531" on="0"/>
        <pt x="303" y="570" on="0"/>
        <pt x="275" y="570" on="1"/>
        <pt x="227" y="570" on="0"/>
        <pt x="149" y="484" on="0"/>
        <pt x="149" y="387" on="0"/>
        <pt x="174" y="354" on="1"/>
        <pt x="217" y="373" on="0"/>
        <pt x="291" y="373" on="0"/>
        <pt x="336" y="348" on="0"/>
        <pt x="336" y="297" on="0"/>
        <pt x="289" y="270" on="0"/>
        <pt x="258" y="270" on="1"/>
        <pt x="207" y="270" on="0"/>
        <pt x="155" y="305" on="1"/>
        <pt x="131" y="280" on="0"/>
        <pt x="102" y="212" on="0"/>
        <pt x="102" y="183" on="1"/>
        <pt x="102" y="124" on="0"/>
        <pt x="178" y="26" on="0"/>
        <pt x="241" y="26" on="1"/>
        <pt x="373" y="26" on="0"/>
        <pt x="456" y="200" on="1"/>
        <pt x="484" y="257" on="0"/>
        <pt x="499" y="257" on="0"/>
        <pt x="499" y="249" on="1"/>
        <pt x="499" y="209" on="0"/>
        <pt x="448" y="125" on="1"/>
        <pt x="412" y="67" on="0"/>
        <pt x="355" y="28" on="1"/>
        <pt x="299" y="-25" on="0"/>
        <pt x="299" y="-89" on="1"/>
        <pt x="299" y="-106" on="0"/>
        <pt x="316" y="-125" on="0"/>
        <pt x="341" y="-125" on="0"/>
        <pt x="368" y="-98" on="0"/>
        <pt x="370" y="-98" on="1"/>
        <pt x="377" y="-98" on="0"/>
        <pt x="377" y="-132" on="0"/>
        <pt x="329" y="-173" on="0"/>
        <pt x="281" y="-173" on="0"/>
        <pt x="247" y="-143" on="0"/>
        <pt x="247" y="-117" on="1"/>
        <pt x="247" y="-63" on="0"/>
        <pt x="295" y="-2" on="1"/>
        <pt x="256" y="-15" on="0"/>
        <pt x="208" y="-15" on="1"/>
        <pt x="118" y="-15" on="0"/>
        <pt x="22" y="83" on="0"/>
        <pt x="22" y="156" on="1"/>
        <pt x="22" y="204" on="0"/>
        <pt x="79" y="293" on="0"/>
        <pt x="124" y="325" on="1"/>
        <pt x="77" y="364" on="0"/>
        <pt x="77" y="419" on="1"/>
        <pt x="77" y="495" on="0"/>
        <pt x="195" y="600" on="0"/>
        <pt x="279" y="600" on="1"/>
        <pt x="334" y="600" on="0"/>
        <pt x="409" y="543" on="0"/>
        <pt x="409" y="504" on="1"/>
        <pt x="409" y="482" on="0"/>
        <pt x="383" y="454" on="0"/>
        <pt x="363" y="454" on="1"/>
        <pt x="334" y="454" on="0"/>
      </contour>
    </TTGlyph>
    <TTGlyph name="Eth" xMin="0" yMin="-34" xMax="590" yMax="635">
      <contour>
        <pt x="57" y="359" on="1"/>
        <pt x="63" y="295" on="1"/>
        <pt x="63" y="285" on="0"/>
        <pt x="42" y="273" on="0"/>
        <pt x="35" y="273" on="1"/>
        <pt x="21" y="273" on="0"/>
        <pt x="0" y="318" on="0"/>
        <pt x="0" y="337" on="1"/>
        <pt x="0" y="411" on="0"/>
        <pt x="103" y="514" on="0"/>
        <pt x="182" y="540" on="1"/>
        <pt x="182" y="547" on="0"/>
        <pt x="183" y="550" on="1"/>
        <pt x="189" y="594" on="0"/>
        <pt x="216" y="635" on="0"/>
        <pt x="242" y="635" on="1"/>
        <pt x="255" y="635" on="0"/>
        <pt x="255" y="598" on="1"/>
        <pt x="255" y="556" on="1"/>
        <pt x="287" y="560" on="0"/>
        <pt x="302" y="560" on="1"/>
        <pt x="435" y="560" on="0"/>
        <pt x="590" y="411" on="0"/>
        <pt x="590" y="298" on="1"/>
        <pt x="590" y="220" on="0"/>
        <pt x="534" y="100" on="0"/>
        <pt x="486" y="65" on="1"/>
        <pt x="390" y="-5" on="0"/>
        <pt x="256" y="-5" on="1"/>
        <pt x="235" y="-5" on="1"/>
        <pt x="232" y="-34" on="0"/>
        <pt x="226" y="-34" on="1"/>
        <pt x="180" y="-34" on="0"/>
        <pt x="164" y="-21" on="1"/>
        <pt x="157" y="-14" on="0"/>
        <pt x="156" y="3" on="1"/>
        <pt x="122" y="10" on="0"/>
        <pt x="92" y="27" on="1"/>
        <pt x="67" y="40" on="0"/>
        <pt x="67" y="68" on="0"/>
        <pt x="81" y="79" on="0"/>
        <pt x="98" y="79" on="0"/>
        <pt x="156" y="55" on="1"/>
        <pt x="158" y="124" on="0"/>
        <pt x="162" y="201" on="1"/>
        <pt x="134" y="201" on="0"/>
        <pt x="55" y="215" on="0"/>
        <pt x="55" y="238" on="0"/>
        <pt x="80" y="238" on="1"/>
        <pt x="164" y="235" on="1"/>
        <pt x="173" y="409" on="0"/>
        <pt x="179" y="505" on="1"/>
        <pt x="124" y="486" on="0"/>
        <pt x="57" y="410" on="0"/>
      </contour>
      <contour>
        <pt x="275" y="521" on="1"/>
        <pt x="261" y="521" on="0"/>
        <pt x="254" y="520" on="1"/>
        <pt x="251" y="406" on="0"/>
        <pt x="245" y="260" on="1"/>
        <pt x="253" y="264" on="0"/>
        <pt x="262" y="270" on="1"/>
        <pt x="278" y="281" on="0"/>
        <pt x="307" y="281" on="0"/>
        <pt x="337" y="270" on="0"/>
        <pt x="337" y="261" on="1"/>
        <pt x="337" y="234" on="0"/>
        <pt x="243" y="211" on="1"/>
        <pt x="242" y="178" on="0"/>
        <pt x="239" y="98" on="0"/>
        <pt x="238" y="48" on="0"/>
        <pt x="237" y="31" on="1"/>
        <pt x="256" y="28" on="0"/>
        <pt x="279" y="28" on="1"/>
        <pt x="374" y="28" on="0"/>
        <pt x="514" y="169" on="0"/>
        <pt x="514" y="375" on="0"/>
        <pt x="380" y="521" on="0"/>
      </contour>
    </TTGlyph>
    <TTGlyph name="Euro" xMin="33" yMin="-12" xMax="450" yMax="520">
      <contour>
        <pt x="73" y="337" on="1"/>
        <pt x="110" y="331" on="1"/>
        <pt x="134" y="414" on="0"/>
        <pt x="244" y="520" on="0"/>
        <pt x="331" y="520" on="1"/>
        <pt x="368" y="520" on="0"/>
        <pt x="450" y="483" on="0"/>
        <pt x="450" y="456" on="1"/>
        <pt x="450" y="446" on="0"/>
        <pt x="437" y="433" on="0"/>
        <pt x="411" y="433" on="0"/>
        <pt x="382" y="462" on="0"/>
        <pt x="374" y="468" on="1"/>
        <pt x="354" y="484" on="0"/>
        <pt x="324" y="484" on="1"/>
        <pt x="270" y="484" on="0"/>
        <pt x="193" y="394" on="0"/>
        <pt x="175" y="327" on="1"/>
        <pt x="188" y="326" on="0"/>
        <pt x="308" y="326" on="0"/>
        <pt x="360" y="342" on="0"/>
        <pt x="365" y="342" on="1"/>
        <pt x="376" y="342" on="0"/>
        <pt x="376" y="316" on="0"/>
        <pt x="356" y="282" on="0"/>
        <pt x="341" y="282" on="1"/>
        <pt x="280" y="282" on="0"/>
        <pt x="191" y="289" on="0"/>
        <pt x="167" y="289" on="1"/>
        <pt x="163" y="265" on="0"/>
        <pt x="163" y="217" on="0"/>
        <pt x="164" y="207" on="1"/>
        <pt x="239" y="201" on="0"/>
        <pt x="278" y="201" on="0"/>
        <pt x="311" y="204" on="1"/>
        <pt x="318" y="206" on="0"/>
        <pt x="343" y="214" on="0"/>
        <pt x="348" y="214" on="1"/>
        <pt x="357" y="214" on="0"/>
        <pt x="357" y="204" on="1"/>
        <pt x="357" y="152" on="0"/>
        <pt x="280" y="152" on="0"/>
        <pt x="186" y="165" on="0"/>
        <pt x="170" y="166" on="1"/>
        <pt x="184" y="106" on="0"/>
        <pt x="255" y="38" on="0"/>
        <pt x="342" y="38" on="0"/>
        <pt x="366" y="48" on="1"/>
        <pt x="405" y="66" on="0"/>
        <pt x="419" y="66" on="0"/>
        <pt x="429" y="55" on="0"/>
        <pt x="429" y="49" on="1"/>
        <pt x="429" y="23" on="0"/>
        <pt x="327" y="-12" on="0"/>
        <pt x="275" y="-12" on="1"/>
        <pt x="196" y="-12" on="0"/>
        <pt x="105" y="85" on="0"/>
        <pt x="94" y="161" on="1"/>
        <pt x="44" y="161" on="0"/>
        <pt x="36" y="172" on="1"/>
        <pt x="33" y="177" on="0"/>
        <pt x="33" y="185" on="1"/>
        <pt x="33" y="208" on="0"/>
        <pt x="92" y="211" on="1"/>
        <pt x="92" y="241" on="0"/>
        <pt x="99" y="287" on="1"/>
        <pt x="67" y="283" on="0"/>
        <pt x="66" y="283" on="1"/>
        <pt x="44" y="283" on="0"/>
        <pt x="44" y="301" on="1"/>
        <pt x="44" y="312" on="0"/>
        <pt x="62" y="337" on="0"/>
      </contour>
    </TTGlyph>
    <TTGlyph name="F" xMin="8" yMin="-34" xMax="484" yMax="580">
      <contour>
        <pt x="69" y="401" on="1"/>
        <pt x="79" y="354" on="1"/>
        <pt x="79" y="337" on="0"/>
        <pt x="55" y="315" on="0"/>
        <pt x="23" y="315" on="0"/>
        <pt x="8" y="345" on="0"/>
        <pt x="8" y="363" on="1"/>
        <pt x="8" y="417" on="0"/>
        <pt x="101" y="504" on="0"/>
        <pt x="160" y="504" on="1"/>
        <pt x="166" y="504" on="1"/>
        <pt x="186" y="580" on="0"/>
        <pt x="226" y="580" on="1"/>
        <pt x="238" y="580" on="0"/>
        <pt x="238" y="548" on="1"/>
        <pt x="238" y="542" on="0"/>
        <pt x="235" y="500" on="1"/>
        <pt x="250" y="498" on="0"/>
        <pt x="270" y="495" on="1"/>
        <pt x="317" y="488" on="0"/>
        <pt x="380" y="488" on="0"/>
        <pt x="445" y="509" on="0"/>
        <pt x="456" y="509" on="1"/>
        <pt x="484" y="509" on="0"/>
        <pt x="484" y="452" on="0"/>
        <pt x="424" y="423" on="0"/>
        <pt x="310" y="423" on="0"/>
        <pt x="228" y="449" on="1"/>
        <pt x="216" y="380" on="0"/>
        <pt x="212" y="310" on="0"/>
        <pt x="210" y="241" on="1"/>
        <pt x="252" y="243" on="0"/>
        <pt x="326" y="243" on="1"/>
        <pt x="339" y="243" on="0"/>
        <pt x="358" y="223" on="0"/>
        <pt x="358" y="201" on="0"/>
        <pt x="344" y="187" on="0"/>
        <pt x="336" y="187" on="1"/>
        <pt x="209" y="194" on="1"/>
        <pt x="205" y="96" on="0"/>
        <pt x="200" y="26" on="0"/>
        <pt x="166" y="-34" on="0"/>
        <pt x="143" y="-34" on="1"/>
        <pt x="130" y="-34" on="0"/>
        <pt x="99" y="-7" on="0"/>
        <pt x="99" y="17" on="0"/>
        <pt x="106" y="30" on="0"/>
        <pt x="115" y="43" on="0"/>
        <pt x="117" y="47" on="1"/>
        <pt x="129" y="73" on="0"/>
        <pt x="139" y="190" on="1"/>
        <pt x="100" y="185" on="1"/>
        <pt x="92" y="185" on="0"/>
        <pt x="82" y="196" on="0"/>
        <pt x="82" y="211" on="0"/>
        <pt x="88" y="223" on="0"/>
        <pt x="106" y="230" on="0"/>
        <pt x="110" y="231" on="1"/>
        <pt x="126" y="235" on="0"/>
        <pt x="142" y="235" on="1"/>
        <pt x="144" y="259" on="0"/>
        <pt x="151" y="419" on="0"/>
        <pt x="158" y="464" on="1"/>
        <pt x="152" y="465" on="0"/>
        <pt x="140" y="465" on="1"/>
        <pt x="69" y="465" on="0"/>
      </contour>
    </TTGlyph>
    <TTGlyph name="G" xMin="0" yMin="-15" xMax="604" yMax="580">
      <contour>
        <pt x="487" y="214" on="1"/>
        <pt x="518" y="223" on="0"/>
        <pt x="586" y="266" on="0"/>
        <pt x="604" y="266" on="0"/>
        <pt x="604" y="243" on="0"/>
        <pt x="590" y="233" on="1"/>
        <pt x="539" y="197" on="0"/>
        <pt x="484" y="178" on="1"/>
        <pt x="463" y="81" on="0"/>
        <pt x="317" y="-15" on="0"/>
        <pt x="223" y="-15" on="1"/>
        <pt x="163" y="-15" on="0"/>
        <pt x="72" y="27" on="0"/>
        <pt x="48" y="60" on="1"/>
        <pt x="0" y="125" on="0"/>
        <pt x="0" y="197" on="1"/>
        <pt x="0" y="290" on="0"/>
        <pt x="57" y="441" on="0"/>
        <pt x="149" y="532" on="0"/>
        <pt x="256" y="580" on="0"/>
        <pt x="366" y="580" on="0"/>
        <pt x="458" y="509" on="0"/>
        <pt x="458" y="463" on="1"/>
        <pt x="458" y="448" on="0"/>
        <pt x="435" y="428" on="0"/>
        <pt x="419" y="428" on="1"/>
        <pt x="396" y="428" on="0"/>
        <pt x="387" y="460" on="1"/>
        <pt x="365" y="537" on="0"/>
        <pt x="282" y="537" on="1"/>
        <pt x="212" y="537" on="0"/>
        <pt x="81" y="363" on="0"/>
        <pt x="81" y="244" on="1"/>
        <pt x="81" y="160" on="0"/>
        <pt x="182" y="36" on="0"/>
        <pt x="258" y="36" on="1"/>
        <pt x="319" y="36" on="0"/>
        <pt x="405" y="106" on="0"/>
        <pt x="417" y="161" on="1"/>
        <pt x="392" y="156" on="0"/>
        <pt x="320" y="156" on="0"/>
        <pt x="267" y="190" on="0"/>
        <pt x="267" y="249" on="0"/>
        <pt x="328" y="291" on="0"/>
        <pt x="422" y="291" on="0"/>
        <pt x="487" y="253" on="0"/>
      </contour>
      <contour>
        <pt x="372" y="257" on="1"/>
        <pt x="327" y="257" on="0"/>
        <pt x="327" y="237" on="1"/>
        <pt x="327" y="222" on="0"/>
        <pt x="363" y="202" on="0"/>
        <pt x="402" y="202" on="0"/>
        <pt x="422" y="204" on="1"/>
        <pt x="421" y="228" on="0"/>
        <pt x="391" y="257" on="0"/>
      </contour>
    </TTGlyph>
    <TTGlyph name="H" xMin="32" yMin="-34" xMax="560" yMax="660">
      <contour>
        <pt x="67" y="466" on="0"/>
        <pt x="91" y="427" on="0"/>
        <pt x="91" y="404" on="0"/>
        <pt x="80" y="386" on="0"/>
        <pt x="71" y="386" on="1"/>
        <pt x="54" y="386" on="0"/>
        <pt x="32" y="444" on="0"/>
        <pt x="32" y="476" on="1"/>
        <pt x="32" y="524" on="0"/>
        <pt x="103" y="600" on="0"/>
        <pt x="158" y="600" on="1"/>
        <pt x="195" y="600" on="0"/>
        <pt x="232" y="529" on="0"/>
        <pt x="232" y="439" on="0"/>
        <pt x="227" y="360" on="0"/>
        <pt x="223" y="317" on="0"/>
        <pt x="211" y="224" on="0"/>
        <pt x="209" y="206" on="1"/>
        <pt x="289" y="206" on="0"/>
        <pt x="377" y="287" on="1"/>
        <pt x="389" y="431" on="0"/>
        <pt x="432" y="594" on="0"/>
        <pt x="476" y="660" on="0"/>
        <pt x="527" y="660" on="0"/>
        <pt x="560" y="614" on="0"/>
        <pt x="560" y="582" on="1"/>
        <pt x="560" y="464" on="0"/>
        <pt x="455" y="327" on="1"/>
        <pt x="449" y="248" on="0"/>
        <pt x="449" y="115" on="0"/>
        <pt x="488" y="-10" on="0"/>
        <pt x="488" y="-25" on="0"/>
        <pt x="466" y="-34" on="0"/>
        <pt x="453" y="-34" on="1"/>
        <pt x="418" y="-34" on="0"/>
        <pt x="396" y="-16" on="1"/>
        <pt x="385" y="-7" on="0"/>
        <pt x="371" y="97" on="0"/>
        <pt x="371" y="188" on="0"/>
        <pt x="374" y="241" on="1"/>
        <pt x="285" y="165" on="0"/>
        <pt x="205" y="162" on="1"/>
        <pt x="204" y="148" on="0"/>
        <pt x="202" y="83" on="0"/>
        <pt x="198" y="52" on="0"/>
        <pt x="192" y="32" on="1"/>
        <pt x="182" y="-5" on="0"/>
        <pt x="144" y="-5" on="1"/>
        <pt x="121" y="-5" on="0"/>
        <pt x="121" y="74" on="0"/>
        <pt x="133" y="172" on="1"/>
        <pt x="88" y="191" on="0"/>
        <pt x="88" y="239" on="1"/>
        <pt x="88" y="274" on="0"/>
        <pt x="124" y="323" on="0"/>
        <pt x="150" y="323" on="1"/>
        <pt x="159" y="415" on="0"/>
        <pt x="159" y="465" on="1"/>
        <pt x="159" y="555" on="0"/>
        <pt x="131" y="555" on="1"/>
        <pt x="67" y="555" on="0"/>
        <pt x="67" y="490" on="1"/>
      </contour>
      <contour>
        <pt x="528" y="565" on="1"/>
        <pt x="528" y="580" on="0"/>
        <pt x="519" y="605" on="0"/>
        <pt x="512" y="605" on="1"/>
        <pt x="484" y="605" on="0"/>
        <pt x="461" y="388" on="1"/>
        <pt x="528" y="490" on="0"/>
      </contour>
      <contour>
        <pt x="147" y="291" on="1"/>
        <pt x="133" y="281" on="0"/>
        <pt x="133" y="247" on="0"/>
        <pt x="141" y="236" on="1"/>
      </contour>
    </TTGlyph>
    <TTGlyph name="I" xMin="27" yMin="-20" xMax="439" yMax="616">
      <contour>
        <pt x="371" y="502" on="1"/>
        <pt x="375" y="316" on="1"/>
        <pt x="375" y="-20" on="0"/>
        <pt x="145" y="-20" on="1"/>
        <pt x="100" y="-20" on="0"/>
        <pt x="27" y="22" on="0"/>
        <pt x="27" y="66" on="1"/>
        <pt x="27" y="93" on="0"/>
        <pt x="55" y="128" on="0"/>
        <pt x="102" y="128" on="0"/>
        <pt x="102" y="117" on="1"/>
        <pt x="102" y="112" on="0"/>
        <pt x="90" y="83" on="0"/>
        <pt x="90" y="54" on="0"/>
        <pt x="124" y="21" on="0"/>
        <pt x="192" y="21" on="0"/>
        <pt x="242" y="49" on="0"/>
        <pt x="272" y="104" on="0"/>
        <pt x="291" y="162" on="0"/>
        <pt x="295" y="206" on="1"/>
        <pt x="301" y="271" on="0"/>
        <pt x="301" y="436" on="0"/>
        <pt x="303" y="490" on="1"/>
        <pt x="175" y="468" on="0"/>
        <pt x="175" y="380" on="1"/>
        <pt x="175" y="355" on="0"/>
        <pt x="154" y="327" on="0"/>
        <pt x="138" y="327" on="1"/>
        <pt x="108" y="327" on="0"/>
        <pt x="108" y="361" on="1"/>
        <pt x="108" y="422" on="0"/>
        <pt x="215" y="504" on="0"/>
        <pt x="307" y="524" on="1"/>
        <pt x="314" y="565" on="0"/>
        <pt x="368" y="616" on="0"/>
        <pt x="412" y="616" on="0"/>
        <pt x="439" y="591" on="0"/>
        <pt x="439" y="570" on="1"/>
        <pt x="439" y="521" on="0"/>
      </contour>
      <contour>
        <pt x="398" y="582" on="1"/>
        <pt x="376" y="582" on="0"/>
        <pt x="372" y="537" on="1"/>
        <pt x="408" y="548" on="0"/>
        <pt x="408" y="566" on="1"/>
        <pt x="408" y="582" on="0"/>
      </contour>
    </TTGlyph>
    <TTGlyph name="IJ" xMin="0" yMin="-320" xMax="609" yMax="616">
      <contour>
        <pt x="164" y="173" on="1"/>
        <pt x="164" y="202" on="0"/>
        <pt x="194" y="466" on="0"/>
        <pt x="195" y="490" on="1"/>
        <pt x="67" y="468" on="0"/>
        <pt x="67" y="380" on="1"/>
        <pt x="67" y="355" on="0"/>
        <pt x="46" y="327" on="0"/>
        <pt x="30" y="327" on="1"/>
        <pt x="0" y="327" on="0"/>
        <pt x="0" y="361" on="1"/>
        <pt x="0" y="422" on="0"/>
        <pt x="107" y="504" on="0"/>
        <pt x="199" y="524" on="1"/>
        <pt x="206" y="565" on="0"/>
        <pt x="260" y="616" on="0"/>
        <pt x="304" y="616" on="0"/>
        <pt x="331" y="591" on="0"/>
        <pt x="331" y="570" on="1"/>
        <pt x="331" y="520" on="0"/>
        <pt x="258" y="500" on="1"/>
        <pt x="233" y="293" on="0"/>
        <pt x="233" y="135" on="0"/>
        <pt x="269" y="50" on="0"/>
        <pt x="295" y="50" on="1"/>
        <pt x="333" y="50" on="0"/>
        <pt x="434" y="192" on="0"/>
        <pt x="460" y="266" on="1"/>
        <pt x="480" y="484" on="0"/>
        <pt x="491" y="547" on="1"/>
        <pt x="493" y="556" on="0"/>
        <pt x="551" y="600" on="0"/>
        <pt x="582" y="600" on="0"/>
        <pt x="582" y="553" on="1"/>
        <pt x="582" y="498" on="0"/>
        <pt x="572" y="458" on="1"/>
        <pt x="545" y="355" on="0"/>
        <pt x="538" y="327" on="1"/>
        <pt x="526" y="247" on="0"/>
        <pt x="521" y="100" on="1"/>
        <pt x="565" y="123" on="0"/>
        <pt x="597" y="123" on="1"/>
        <pt x="609" y="123" on="0"/>
        <pt x="609" y="106" on="0"/>
        <pt x="597" y="101" on="1"/>
        <pt x="556" y="88" on="0"/>
        <pt x="519" y="64" on="1"/>
        <pt x="519" y="-159" on="0"/>
        <pt x="458" y="-320" on="0"/>
        <pt x="358" y="-320" on="1"/>
        <pt x="248" y="-320" on="0"/>
        <pt x="248" y="-227" on="1"/>
        <pt x="248" y="-158" on="0"/>
        <pt x="355" y="-13" on="0"/>
        <pt x="445" y="51" on="1"/>
        <pt x="448" y="114" on="0"/>
        <pt x="453" y="186" on="1"/>
        <pt x="413" y="107" on="0"/>
        <pt x="314" y="-5" on="0"/>
        <pt x="224" y="-5" on="0"/>
        <pt x="164" y="86" on="0"/>
      </contour>
      <contour>
        <pt x="385" y="-33" on="0"/>
        <pt x="316" y="-150" on="0"/>
        <pt x="316" y="-239" on="0"/>
        <pt x="350" y="-284" on="0"/>
        <pt x="372" y="-284" on="1"/>
        <pt x="403" y="-284" on="0"/>
        <pt x="436" y="-151" on="0"/>
        <pt x="442" y="9" on="1"/>
      </contour>
      <contour>
        <pt x="290" y="582" on="1"/>
        <pt x="268" y="582" on="0"/>
        <pt x="264" y="537" on="1"/>
        <pt x="300" y="548" on="0"/>
        <pt x="300" y="566" on="1"/>
        <pt x="300" y="582" on="0"/>
      </contour>
    </TTGlyph>
    <TTGlyph name="Iacute" xMin="27" yMin="-20" xMax="439" yMax="770">
      <contour>
        <pt x="371" y="502" on="1"/>
        <pt x="375" y="316" on="1"/>
        <pt x="375" y="-20" on="0"/>
        <pt x="145" y="-20" on="1"/>
        <pt x="100" y="-20" on="0"/>
        <pt x="27" y="22" on="0"/>
        <pt x="27" y="66" on="1"/>
        <pt x="27" y="93" on="0"/>
        <pt x="55" y="128" on="0"/>
        <pt x="102" y="128" on="0"/>
        <pt x="102" y="117" on="1"/>
        <pt x="102" y="112" on="0"/>
        <pt x="90" y="83" on="0"/>
        <pt x="90" y="54" on="0"/>
        <pt x="124" y="21" on="0"/>
        <pt x="192" y="21" on="0"/>
        <pt x="242" y="49" on="0"/>
        <pt x="272" y="104" on="0"/>
        <pt x="291" y="162" on="0"/>
        <pt x="295" y="206" on="1"/>
        <pt x="301" y="271" on="0"/>
        <pt x="301" y="436" on="0"/>
        <pt x="303" y="490" on="1"/>
        <pt x="175" y="468" on="0"/>
        <pt x="175" y="380" on="1"/>
        <pt x="175" y="355" on="0"/>
        <pt x="154" y="327" on="0"/>
        <pt x="138" y="327" on="1"/>
        <pt x="108" y="327" on="0"/>
        <pt x="108" y="361" on="1"/>
        <pt x="108" y="422" on="0"/>
        <pt x="215" y="504" on="0"/>
        <pt x="307" y="524" on="1"/>
        <pt x="314" y="565" on="0"/>
        <pt x="368" y="616" on="0"/>
        <pt x="412" y="616" on="0"/>
        <pt x="439" y="591" on="0"/>
        <pt x="439" y="570" on="1"/>
        <pt x="439" y="521" on="0"/>
      </contour>
      <contour>
        <pt x="398" y="582" on="1"/>
        <pt x="376" y="582" on="0"/>
        <pt x="372" y="537" on="1"/>
        <pt x="408" y="548" on="0"/>
        <pt x="408" y="566" on="1"/>
        <pt x="408" y="582" on="0"/>
      </contour>
      <contour>
        <pt x="307" y="719" on="1"/>
        <pt x="307" y="727" on="0"/>
        <pt x="297" y="742" on="0"/>
        <pt x="297" y="752" on="0"/>
        <pt x="332" y="770" on="0"/>
        <pt x="354" y="770" on="0"/>
        <pt x="375" y="746" on="0"/>
        <pt x="375" y="724" on="1"/>
        <pt x="375" y="690" on="0"/>
        <pt x="332" y="658" on="1"/>
        <pt x="312" y="643" on="0"/>
        <pt x="259" y="621" on="0"/>
        <pt x="234" y="621" on="0"/>
        <pt x="234" y="630" on="1"/>
        <pt x="234" y="635" on="0"/>
        <pt x="248" y="643" on="1"/>
        <pt x="306" y="671" on="0"/>
      </contour>
    </TTGlyph>
    <TTGlyph name="Icircumflex" xMin="27" yMin="-20" xMax="439" yMax="770">
      <contour>
        <pt x="371" y="502" on="1"/>
        <pt x="375" y="316" on="1"/>
        <pt x="375" y="-20" on="0"/>
        <pt x="145" y="-20" on="1"/>
        <pt x="100" y="-20" on="0"/>
        <pt x="27" y="22" on="0"/>
        <pt x="27" y="66" on="1"/>
        <pt x="27" y="93" on="0"/>
        <pt x="55" y="128" on="0"/>
        <pt x="102" y="128" on="0"/>
        <pt x="102" y="117" on="1"/>
        <pt x="102" y="112" on="0"/>
        <pt x="90" y="83" on="0"/>
        <pt x="90" y="54" on="0"/>
        <pt x="124" y="21" on="0"/>
        <pt x="192" y="21" on="0"/>
        <pt x="242" y="49" on="0"/>
        <pt x="272" y="104" on="0"/>
        <pt x="291" y="162" on="0"/>
        <pt x="295" y="206" on="1"/>
        <pt x="301" y="271" on="0"/>
        <pt x="301" y="436" on="0"/>
        <pt x="303" y="490" on="1"/>
        <pt x="175" y="468" on="0"/>
        <pt x="175" y="380" on="1"/>
        <pt x="175" y="355" on="0"/>
        <pt x="154" y="327" on="0"/>
        <pt x="138" y="327" on="1"/>
        <pt x="108" y="327" on="0"/>
        <pt x="108" y="361" on="1"/>
        <pt x="108" y="422" on="0"/>
        <pt x="215" y="504" on="0"/>
        <pt x="307" y="524" on="1"/>
        <pt x="314" y="565" on="0"/>
        <pt x="368" y="616" on="0"/>
        <pt x="412" y="616" on="0"/>
        <pt x="439" y="591" on="0"/>
        <pt x="439" y="570" on="1"/>
        <pt x="439" y="521" on="0"/>
      </contour>
      <contour>
        <pt x="398" y="582" on="1"/>
        <pt x="376" y="582" on="0"/>
        <pt x="372" y="537" on="1"/>
        <pt x="408" y="548" on="0"/>
        <pt x="408" y="566" on="1"/>
        <pt x="408" y="582" on="0"/>
      </contour>
      <contour>
        <pt x="427" y="665" on="0"/>
        <pt x="436" y="659" on="0"/>
        <pt x="436" y="651" on="0"/>
        <pt x="412" y="635" on="0"/>
        <pt x="386" y="635" on="0"/>
        <pt x="328" y="673" on="0"/>
        <pt x="312" y="702" on="1"/>
        <pt x="300" y="676" on="0"/>
        <pt x="235" y="642" on="0"/>
        <pt x="214" y="642" on="0"/>
        <pt x="201" y="653" on="0"/>
        <pt x="201" y="662" on="0"/>
        <pt x="227" y="673" on="1"/>
        <pt x="281" y="698" on="0"/>
        <pt x="289" y="742" on="1"/>
        <pt x="290" y="750" on="0"/>
        <pt x="323" y="770" on="0"/>
        <pt x="341" y="770" on="0"/>
        <pt x="354" y="724" on="0"/>
        <pt x="379" y="692" on="0"/>
        <pt x="413" y="671" on="0"/>
      </contour>
    </TTGlyph>
    <TTGlyph name="Idieresis" xMin="27" yMin="-20" xMax="439" yMax="735">
      <contour>
        <pt x="371" y="502" on="1"/>
        <pt x="375" y="316" on="1"/>
        <pt x="375" y="-20" on="0"/>
        <pt x="145" y="-20" on="1"/>
        <pt x="100" y="-20" on="0"/>
        <pt x="27" y="22" on="0"/>
        <pt x="27" y="66" on="1"/>
        <pt x="27" y="93" on="0"/>
        <pt x="55" y="128" on="0"/>
        <pt x="102" y="128" on="0"/>
        <pt x="102" y="117" on="1"/>
        <pt x="102" y="112" on="0"/>
        <pt x="90" y="83" on="0"/>
        <pt x="90" y="54" on="0"/>
        <pt x="124" y="21" on="0"/>
        <pt x="192" y="21" on="0"/>
        <pt x="242" y="49" on="0"/>
        <pt x="272" y="104" on="0"/>
        <pt x="291" y="162" on="0"/>
        <pt x="295" y="206" on="1"/>
        <pt x="301" y="271" on="0"/>
        <pt x="301" y="436" on="0"/>
        <pt x="303" y="490" on="1"/>
        <pt x="175" y="468" on="0"/>
        <pt x="175" y="380" on="1"/>
        <pt x="175" y="355" on="0"/>
        <pt x="154" y="327" on="0"/>
        <pt x="138" y="327" on="1"/>
        <pt x="108" y="327" on="0"/>
        <pt x="108" y="361" on="1"/>
        <pt x="108" y="422" on="0"/>
        <pt x="215" y="504" on="0"/>
        <pt x="307" y="524" on="1"/>
        <pt x="314" y="565" on="0"/>
        <pt x="368" y="616" on="0"/>
        <pt x="412" y="616" on="0"/>
        <pt x="439" y="591" on="0"/>
        <pt x="439" y="570" on="1"/>
        <pt x="439" y="521" on="0"/>
      </contour>
      <contour>
        <pt x="398" y="582" on="1"/>
        <pt x="376" y="582" on="0"/>
        <pt x="372" y="537" on="1"/>
        <pt x="408" y="548" on="0"/>
        <pt x="408" y="566" on="1"/>
        <pt x="408" y="582" on="0"/>
      </contour>
      <contour>
        <pt x="194" y="653" on="0"/>
        <pt x="167" y="671" on="0"/>
        <pt x="167" y="711" on="0"/>
        <pt x="204" y="735" on="0"/>
        <pt x="236" y="735" on="0"/>
        <pt x="258" y="717" on="0"/>
        <pt x="258" y="704" on="1"/>
        <pt x="258" y="653" on="0"/>
        <pt x="207" y="653" on="1"/>
      </contour>
      <contour>
        <pt x="338" y="653" on="0"/>
        <pt x="311" y="671" on="0"/>
        <pt x="311" y="711" on="0"/>
        <pt x="349" y="735" on="0"/>
        <pt x="381" y="735" on="0"/>
        <pt x="402" y="717" on="0"/>
        <pt x="402" y="704" on="1"/>
        <pt x="402" y="653" on="0"/>
        <pt x="352" y="653" on="1"/>
      </contour>
    </TTGlyph>
    <TTGlyph name="Igrave" xMin="27" yMin="-20" xMax="439" yMax="770">
      <contour>
        <pt x="371" y="502" on="1"/>
        <pt x="375" y="316" on="1"/>
        <pt x="375" y="-20" on="0"/>
        <pt x="145" y="-20" on="1"/>
        <pt x="100" y="-20" on="0"/>
        <pt x="27" y="22" on="0"/>
        <pt x="27" y="66" on="1"/>
        <pt x="27" y="93" on="0"/>
        <pt x="55" y="128" on="0"/>
        <pt x="102" y="128" on="0"/>
        <pt x="102" y="117" on="1"/>
        <pt x="102" y="112" on="0"/>
        <pt x="90" y="83" on="0"/>
        <pt x="90" y="54" on="0"/>
        <pt x="124" y="21" on="0"/>
        <pt x="192" y="21" on="0"/>
        <pt x="242" y="49" on="0"/>
        <pt x="272" y="104" on="0"/>
        <pt x="291" y="162" on="0"/>
        <pt x="295" y="206" on="1"/>
        <pt x="301" y="271" on="0"/>
        <pt x="301" y="436" on="0"/>
        <pt x="303" y="490" on="1"/>
        <pt x="175" y="468" on="0"/>
        <pt x="175" y="380" on="1"/>
        <pt x="175" y="355" on="0"/>
        <pt x="154" y="327" on="0"/>
        <pt x="138" y="327" on="1"/>
        <pt x="108" y="327" on="0"/>
        <pt x="108" y="361" on="1"/>
        <pt x="108" y="422" on="0"/>
        <pt x="215" y="504" on="0"/>
        <pt x="307" y="524" on="1"/>
        <pt x="314" y="565" on="0"/>
        <pt x="368" y="616" on="0"/>
        <pt x="412" y="616" on="0"/>
        <pt x="439" y="591" on="0"/>
        <pt x="439" y="570" on="1"/>
        <pt x="439" y="521" on="0"/>
      </contour>
      <contour>
        <pt x="398" y="582" on="1"/>
        <pt x="376" y="582" on="0"/>
        <pt x="372" y="537" on="1"/>
        <pt x="408" y="548" on="0"/>
        <pt x="408" y="566" on="1"/>
        <pt x="408" y="582" on="0"/>
      </contour>
      <contour>
        <pt x="264" y="747" on="0"/>
        <pt x="279" y="711" on="0"/>
        <pt x="287" y="699" on="0"/>
        <pt x="294" y="690" on="0"/>
        <pt x="300" y="684" on="0"/>
        <pt x="310" y="677" on="0"/>
        <pt x="316" y="673" on="0"/>
        <pt x="329" y="666" on="0"/>
        <pt x="334" y="664" on="0"/>
        <pt x="342" y="660" on="1"/>
        <pt x="352" y="655" on="1"/>
        <pt x="365" y="648" on="0"/>
        <pt x="365" y="638" on="1"/>
        <pt x="365" y="623" on="0"/>
        <pt x="330" y="623" on="0"/>
        <pt x="274" y="642" on="0"/>
        <pt x="253" y="656" on="1"/>
        <pt x="203" y="690" on="0"/>
        <pt x="203" y="728" on="1"/>
        <pt x="203" y="739" on="0"/>
        <pt x="235" y="770" on="0"/>
        <pt x="250" y="770" on="0"/>
      </contour>
    </TTGlyph>
    <TTGlyph name="Itilde" xMin="27" yMin="-20" xMax="439" yMax="745">
      <contour>
        <pt x="371" y="502" on="1"/>
        <pt x="375" y="316" on="1"/>
        <pt x="375" y="-20" on="0"/>
        <pt x="145" y="-20" on="1"/>
        <pt x="100" y="-20" on="0"/>
        <pt x="27" y="22" on="0"/>
        <pt x="27" y="66" on="1"/>
        <pt x="27" y="93" on="0"/>
        <pt x="55" y="128" on="0"/>
        <pt x="102" y="128" on="0"/>
        <pt x="102" y="117" on="1"/>
        <pt x="102" y="112" on="0"/>
        <pt x="90" y="83" on="0"/>
        <pt x="90" y="54" on="0"/>
        <pt x="124" y="21" on="0"/>
        <pt x="192" y="21" on="0"/>
        <pt x="242" y="49" on="0"/>
        <pt x="272" y="104" on="0"/>
        <pt x="291" y="162" on="0"/>
        <pt x="295" y="206" on="1"/>
        <pt x="301" y="271" on="0"/>
        <pt x="301" y="436" on="0"/>
        <pt x="303" y="490" on="1"/>
        <pt x="175" y="468" on="0"/>
        <pt x="175" y="380" on="1"/>
        <pt x="175" y="355" on="0"/>
        <pt x="154" y="327" on="0"/>
        <pt x="138" y="327" on="1"/>
        <pt x="108" y="327" on="0"/>
        <pt x="108" y="361" on="1"/>
        <pt x="108" y="422" on="0"/>
        <pt x="215" y="504" on="0"/>
        <pt x="307" y="524" on="1"/>
        <pt x="314" y="565" on="0"/>
        <pt x="368" y="616" on="0"/>
        <pt x="412" y="616" on="0"/>
        <pt x="439" y="591" on="0"/>
        <pt x="439" y="570" on="1"/>
        <pt x="439" y="521" on="0"/>
      </contour>
      <contour>
        <pt x="398" y="582" on="1"/>
        <pt x="376" y="582" on="0"/>
        <pt x="372" y="537" on="1"/>
        <pt x="408" y="548" on="0"/>
        <pt x="408" y="566" on="1"/>
        <pt x="408" y="582" on="0"/>
      </contour>
      <contour>
        <pt x="253" y="745" on="0"/>
        <pt x="354" y="704" on="0"/>
        <pt x="375" y="704" on="0"/>
        <pt x="397" y="737" on="0"/>
        <pt x="403" y="737" on="1"/>
        <pt x="416" y="737" on="0"/>
        <pt x="416" y="694" on="0"/>
        <pt x="370" y="646" on="0"/>
        <pt x="318" y="646" on="0"/>
        <pt x="246" y="689" on="0"/>
        <pt x="227" y="689" on="1"/>
        <pt x="220" y="689" on="0"/>
        <pt x="207" y="661" on="0"/>
        <pt x="199" y="661" on="1"/>
        <pt x="182" y="661" on="0"/>
        <pt x="182" y="701" on="0"/>
        <pt x="211" y="745" on="0"/>
      </contour>
    </TTGlyph>
    <TTGlyph name="J" xMin="0" yMin="-320" xMax="470" yMax="616">
      <contour>
        <pt x="78" y="361" on="1"/>
        <pt x="78" y="422" on="0"/>
        <pt x="184" y="504" on="0"/>
        <pt x="275" y="524" on="1"/>
        <pt x="281" y="566" on="0"/>
        <pt x="337" y="616" on="0"/>
        <pt x="382" y="616" on="0"/>
        <pt x="409" y="591" on="0"/>
        <pt x="409" y="570" on="1"/>
        <pt x="409" y="521" on="0"/>
        <pt x="340" y="502" on="1"/>
        <pt x="325" y="222" on="0"/>
        <pt x="325" y="215" on="1"/>
        <pt x="355" y="232" on="0"/>
        <pt x="436" y="263" on="0"/>
        <pt x="470" y="263" on="0"/>
        <pt x="470" y="256" on="1"/>
        <pt x="470" y="243" on="0"/>
        <pt x="458" y="239" on="1"/>
        <pt x="393" y="218" on="0"/>
        <pt x="324" y="176" on="1"/>
        <pt x="316" y="-36" on="0"/>
        <pt x="314" y="-78" on="1"/>
        <pt x="307" y="-196" on="0"/>
        <pt x="217" y="-320" on="0"/>
        <pt x="137" y="-320" on="1"/>
        <pt x="74" y="-320" on="0"/>
        <pt x="0" y="-217" on="0"/>
        <pt x="0" y="-155" on="1"/>
        <pt x="0" y="-67" on="0"/>
        <pt x="124" y="90" on="0"/>
        <pt x="251" y="173" on="1"/>
        <pt x="272" y="489" on="1"/>
        <pt x="145" y="467" on="0"/>
        <pt x="145" y="380" on="1"/>
        <pt x="145" y="355" on="0"/>
        <pt x="124" y="327" on="0"/>
        <pt x="108" y="327" on="1"/>
        <pt x="78" y="327" on="0"/>
      </contour>
      <contour>
        <pt x="151" y="-284" on="1"/>
        <pt x="219" y="-284" on="0"/>
        <pt x="231" y="-133" on="1"/>
        <pt x="237" y="-57" on="0"/>
        <pt x="246" y="93" on="0"/>
        <pt x="248" y="125" on="1"/>
        <pt x="207" y="96" on="0"/>
        <pt x="157" y="55" on="0"/>
        <pt x="128" y="24" on="1"/>
        <pt x="73" y="-38" on="0"/>
        <pt x="73" y="-126" on="1"/>
        <pt x="73" y="-211" on="0"/>
        <pt x="102" y="-256" on="1"/>
        <pt x="121" y="-284" on="0"/>
      </contour>
      <contour>
        <pt x="368" y="582" on="1"/>
        <pt x="346" y="582" on="0"/>
        <pt x="342" y="537" on="1"/>
        <pt x="378" y="548" on="0"/>
        <pt x="378" y="566" on="1"/>
        <pt x="378" y="582" on="0"/>
      </contour>
    </TTGlyph>
    <TTGlyph name="Jcircumflex" xMin="0" yMin="-320" xMax="470" yMax="755">
      <contour>
        <pt x="78" y="361" on="1"/>
        <pt x="78" y="422" on="0"/>
        <pt x="184" y="504" on="0"/>
        <pt x="275" y="524" on="1"/>
        <pt x="281" y="566" on="0"/>
        <pt x="337" y="616" on="0"/>
        <pt x="382" y="616" on="0"/>
        <pt x="409" y="591" on="0"/>
        <pt x="409" y="570" on="1"/>
        <pt x="409" y="521" on="0"/>
        <pt x="340" y="502" on="1"/>
        <pt x="325" y="222" on="0"/>
        <pt x="325" y="215" on="1"/>
        <pt x="355" y="232" on="0"/>
        <pt x="436" y="263" on="0"/>
        <pt x="470" y="263" on="0"/>
        <pt x="470" y="256" on="1"/>
        <pt x="470" y="243" on="0"/>
        <pt x="458" y="239" on="1"/>
        <pt x="393" y="218" on="0"/>
        <pt x="324" y="176" on="1"/>
        <pt x="316" y="-36" on="0"/>
        <pt x="314" y="-78" on="1"/>
        <pt x="307" y="-196" on="0"/>
        <pt x="217" y="-320" on="0"/>
        <pt x="137" y="-320" on="1"/>
        <pt x="74" y="-320" on="0"/>
        <pt x="0" y="-217" on="0"/>
        <pt x="0" y="-155" on="1"/>
        <pt x="0" y="-67" on="0"/>
        <pt x="124" y="90" on="0"/>
        <pt x="251" y="173" on="1"/>
        <pt x="272" y="489" on="1"/>
        <pt x="145" y="467" on="0"/>
        <pt x="145" y="380" on="1"/>
        <pt x="145" y="355" on="0"/>
        <pt x="124" y="327" on="0"/>
        <pt x="108" y="327" on="1"/>
        <pt x="78" y="327" on="0"/>
      </contour>
      <contour>
        <pt x="151" y="-284" on="1"/>
        <pt x="219" y="-284" on="0"/>
        <pt x="231" y="-133" on="1"/>
        <pt x="237" y="-57" on="0"/>
        <pt x="246" y="93" on="0"/>
        <pt x="248" y="125" on="1"/>
        <pt x="207" y="96" on="0"/>
        <pt x="157" y="55" on="0"/>
        <pt x="128" y="24" on="1"/>
        <pt x="73" y="-38" on="0"/>
        <pt x="73" y="-126" on="1"/>
        <pt x="73" y="-211" on="0"/>
        <pt x="102" y="-256" on="1"/>
        <pt x="121" y="-284" on="0"/>
      </contour>
      <contour>
        <pt x="368" y="582" on="1"/>
        <pt x="346" y="582" on="0"/>
        <pt x="342" y="537" on="1"/>
        <pt x="378" y="548" on="0"/>
        <pt x="378" y="566" on="1"/>
        <pt x="378" y="582" on="0"/>
      </contour>
      <contour>
        <pt x="433" y="616" on="0"/>
        <pt x="409" y="600" on="0"/>
        <pt x="403" y="600" on="1"/>
        <pt x="351" y="600" on="0"/>
        <pt x="316" y="671" on="1"/>
        <pt x="304" y="645" on="0"/>
        <pt x="242" y="611" on="0"/>
        <pt x="213" y="611" on="0"/>
        <pt x="212" y="620" on="1"/>
        <pt x="212" y="624" on="0"/>
        <pt x="229" y="632" on="0"/>
        <pt x="246" y="643" on="0"/>
        <pt x="268" y="664" on="0"/>
        <pt x="280" y="675" on="0"/>
        <pt x="288" y="696" on="0"/>
        <pt x="289" y="698" on="1"/>
        <pt x="294" y="711" on="0"/>
        <pt x="294" y="726" on="1"/>
        <pt x="295" y="734" on="0"/>
        <pt x="330" y="755" on="0"/>
        <pt x="338" y="755" on="1"/>
        <pt x="350" y="755" on="0"/>
        <pt x="356" y="716" on="0"/>
        <pt x="363" y="690" on="0"/>
        <pt x="376" y="670" on="1"/>
        <pt x="392" y="644" on="0"/>
        <pt x="417" y="633" on="1"/>
        <pt x="433" y="626" on="0"/>
      </contour>
    </TTGlyph>
    <TTGlyph name="K" xMin="0" yMin="-95" xMax="666" yMax="616">
      <contour>
        <pt x="617" y="-33" on="1"/>
        <pt x="657" y="-29" on="1"/>
        <pt x="666" y="-29" on="0"/>
        <pt x="666" y="-37" on="1"/>
        <pt x="664" y="-55" on="0"/>
        <pt x="605" y="-95" on="0"/>
        <pt x="566" y="-95" on="1"/>
        <pt x="524" y="-95" on="0"/>
        <pt x="478" y="-1" on="1"/>
        <pt x="438" y="78" on="0"/>
        <pt x="397" y="184" on="1"/>
        <pt x="368" y="168" on="0"/>
        <pt x="337" y="163" on="1"/>
        <pt x="293" y="-40" on="0"/>
        <pt x="121" y="-40" on="1"/>
        <pt x="76" y="-40" on="0"/>
        <pt x="0" y="2" on="0"/>
        <pt x="0" y="46" on="1"/>
        <pt x="0" y="73" on="0"/>
        <pt x="28" y="108" on="0"/>
        <pt x="75" y="108" on="0"/>
        <pt x="75" y="97" on="1"/>
        <pt x="75" y="92" on="0"/>
        <pt x="63" y="63" on="0"/>
        <pt x="63" y="34" on="0"/>
        <pt x="97" y="1" on="0"/>
        <pt x="165" y="1" on="0"/>
        <pt x="215" y="32" on="0"/>
        <pt x="245" y="92" on="0"/>
        <pt x="264" y="154" on="0"/>
        <pt x="268" y="200" on="1"/>
        <pt x="275" y="266" on="0"/>
        <pt x="275" y="438" on="0"/>
        <pt x="277" y="490" on="1"/>
        <pt x="149" y="468" on="0"/>
        <pt x="149" y="380" on="1"/>
        <pt x="149" y="355" on="0"/>
        <pt x="128" y="327" on="0"/>
        <pt x="112" y="327" on="1"/>
        <pt x="82" y="327" on="0"/>
        <pt x="82" y="361" on="1"/>
        <pt x="82" y="421" on="0"/>
        <pt x="190" y="504" on="0"/>
        <pt x="280" y="524" on="1"/>
        <pt x="287" y="564" on="0"/>
        <pt x="344" y="616" on="0"/>
        <pt x="389" y="616" on="0"/>
        <pt x="416" y="591" on="0"/>
        <pt x="416" y="570" on="1"/>
        <pt x="416" y="521" on="0"/>
        <pt x="348" y="502" on="1"/>
        <pt x="352" y="316" on="1"/>
        <pt x="352" y="258" on="0"/>
        <pt x="345" y="208" on="1"/>
        <pt x="396" y="224" on="0"/>
        <pt x="494" y="374" on="0"/>
        <pt x="529" y="490" on="1"/>
        <pt x="556" y="580" on="0"/>
        <pt x="620" y="580" on="1"/>
        <pt x="647" y="580" on="0"/>
        <pt x="647" y="547" on="1"/>
        <pt x="647" y="515" on="0"/>
        <pt x="607" y="488" on="1"/>
        <pt x="592" y="478" on="0"/>
        <pt x="590" y="474" on="1"/>
        <pt x="512" y="295" on="0"/>
        <pt x="447" y="226" on="1"/>
        <pt x="510" y="97" on="0"/>
        <pt x="589" y="-33" on="0"/>
      </contour>
      <contour>
        <pt x="375" y="582" on="1"/>
        <pt x="354" y="582" on="0"/>
        <pt x="349" y="537" on="1"/>
        <pt x="385" y="548" on="0"/>
        <pt x="385" y="566" on="1"/>
        <pt x="385" y="582" on="0"/>
      </contour>
    </TTGlyph>
    <TTGlyph name="L" xMin="14" yMin="-27" xMax="487" yMax="580">
      <contour>
        <pt x="215" y="463" on="0"/>
        <pt x="318" y="580" on="0"/>
        <pt x="486" y="580" on="0"/>
        <pt x="486" y="522" on="1"/>
        <pt x="486" y="483" on="0"/>
        <pt x="449" y="418" on="0"/>
        <pt x="418" y="396" on="1"/>
        <pt x="357" y="355" on="0"/>
        <pt x="275" y="337" on="1"/>
        <pt x="255" y="165" on="0"/>
        <pt x="216" y="91" on="1"/>
        <pt x="308" y="60" on="0"/>
        <pt x="372" y="43" on="0"/>
        <pt x="443" y="43" on="0"/>
        <pt x="469" y="101" on="0"/>
        <pt x="475" y="101" on="1"/>
        <pt x="487" y="101" on="0"/>
        <pt x="487" y="86" on="1"/>
        <pt x="487" y="39" on="0"/>
        <pt x="417" y="-27" on="0"/>
        <pt x="376" y="-27" on="1"/>
        <pt x="334" y="-27" on="0"/>
        <pt x="266" y="1" on="0"/>
        <pt x="248" y="9" on="0"/>
        <pt x="193" y="35" on="0"/>
        <pt x="182" y="40" on="1"/>
        <pt x="144" y="0" on="0"/>
        <pt x="80" y="0" on="1"/>
        <pt x="54" y="0" on="0"/>
        <pt x="14" y="38" on="0"/>
        <pt x="14" y="64" on="1"/>
        <pt x="14" y="121" on="0"/>
        <pt x="79" y="121" on="1"/>
        <pt x="107" y="121" on="0"/>
        <pt x="157" y="108" on="1"/>
        <pt x="176" y="168" on="0"/>
        <pt x="197" y="326" on="1"/>
        <pt x="186" y="325" on="0"/>
        <pt x="149" y="325" on="0"/>
        <pt x="149" y="331" on="1"/>
        <pt x="149" y="350" on="0"/>
        <pt x="201" y="355" on="1"/>
      </contour>
      <contour>
        <pt x="342" y="380" on="0"/>
        <pt x="425" y="447" on="0"/>
        <pt x="425" y="555" on="0"/>
        <pt x="388" y="555" on="1"/>
        <pt x="307" y="555" on="0"/>
        <pt x="278" y="366" on="1"/>
      </contour>
      <contour>
        <pt x="134" y="61" on="1"/>
        <pt x="76" y="86" on="0"/>
        <pt x="49" y="86" on="0"/>
        <pt x="49" y="58" on="0"/>
        <pt x="74" y="38" on="0"/>
        <pt x="114" y="38" on="0"/>
      </contour>
    </TTGlyph>
    <TTGlyph name="Ldotaccent" xMin="14" yMin="-131" xMax="586" yMax="580">
      <contour>
        <pt x="215" y="463" on="0"/>
        <pt x="318" y="580" on="0"/>
        <pt x="486" y="580" on="0"/>
        <pt x="486" y="522" on="1"/>
        <pt x="486" y="483" on="0"/>
        <pt x="449" y="418" on="0"/>
        <pt x="418" y="396" on="1"/>
        <pt x="357" y="355" on="0"/>
        <pt x="275" y="337" on="1"/>
        <pt x="255" y="165" on="0"/>
        <pt x="216" y="91" on="1"/>
        <pt x="274" y="62" on="0"/>
        <pt x="382" y="-14" on="0"/>
        <pt x="443" y="-49" on="0"/>
        <pt x="510" y="-49" on="0"/>
        <pt x="566" y="-8" on="0"/>
        <pt x="571" y="-8" on="1"/>
        <pt x="586" y="-8" on="0"/>
        <pt x="586" y="-23" on="1"/>
        <pt x="586" y="-69" on="0"/>
        <pt x="517" y="-131" on="0"/>
        <pt x="451" y="-131" on="1"/>
        <pt x="413" y="-131" on="0"/>
        <pt x="338" y="-91" on="0"/>
        <pt x="312" y="-65" on="1"/>
        <pt x="231" y="14" on="0"/>
        <pt x="182" y="40" on="1"/>
        <pt x="144" y="0" on="0"/>
        <pt x="80" y="0" on="1"/>
        <pt x="54" y="0" on="0"/>
        <pt x="14" y="38" on="0"/>
        <pt x="14" y="68" on="1"/>
        <pt x="14" y="127" on="0"/>
        <pt x="87" y="127" on="1"/>
        <pt x="117" y="127" on="0"/>
        <pt x="147" y="116" on="1"/>
        <pt x="158" y="112" on="1"/>
        <pt x="176" y="169" on="0"/>
        <pt x="197" y="326" on="1"/>
        <pt x="186" y="325" on="0"/>
        <pt x="149" y="325" on="0"/>
        <pt x="149" y="331" on="1"/>
        <pt x="149" y="350" on="0"/>
        <pt x="201" y="355" on="1"/>
      </contour>
      <contour>
        <pt x="342" y="380" on="0"/>
        <pt x="425" y="447" on="0"/>
        <pt x="425" y="555" on="0"/>
        <pt x="388" y="555" on="1"/>
        <pt x="307" y="555" on="0"/>
        <pt x="278" y="366" on="1"/>
      </contour>
      <contour>
        <pt x="134" y="61" on="1"/>
        <pt x="76" y="86" on="0"/>
        <pt x="49" y="86" on="0"/>
        <pt x="49" y="58" on="0"/>
        <pt x="74" y="38" on="0"/>
        <pt x="114" y="38" on="0"/>
      </contour>
      <contour>
        <pt x="395" y="193" on="0"/>
        <pt x="367" y="212" on="0"/>
        <pt x="367" y="256" on="0"/>
        <pt x="407" y="281" on="0"/>
        <pt x="441" y="281" on="0"/>
        <pt x="464" y="262" on="0"/>
        <pt x="464" y="248" on="1"/>
        <pt x="464" y="193" on="0"/>
        <pt x="410" y="193" on="1"/>
      </contour>
    </TTGlyph>
    <TTGlyph name="Lslash" xMin="14" yMin="-27" xMax="487" yMax="580">
      <contour>
        <pt x="167" y="209" on="1"/>
        <pt x="129" y="202" on="1"/>
        <pt x="113" y="202" on="0"/>
        <pt x="113" y="232" on="0"/>
        <pt x="147" y="252" on="0"/>
        <pt x="182" y="252" on="0"/>
        <pt x="186" y="251" on="1"/>
        <pt x="197" y="326" on="1"/>
        <pt x="186" y="325" on="0"/>
        <pt x="149" y="325" on="0"/>
        <pt x="149" y="331" on="1"/>
        <pt x="149" y="350" on="0"/>
        <pt x="201" y="355" on="1"/>
        <pt x="215" y="463" on="0"/>
        <pt x="318" y="580" on="0"/>
        <pt x="406" y="580" on="1"/>
        <pt x="448" y="580" on="0"/>
        <pt x="486" y="541" on="0"/>
        <pt x="486" y="514" on="1"/>
        <pt x="486" y="383" on="0"/>
        <pt x="275" y="337" on="1"/>
        <pt x="268" y="285" on="0"/>
        <pt x="260" y="235" on="1"/>
        <pt x="302" y="225" on="0"/>
        <pt x="344" y="225" on="0"/>
        <pt x="369" y="238" on="0"/>
        <pt x="370" y="238" on="1"/>
        <pt x="380" y="238" on="0"/>
        <pt x="380" y="205" on="0"/>
        <pt x="332" y="176" on="0"/>
        <pt x="276" y="176" on="0"/>
        <pt x="249" y="186" on="1"/>
        <pt x="236" y="128" on="0"/>
        <pt x="216" y="91" on="1"/>
        <pt x="308" y="60" on="0"/>
        <pt x="372" y="43" on="0"/>
        <pt x="443" y="43" on="0"/>
        <pt x="469" y="101" on="0"/>
        <pt x="475" y="101" on="1"/>
        <pt x="487" y="101" on="0"/>
        <pt x="487" y="86" on="1"/>
        <pt x="487" y="39" on="0"/>
        <pt x="417" y="-27" on="0"/>
        <pt x="376" y="-27" on="1"/>
        <pt x="334" y="-27" on="0"/>
        <pt x="266" y="1" on="0"/>
        <pt x="248" y="9" on="0"/>
        <pt x="193" y="35" on="0"/>
        <pt x="182" y="40" on="1"/>
        <pt x="144" y="0" on="0"/>
        <pt x="80" y="0" on="1"/>
        <pt x="54" y="0" on="0"/>
        <pt x="14" y="38" on="0"/>
        <pt x="14" y="64" on="1"/>
        <pt x="14" y="121" on="0"/>
        <pt x="79" y="121" on="1"/>
        <pt x="107" y="121" on="0"/>
        <pt x="157" y="108" on="1"/>
        <pt x="169" y="151" on="0"/>
        <pt x="179" y="208" on="1"/>
      </contour>
      <contour>
        <pt x="342" y="380" on="0"/>
        <pt x="425" y="447" on="0"/>
        <pt x="425" y="555" on="0"/>
        <pt x="388" y="555" on="1"/>
        <pt x="307" y="555" on="0"/>
        <pt x="278" y="366" on="1"/>
      </contour>
      <contour>
        <pt x="134" y="61" on="1"/>
        <pt x="76" y="86" on="0"/>
        <pt x="49" y="86" on="0"/>
        <pt x="49" y="58" on="0"/>
        <pt x="74" y="38" on="0"/>
        <pt x="114" y="38" on="0"/>
      </contour>
    </TTGlyph>
    <TTGlyph name="M" xMin="0" yMin="-15" xMax="680" yMax="659">
      <contour>
        <pt x="511" y="46" on="0"/>
        <pt x="547" y="46" on="0"/>
        <pt x="608" y="129" on="0"/>
        <pt x="667" y="260" on="0"/>
        <pt x="680" y="260" on="0"/>
        <pt x="680" y="252" on="1"/>
        <pt x="680" y="224" on="0"/>
        <pt x="646" y="150" on="1"/>
        <pt x="573" y="-5" on="0"/>
        <pt x="515" y="-5" on="1"/>
        <pt x="493" y="-5" on="0"/>
        <pt x="457" y="6" on="0"/>
        <pt x="453" y="11" on="1"/>
        <pt x="443" y="23" on="0"/>
        <pt x="443" y="99" on="1"/>
        <pt x="443" y="279" on="0"/>
        <pt x="455" y="391" on="1"/>
        <pt x="397" y="334" on="0"/>
        <pt x="349" y="261" on="1"/>
        <pt x="370" y="181" on="0"/>
        <pt x="370" y="64" on="0"/>
        <pt x="325" y="0" on="0"/>
        <pt x="291" y="0" on="1"/>
        <pt x="250" y="0" on="0"/>
        <pt x="250" y="79" on="1"/>
        <pt x="250" y="133" on="0"/>
        <pt x="293" y="222" on="1"/>
        <pt x="273" y="292" on="0"/>
        <pt x="235" y="359" on="1"/>
        <pt x="219" y="268" on="0"/>
        <pt x="153" y="78" on="0"/>
        <pt x="83" y="-15" on="0"/>
        <pt x="35" y="-15" on="1"/>
        <pt x="0" y="-15" on="0"/>
        <pt x="0" y="12" on="1"/>
        <pt x="0" y="34" on="0"/>
        <pt x="30" y="52" on="0"/>
        <pt x="71" y="61" on="0"/>
        <pt x="77" y="67" on="1"/>
        <pt x="116" y="108" on="0"/>
        <pt x="185" y="306" on="0"/>
        <pt x="201" y="410" on="1"/>
        <pt x="158" y="466" on="0"/>
        <pt x="158" y="521" on="0"/>
        <pt x="187" y="563" on="0"/>
        <pt x="220" y="563" on="1"/>
        <pt x="230" y="563" on="0"/>
        <pt x="244" y="512" on="0"/>
        <pt x="244" y="484" on="1"/>
        <pt x="305" y="395" on="0"/>
        <pt x="337" y="300" on="1"/>
        <pt x="393" y="392" on="0"/>
        <pt x="465" y="470" on="1"/>
        <pt x="496" y="659" on="0"/>
        <pt x="537" y="659" on="1"/>
        <pt x="551" y="659" on="0"/>
        <pt x="582" y="617" on="0"/>
        <pt x="582" y="595" on="1"/>
        <pt x="582" y="527" on="0"/>
        <pt x="523" y="457" on="1"/>
        <pt x="511" y="372" on="0"/>
      </contour>
      <contour>
        <pt x="303" y="179" on="1"/>
        <pt x="279" y="126" on="0"/>
        <pt x="279" y="43" on="0"/>
        <pt x="299" y="43" on="0"/>
        <pt x="309" y="92" on="0"/>
        <pt x="309" y="146" on="0"/>
      </contour>
    </TTGlyph>
    <TTGlyph name="N" xMin="0" yMin="-15" xMax="580" yMax="600">
      <contour>
        <pt x="208" y="267" on="0"/>
        <pt x="151" y="75" on="0"/>
        <pt x="83" y="-15" on="0"/>
        <pt x="35" y="-15" on="1"/>
        <pt x="0" y="-15" on="0"/>
        <pt x="0" y="12" on="1"/>
        <pt x="0" y="34" on="0"/>
        <pt x="30" y="52" on="0"/>
        <pt x="71" y="61" on="0"/>
        <pt x="77" y="67" on="1"/>
        <pt x="114" y="106" on="0"/>
        <pt x="177" y="307" on="0"/>
        <pt x="191" y="411" on="1"/>
        <pt x="148" y="456" on="0"/>
        <pt x="148" y="512" on="0"/>
        <pt x="180" y="585" on="0"/>
        <pt x="202" y="585" on="1"/>
        <pt x="215" y="585" on="0"/>
        <pt x="235" y="521" on="0"/>
        <pt x="235" y="473" on="1"/>
        <pt x="287" y="407" on="0"/>
        <pt x="316" y="359" on="1"/>
        <pt x="347" y="461" on="0"/>
        <pt x="455" y="600" on="0"/>
        <pt x="525" y="600" on="1"/>
        <pt x="550" y="600" on="0"/>
        <pt x="580" y="564" on="0"/>
        <pt x="580" y="520" on="0"/>
        <pt x="563" y="485" on="0"/>
        <pt x="535" y="485" on="0"/>
        <pt x="535" y="513" on="0"/>
        <pt x="518" y="528" on="0"/>
        <pt x="505" y="528" on="1"/>
        <pt x="464" y="528" on="0"/>
        <pt x="428" y="485" on="1"/>
        <pt x="377" y="424" on="0"/>
        <pt x="343" y="311" on="1"/>
        <pt x="409" y="169" on="0"/>
        <pt x="409" y="81" on="1"/>
        <pt x="409" y="45" on="0"/>
        <pt x="377" y="-10" on="0"/>
        <pt x="346" y="-10" on="1"/>
        <pt x="280" y="-10" on="0"/>
        <pt x="280" y="102" on="1"/>
        <pt x="280" y="181" on="0"/>
        <pt x="292" y="252" on="1"/>
        <pt x="262" y="316" on="0"/>
        <pt x="224" y="369" on="1"/>
      </contour>
      <contour>
        <pt x="316" y="186" on="1"/>
        <pt x="311" y="150" on="0"/>
        <pt x="311" y="74" on="0"/>
        <pt x="321" y="32" on="0"/>
        <pt x="327" y="32" on="1"/>
        <pt x="339" y="32" on="0"/>
        <pt x="339" y="114" on="0"/>
      </contour>
    </TTGlyph>
    <TTGlyph name="Nacute" xMin="0" yMin="-15" xMax="580" yMax="750">
      <contour>
        <pt x="208" y="267" on="0"/>
        <pt x="151" y="75" on="0"/>
        <pt x="83" y="-15" on="0"/>
        <pt x="35" y="-15" on="1"/>
        <pt x="0" y="-15" on="0"/>
        <pt x="0" y="12" on="1"/>
        <pt x="0" y="34" on="0"/>
        <pt x="30" y="52" on="0"/>
        <pt x="71" y="61" on="0"/>
        <pt x="77" y="67" on="1"/>
        <pt x="114" y="106" on="0"/>
        <pt x="177" y="307" on="0"/>
        <pt x="191" y="411" on="1"/>
        <pt x="148" y="456" on="0"/>
        <pt x="148" y="512" on="0"/>
        <pt x="180" y="585" on="0"/>
        <pt x="202" y="585" on="1"/>
        <pt x="215" y="585" on="0"/>
        <pt x="235" y="521" on="0"/>
        <pt x="235" y="473" on="1"/>
        <pt x="287" y="407" on="0"/>
        <pt x="316" y="359" on="1"/>
        <pt x="347" y="461" on="0"/>
        <pt x="455" y="600" on="0"/>
        <pt x="525" y="600" on="1"/>
        <pt x="550" y="600" on="0"/>
        <pt x="580" y="564" on="0"/>
        <pt x="580" y="520" on="0"/>
        <pt x="563" y="485" on="0"/>
        <pt x="535" y="485" on="0"/>
        <pt x="535" y="513" on="0"/>
        <pt x="518" y="528" on="0"/>
        <pt x="505" y="528" on="1"/>
        <pt x="464" y="528" on="0"/>
        <pt x="428" y="485" on="1"/>
        <pt x="377" y="424" on="0"/>
        <pt x="343" y="311" on="1"/>
        <pt x="409" y="169" on="0"/>
        <pt x="409" y="81" on="1"/>
        <pt x="409" y="45" on="0"/>
        <pt x="377" y="-10" on="0"/>
        <pt x="346" y="-10" on="1"/>
        <pt x="280" y="-10" on="0"/>
        <pt x="280" y="102" on="1"/>
        <pt x="280" y="181" on="0"/>
        <pt x="292" y="252" on="1"/>
        <pt x="262" y="316" on="0"/>
        <pt x="224" y="369" on="1"/>
      </contour>
      <contour>
        <pt x="316" y="186" on="1"/>
        <pt x="311" y="150" on="0"/>
        <pt x="311" y="74" on="0"/>
        <pt x="321" y="32" on="0"/>
        <pt x="327" y="32" on="1"/>
        <pt x="339" y="32" on="0"/>
        <pt x="339" y="114" on="0"/>
      </contour>
      <contour>
        <pt x="341" y="699" on="1"/>
        <pt x="341" y="707" on="0"/>
        <pt x="331" y="722" on="0"/>
        <pt x="331" y="732" on="0"/>
        <pt x="366" y="750" on="0"/>
        <pt x="388" y="750" on="0"/>
        <pt x="409" y="726" on="0"/>
        <pt x="409" y="704" on="1"/>
        <pt x="409" y="670" on="0"/>
        <pt x="366" y="638" on="1"/>
        <pt x="346" y="623" on="0"/>
        <pt x="293" y="601" on="0"/>
        <pt x="268" y="601" on="0"/>
        <pt x="268" y="610" on="1"/>
        <pt x="268" y="615" on="0"/>
        <pt x="282" y="623" on="1"/>
        <pt x="340" y="651" on="0"/>
      </contour>
    </TTGlyph>
    <TTGlyph name="Ntilde" xMin="0" yMin="-15" xMax="580" yMax="699">
      <contour>
        <pt x="208" y="267" on="0"/>
        <pt x="151" y="75" on="0"/>
        <pt x="83" y="-15" on="0"/>
        <pt x="35" y="-15" on="1"/>
        <pt x="0" y="-15" on="0"/>
        <pt x="0" y="12" on="1"/>
        <pt x="0" y="34" on="0"/>
        <pt x="30" y="52" on="0"/>
        <pt x="71" y="61" on="0"/>
        <pt x="77" y="67" on="1"/>
        <pt x="114" y="106" on="0"/>
        <pt x="177" y="307" on="0"/>
        <pt x="191" y="411" on="1"/>
        <pt x="148" y="456" on="0"/>
        <pt x="148" y="512" on="0"/>
        <pt x="180" y="585" on="0"/>
        <pt x="202" y="585" on="1"/>
        <pt x="215" y="585" on="0"/>
        <pt x="235" y="521" on="0"/>
        <pt x="235" y="473" on="1"/>
        <pt x="287" y="407" on="0"/>
        <pt x="316" y="359" on="1"/>
        <pt x="347" y="461" on="0"/>
        <pt x="455" y="600" on="0"/>
        <pt x="525" y="600" on="1"/>
        <pt x="550" y="600" on="0"/>
        <pt x="580" y="564" on="0"/>
        <pt x="580" y="520" on="0"/>
        <pt x="563" y="485" on="0"/>
        <pt x="535" y="485" on="0"/>
        <pt x="535" y="513" on="0"/>
        <pt x="518" y="528" on="0"/>
        <pt x="505" y="528" on="1"/>
        <pt x="464" y="528" on="0"/>
        <pt x="428" y="485" on="1"/>
        <pt x="377" y="424" on="0"/>
        <pt x="343" y="311" on="1"/>
        <pt x="409" y="169" on="0"/>
        <pt x="409" y="81" on="1"/>
        <pt x="409" y="45" on="0"/>
        <pt x="377" y="-10" on="0"/>
        <pt x="346" y="-10" on="1"/>
        <pt x="280" y="-10" on="0"/>
        <pt x="280" y="102" on="1"/>
        <pt x="280" y="181" on="0"/>
        <pt x="292" y="252" on="1"/>
        <pt x="262" y="316" on="0"/>
        <pt x="224" y="369" on="1"/>
      </contour>
      <contour>
        <pt x="316" y="186" on="1"/>
        <pt x="311" y="150" on="0"/>
        <pt x="311" y="74" on="0"/>
        <pt x="321" y="32" on="0"/>
        <pt x="327" y="32" on="1"/>
        <pt x="339" y="32" on="0"/>
        <pt x="339" y="114" on="0"/>
      </contour>
      <contour>
        <pt x="273" y="699" on="0"/>
        <pt x="374" y="658" on="0"/>
        <pt x="395" y="658" on="0"/>
        <pt x="417" y="691" on="0"/>
        <pt x="423" y="691" on="1"/>
        <pt x="436" y="691" on="0"/>
        <pt x="436" y="648" on="0"/>
        <pt x="390" y="600" on="0"/>
        <pt x="338" y="600" on="0"/>
        <pt x="266" y="643" on="0"/>
        <pt x="247" y="643" on="1"/>
        <pt x="240" y="643" on="0"/>
        <pt x="227" y="615" on="0"/>
        <pt x="219" y="615" on="1"/>
        <pt x="202" y="615" on="0"/>
        <pt x="202" y="655" on="0"/>
        <pt x="231" y="699" on="0"/>
      </contour>
    </TTGlyph>
    <TTGlyph name="O" xMin="21" yMin="-10" xMax="644" yMax="610">
      <contour>
        <pt x="21" y="223" on="1"/>
        <pt x="21" y="290" on="0"/>
        <pt x="72" y="421" on="0"/>
        <pt x="120" y="464" on="1"/>
        <pt x="132" y="529" on="0"/>
        <pt x="233" y="610" on="0"/>
        <pt x="421" y="610" on="0"/>
        <pt x="534" y="463" on="0"/>
        <pt x="534" y="345" on="1"/>
        <pt x="534" y="268" on="0"/>
        <pt x="511" y="199" on="1"/>
        <pt x="557" y="215" on="0"/>
        <pt x="632" y="264" on="0"/>
        <pt x="633" y="264" on="1"/>
        <pt x="644" y="264" on="0"/>
        <pt x="644" y="251" on="1"/>
        <pt x="644" y="240" on="0"/>
        <pt x="548" y="177" on="0"/>
        <pt x="497" y="164" on="1"/>
        <pt x="460" y="83" on="0"/>
        <pt x="324" y="-10" on="0"/>
        <pt x="131" y="-10" on="0"/>
        <pt x="21" y="119" on="0"/>
      </contour>
      <contour>
        <pt x="443" y="187" on="1"/>
        <pt x="456" y="232" on="0"/>
        <pt x="456" y="287" on="1"/>
        <pt x="456" y="405" on="0"/>
        <pt x="367" y="569" on="0"/>
        <pt x="285" y="569" on="1"/>
        <pt x="250" y="569" on="0"/>
        <pt x="181" y="530" on="0"/>
        <pt x="166" y="497" on="1"/>
        <pt x="218" y="526" on="0"/>
        <pt x="325" y="526" on="0"/>
        <pt x="325" y="511" on="1"/>
        <pt x="325" y="502" on="0"/>
        <pt x="311" y="492" on="0"/>
        <pt x="304" y="492" on="1"/>
        <pt x="218" y="492" on="0"/>
        <pt x="158" y="434" on="1"/>
        <pt x="166" y="332" on="0"/>
        <pt x="329" y="187" on="0"/>
      </contour>
      <contour>
        <pt x="265" y="41" on="1"/>
        <pt x="385" y="41" on="0"/>
        <pt x="432" y="154" on="1"/>
        <pt x="312" y="154" on="0"/>
        <pt x="135" y="280" on="0"/>
        <pt x="119" y="382" on="1"/>
        <pt x="91" y="329" on="0"/>
        <pt x="91" y="263" on="1"/>
        <pt x="91" y="172" on="0"/>
        <pt x="192" y="41" on="0"/>
      </contour>
    </TTGlyph>
    <TTGlyph name="OE" xMin="21" yMin="-15" xMax="947" yMax="631">
      <contour>
        <pt x="688" y="26" on="1"/>
        <pt x="821" y="26" on="0"/>
        <pt x="904" y="200" on="1"/>
        <pt x="932" y="257" on="0"/>
        <pt x="947" y="257" on="0"/>
        <pt x="947" y="249" on="1"/>
        <pt x="947" y="209" on="0"/>
        <pt x="848" y="47" on="0"/>
        <pt x="733" y="-15" on="0"/>
        <pt x="576" y="-15" on="0"/>
        <pt x="483" y="60" on="0"/>
        <pt x="472" y="119" on="1"/>
        <pt x="389" y="-10" on="0"/>
        <pt x="231" y="-10" on="1"/>
        <pt x="131" y="-10" on="0"/>
        <pt x="21" y="119" on="0"/>
        <pt x="21" y="223" on="1"/>
        <pt x="21" y="290" on="0"/>
        <pt x="73" y="416" on="0"/>
        <pt x="121" y="458" on="1"/>
        <pt x="121" y="520" on="0"/>
        <pt x="206" y="600" on="0"/>
        <pt x="377" y="600" on="0"/>
        <pt x="502" y="505" on="0"/>
        <pt x="524" y="424" on="1"/>
        <pt x="526" y="517" on="0"/>
        <pt x="663" y="631" on="0"/>
        <pt x="747" y="631" on="1"/>
        <pt x="816" y="631" on="0"/>
        <pt x="816" y="569" on="1"/>
        <pt x="816" y="520" on="0"/>
        <pt x="701" y="419" on="0"/>
        <pt x="609" y="388" on="1"/>
        <pt x="613" y="371" on="0"/>
        <pt x="623" y="355" on="1"/>
        <pt x="667" y="373" on="0"/>
        <pt x="738" y="373" on="0"/>
        <pt x="783" y="348" on="0"/>
        <pt x="783" y="299" on="0"/>
        <pt x="729" y="272" on="0"/>
        <pt x="704" y="272" on="1"/>
        <pt x="646" y="272" on="0"/>
        <pt x="600" y="304" on="1"/>
        <pt x="549" y="246" on="0"/>
        <pt x="549" y="124" on="0"/>
        <pt x="625" y="26" on="0"/>
      </contour>
      <contour>
        <pt x="456" y="287" on="1"/>
        <pt x="456" y="317" on="0"/>
        <pt x="454" y="334" on="1"/>
        <pt x="367" y="311" on="0"/>
        <pt x="243" y="311" on="0"/>
        <pt x="154" y="358" on="0"/>
        <pt x="134" y="403" on="1"/>
        <pt x="91" y="346" on="0"/>
        <pt x="91" y="172" on="0"/>
        <pt x="192" y="41" on="0"/>
        <pt x="265" y="41" on="1"/>
        <pt x="361" y="41" on="0"/>
        <pt x="456" y="181" on="0"/>
      </contour>
      <contour>
        <pt x="201" y="409" on="0"/>
        <pt x="291" y="363" on="0"/>
        <pt x="400" y="363" on="0"/>
        <pt x="450" y="373" on="1"/>
        <pt x="422" y="562" on="0"/>
        <pt x="279" y="562" on="1"/>
        <pt x="236" y="562" on="0"/>
        <pt x="176" y="523" on="0"/>
        <pt x="175" y="493" on="1"/>
        <pt x="224" y="516" on="0"/>
        <pt x="325" y="516" on="0"/>
        <pt x="325" y="501" on="1"/>
        <pt x="325" y="492" on="0"/>
        <pt x="311" y="482" on="0"/>
        <pt x="304" y="482" on="1"/>
        <pt x="237" y="482" on="0"/>
        <pt x="184" y="448" on="1"/>
      </contour>
      <contour>
        <pt x="603" y="421" on="1"/>
        <pt x="683" y="451" on="0"/>
        <pt x="763" y="523" on="0"/>
        <pt x="763" y="599" on="0"/>
        <pt x="733" y="599" on="1"/>
        <pt x="677" y="599" on="0"/>
        <pt x="603" y="495" on="0"/>
      </contour>
      <contour>
        <pt x="734" y="327" on="0"/>
        <pt x="702" y="344" on="0"/>
        <pt x="662" y="344" on="0"/>
        <pt x="640" y="334" on="1"/>
        <pt x="671" y="303" on="0"/>
        <pt x="715" y="303" on="1"/>
        <pt x="724" y="303" on="0"/>
        <pt x="734" y="312" on="0"/>
        <pt x="734" y="315" on="1"/>
      </contour>
      <contour>
        <pt x="540" y="358" on="1"/>
        <pt x="534" y="356" on="1"/>
        <pt x="534" y="318" on="0"/>
        <pt x="531" y="291" on="1"/>
        <pt x="548" y="309" on="0"/>
        <pt x="570" y="325" on="1"/>
        <pt x="550" y="342" on="0"/>
      </contour>
    </TTGlyph>
    <TTGlyph name="Oacute" xMin="21" yMin="-10" xMax="644" yMax="789">
      <contour>
        <pt x="21" y="223" on="1"/>
        <pt x="21" y="290" on="0"/>
        <pt x="72" y="421" on="0"/>
        <pt x="120" y="464" on="1"/>
        <pt x="132" y="529" on="0"/>
        <pt x="233" y="610" on="0"/>
        <pt x="421" y="610" on="0"/>
        <pt x="534" y="463" on="0"/>
        <pt x="534" y="345" on="1"/>
        <pt x="534" y="268" on="0"/>
        <pt x="511" y="199" on="1"/>
        <pt x="557" y="215" on="0"/>
        <pt x="632" y="264" on="0"/>
        <pt x="633" y="264" on="1"/>
        <pt x="644" y="264" on="0"/>
        <pt x="644" y="251" on="1"/>
        <pt x="644" y="240" on="0"/>
        <pt x="548" y="177" on="0"/>
        <pt x="497" y="164" on="1"/>
        <pt x="460" y="83" on="0"/>
        <pt x="324" y="-10" on="0"/>
        <pt x="131" y="-10" on="0"/>
        <pt x="21" y="119" on="0"/>
      </contour>
      <contour>
        <pt x="443" y="187" on="1"/>
        <pt x="456" y="232" on="0"/>
        <pt x="456" y="287" on="1"/>
        <pt x="456" y="405" on="0"/>
        <pt x="367" y="569" on="0"/>
        <pt x="285" y="569" on="1"/>
        <pt x="250" y="569" on="0"/>
        <pt x="181" y="530" on="0"/>
        <pt x="166" y="497" on="1"/>
        <pt x="218" y="526" on="0"/>
        <pt x="325" y="526" on="0"/>
        <pt x="325" y="511" on="1"/>
        <pt x="325" y="502" on="0"/>
        <pt x="311" y="492" on="0"/>
        <pt x="304" y="492" on="1"/>
        <pt x="218" y="492" on="0"/>
        <pt x="158" y="434" on="1"/>
        <pt x="166" y="332" on="0"/>
        <pt x="329" y="187" on="0"/>
      </contour>
      <contour>
        <pt x="265" y="41" on="1"/>
        <pt x="385" y="41" on="0"/>
        <pt x="432" y="154" on="1"/>
        <pt x="312" y="154" on="0"/>
        <pt x="135" y="280" on="0"/>
        <pt x="119" y="382" on="1"/>
        <pt x="91" y="329" on="0"/>
        <pt x="91" y="263" on="1"/>
        <pt x="91" y="172" on="0"/>
        <pt x="192" y="41" on="0"/>
      </contour>
      <contour>
        <pt x="331" y="738" on="1"/>
        <pt x="331" y="746" on="0"/>
        <pt x="321" y="761" on="0"/>
        <pt x="321" y="771" on="0"/>
        <pt x="356" y="789" on="0"/>
        <pt x="378" y="789" on="0"/>
        <pt x="399" y="766" on="0"/>
        <pt x="399" y="743" on="1"/>
        <pt x="399" y="709" on="0"/>
        <pt x="356" y="677" on="1"/>
        <pt x="336" y="662" on="0"/>
        <pt x="283" y="640" on="0"/>
        <pt x="258" y="640" on="0"/>
        <pt x="258" y="649" on="1"/>
        <pt x="258" y="654" on="0"/>
        <pt x="272" y="662" on="1"/>
        <pt x="330" y="690" on="0"/>
      </contour>
    </TTGlyph>
    <TTGlyph name="Ocircumflex" xMin="21" yMin="-10" xMax="644" yMax="770">
      <contour>
        <pt x="441" y="631" on="0"/>
        <pt x="417" y="615" on="0"/>
        <pt x="411" y="615" on="1"/>
        <pt x="359" y="615" on="0"/>
        <pt x="324" y="686" on="1"/>
        <pt x="312" y="660" on="0"/>
        <pt x="250" y="626" on="0"/>
        <pt x="221" y="626" on="0"/>
        <pt x="220" y="635" on="1"/>
        <pt x="220" y="639" on="0"/>
        <pt x="237" y="647" on="0"/>
        <pt x="254" y="658" on="0"/>
        <pt x="276" y="679" on="0"/>
        <pt x="288" y="690" on="0"/>
        <pt x="296" y="711" on="0"/>
        <pt x="297" y="714" on="1"/>
        <pt x="302" y="726" on="0"/>
        <pt x="302" y="741" on="1"/>
        <pt x="303" y="749" on="0"/>
        <pt x="338" y="770" on="0"/>
        <pt x="346" y="770" on="1"/>
        <pt x="358" y="770" on="0"/>
        <pt x="364" y="731" on="0"/>
        <pt x="371" y="705" on="0"/>
        <pt x="384" y="685" on="1"/>
        <pt x="400" y="659" on="0"/>
        <pt x="425" y="648" on="1"/>
        <pt x="441" y="641" on="0"/>
      </contour>
      <contour>
        <pt x="21" y="223" on="1"/>
        <pt x="21" y="290" on="0"/>
        <pt x="72" y="421" on="0"/>
        <pt x="120" y="464" on="1"/>
        <pt x="132" y="529" on="0"/>
        <pt x="233" y="610" on="0"/>
        <pt x="421" y="610" on="0"/>
        <pt x="534" y="463" on="0"/>
        <pt x="534" y="345" on="1"/>
        <pt x="534" y="268" on="0"/>
        <pt x="511" y="199" on="1"/>
        <pt x="557" y="215" on="0"/>
        <pt x="632" y="264" on="0"/>
        <pt x="633" y="264" on="1"/>
        <pt x="644" y="264" on="0"/>
        <pt x="644" y="251" on="1"/>
        <pt x="644" y="240" on="0"/>
        <pt x="548" y="177" on="0"/>
        <pt x="497" y="164" on="1"/>
        <pt x="460" y="83" on="0"/>
        <pt x="324" y="-10" on="0"/>
        <pt x="131" y="-10" on="0"/>
        <pt x="21" y="119" on="0"/>
      </contour>
      <contour>
        <pt x="443" y="187" on="1"/>
        <pt x="456" y="232" on="0"/>
        <pt x="456" y="287" on="1"/>
        <pt x="456" y="405" on="0"/>
        <pt x="367" y="569" on="0"/>
        <pt x="285" y="569" on="1"/>
        <pt x="250" y="569" on="0"/>
        <pt x="181" y="530" on="0"/>
        <pt x="166" y="497" on="1"/>
        <pt x="218" y="526" on="0"/>
        <pt x="325" y="526" on="0"/>
        <pt x="325" y="511" on="1"/>
        <pt x="325" y="502" on="0"/>
        <pt x="311" y="492" on="0"/>
        <pt x="304" y="492" on="1"/>
        <pt x="218" y="492" on="0"/>
        <pt x="158" y="434" on="1"/>
        <pt x="166" y="332" on="0"/>
        <pt x="329" y="187" on="0"/>
      </contour>
      <contour>
        <pt x="265" y="41" on="1"/>
        <pt x="385" y="41" on="0"/>
        <pt x="432" y="154" on="1"/>
        <pt x="312" y="154" on="0"/>
        <pt x="135" y="280" on="0"/>
        <pt x="119" y="382" on="1"/>
        <pt x="91" y="329" on="0"/>
        <pt x="91" y="263" on="1"/>
        <pt x="91" y="172" on="0"/>
        <pt x="192" y="41" on="0"/>
      </contour>
    </TTGlyph>
    <TTGlyph name="Odieresis" xMin="21" yMin="-10" xMax="644" yMax="735">
      <contour>
        <pt x="21" y="223" on="1"/>
        <pt x="21" y="290" on="0"/>
        <pt x="72" y="421" on="0"/>
        <pt x="120" y="464" on="1"/>
        <pt x="132" y="529" on="0"/>
        <pt x="233" y="610" on="0"/>
        <pt x="421" y="610" on="0"/>
        <pt x="534" y="463" on="0"/>
        <pt x="534" y="345" on="1"/>
        <pt x="534" y="268" on="0"/>
        <pt x="511" y="199" on="1"/>
        <pt x="557" y="215" on="0"/>
        <pt x="632" y="264" on="0"/>
        <pt x="633" y="264" on="1"/>
        <pt x="644" y="264" on="0"/>
        <pt x="644" y="251" on="1"/>
        <pt x="644" y="240" on="0"/>
        <pt x="548" y="177" on="0"/>
        <pt x="497" y="164" on="1"/>
        <pt x="460" y="83" on="0"/>
        <pt x="324" y="-10" on="0"/>
        <pt x="131" y="-10" on="0"/>
        <pt x="21" y="119" on="0"/>
      </contour>
      <contour>
        <pt x="443" y="187" on="1"/>
        <pt x="456" y="232" on="0"/>
        <pt x="456" y="287" on="1"/>
        <pt x="456" y="405" on="0"/>
        <pt x="367" y="569" on="0"/>
        <pt x="285" y="569" on="1"/>
        <pt x="250" y="569" on="0"/>
        <pt x="181" y="530" on="0"/>
        <pt x="166" y="497" on="1"/>
        <pt x="218" y="526" on="0"/>
        <pt x="325" y="526" on="0"/>
        <pt x="325" y="511" on="1"/>
        <pt x="325" y="502" on="0"/>
        <pt x="311" y="492" on="0"/>
        <pt x="304" y="492" on="1"/>
        <pt x="218" y="492" on="0"/>
        <pt x="158" y="434" on="1"/>
        <pt x="166" y="332" on="0"/>
        <pt x="329" y="187" on="0"/>
      </contour>
      <contour>
        <pt x="265" y="41" on="1"/>
        <pt x="385" y="41" on="0"/>
        <pt x="432" y="154" on="1"/>
        <pt x="312" y="154" on="0"/>
        <pt x="135" y="280" on="0"/>
        <pt x="119" y="382" on="1"/>
        <pt x="91" y="329" on="0"/>
        <pt x="91" y="263" on="1"/>
        <pt x="91" y="172" on="0"/>
        <pt x="192" y="41" on="0"/>
      </contour>
      <contour>
        <pt x="229" y="653" on="0"/>
        <pt x="202" y="671" on="0"/>
        <pt x="202" y="711" on="0"/>
        <pt x="239" y="735" on="0"/>
        <pt x="271" y="735" on="0"/>
        <pt x="293" y="717" on="0"/>
        <pt x="293" y="704" on="1"/>
        <pt x="293" y="653" on="0"/>
        <pt x="242" y="653" on="1"/>
      </contour>
      <contour>
        <pt x="373" y="653" on="0"/>
        <pt x="346" y="671" on="0"/>
        <pt x="346" y="711" on="0"/>
        <pt x="384" y="735" on="0"/>
        <pt x="416" y="735" on="0"/>
        <pt x="437" y="717" on="0"/>
        <pt x="437" y="704" on="1"/>
        <pt x="437" y="653" on="0"/>
        <pt x="387" y="653" on="1"/>
      </contour>
    </TTGlyph>
    <TTGlyph name="Ograve" xMin="21" yMin="-10" xMax="644" yMax="770">
      <contour>
        <pt x="21" y="223" on="1"/>
        <pt x="21" y="290" on="0"/>
        <pt x="72" y="421" on="0"/>
        <pt x="120" y="464" on="1"/>
        <pt x="132" y="529" on="0"/>
        <pt x="233" y="610" on="0"/>
        <pt x="421" y="610" on="0"/>
        <pt x="534" y="463" on="0"/>
        <pt x="534" y="345" on="1"/>
        <pt x="534" y="268" on="0"/>
        <pt x="511" y="199" on="1"/>
        <pt x="557" y="215" on="0"/>
        <pt x="632" y="264" on="0"/>
        <pt x="633" y="264" on="1"/>
        <pt x="644" y="264" on="0"/>
        <pt x="644" y="251" on="1"/>
        <pt x="644" y="240" on="0"/>
        <pt x="548" y="177" on="0"/>
        <pt x="497" y="164" on="1"/>
        <pt x="460" y="83" on="0"/>
        <pt x="324" y="-10" on="0"/>
        <pt x="131" y="-10" on="0"/>
        <pt x="21" y="119" on="0"/>
      </contour>
      <contour>
        <pt x="443" y="187" on="1"/>
        <pt x="456" y="232" on="0"/>
        <pt x="456" y="287" on="1"/>
        <pt x="456" y="405" on="0"/>
        <pt x="367" y="569" on="0"/>
        <pt x="285" y="569" on="1"/>
        <pt x="250" y="569" on="0"/>
        <pt x="181" y="530" on="0"/>
        <pt x="166" y="497" on="1"/>
        <pt x="218" y="526" on="0"/>
        <pt x="325" y="526" on="0"/>
        <pt x="325" y="511" on="1"/>
        <pt x="325" y="502" on="0"/>
        <pt x="311" y="492" on="0"/>
        <pt x="304" y="492" on="1"/>
        <pt x="218" y="492" on="0"/>
        <pt x="158" y="434" on="1"/>
        <pt x="166" y="332" on="0"/>
        <pt x="329" y="187" on="0"/>
      </contour>
      <contour>
        <pt x="265" y="41" on="1"/>
        <pt x="385" y="41" on="0"/>
        <pt x="432" y="154" on="1"/>
        <pt x="312" y="154" on="0"/>
        <pt x="135" y="280" on="0"/>
        <pt x="119" y="382" on="1"/>
        <pt x="91" y="329" on="0"/>
        <pt x="91" y="263" on="1"/>
        <pt x="91" y="172" on="0"/>
        <pt x="192" y="41" on="0"/>
      </contour>
      <contour>
        <pt x="320" y="747" on="0"/>
        <pt x="335" y="711" on="0"/>
        <pt x="343" y="699" on="0"/>
        <pt x="350" y="690" on="0"/>
        <pt x="356" y="684" on="0"/>
        <pt x="366" y="677" on="0"/>
        <pt x="372" y="673" on="0"/>
        <pt x="385" y="666" on="0"/>
        <pt x="390" y="664" on="0"/>
        <pt x="398" y="660" on="1"/>
        <pt x="408" y="655" on="1"/>
        <pt x="421" y="648" on="0"/>
        <pt x="421" y="638" on="1"/>
        <pt x="421" y="623" on="0"/>
        <pt x="386" y="623" on="0"/>
        <pt x="330" y="642" on="0"/>
        <pt x="309" y="656" on="1"/>
        <pt x="259" y="690" on="0"/>
        <pt x="259" y="728" on="1"/>
        <pt x="259" y="739" on="0"/>
        <pt x="291" y="770" on="0"/>
        <pt x="306" y="770" on="0"/>
      </contour>
    </TTGlyph>
    <TTGlyph name="Oslash" xMin="36" yMin="-86" xMax="551" yMax="653">
      <contour>
        <pt x="345" y="592" on="1"/>
        <pt x="358" y="653" on="0"/>
        <pt x="380" y="653" on="1"/>
        <pt x="398" y="653" on="0"/>
        <pt x="398" y="634" on="1"/>
        <pt x="398" y="625" on="0"/>
        <pt x="387" y="588" on="1"/>
        <pt x="464" y="574" on="0"/>
        <pt x="551" y="451" on="0"/>
        <pt x="551" y="261" on="0"/>
        <pt x="484" y="102" on="0"/>
        <pt x="352" y="-3" on="0"/>
        <pt x="264" y="-9" on="1"/>
        <pt x="255" y="-86" on="0"/>
        <pt x="207" y="-86" on="1"/>
        <pt x="193" y="-86" on="0"/>
        <pt x="173" y="-71" on="0"/>
        <pt x="173" y="-37" on="0"/>
        <pt x="198" y="-5" on="1"/>
        <pt x="124" y="10" on="0"/>
        <pt x="36" y="135" on="0"/>
        <pt x="36" y="288" on="0"/>
        <pt x="72" y="418" on="0"/>
        <pt x="144" y="527" on="0"/>
        <pt x="266" y="592" on="0"/>
      </contour>
      <contour>
        <pt x="315" y="546" on="1"/>
        <pt x="208" y="546" on="0"/>
        <pt x="107" y="388" on="0"/>
        <pt x="107" y="258" on="1"/>
        <pt x="107" y="190" on="0"/>
        <pt x="177" y="75" on="0"/>
        <pt x="227" y="52" on="1"/>
        <pt x="255" y="139" on="0"/>
        <pt x="326" y="510" on="0"/>
        <pt x="334" y="544" on="1"/>
        <pt x="322" y="546" on="0"/>
      </contour>
      <contour>
        <pt x="373" y="530" on="1"/>
        <pt x="351" y="438" on="0"/>
        <pt x="285" y="93" on="0"/>
        <pt x="274" y="41" on="1"/>
        <pt x="371" y="41" on="0"/>
        <pt x="472" y="181" on="0"/>
        <pt x="472" y="297" on="1"/>
        <pt x="472" y="378" on="0"/>
        <pt x="418" y="504" on="0"/>
      </contour>
    </TTGlyph>
    <TTGlyph name="Otilde" xMin="21" yMin="-10" xMax="644" yMax="771">
      <contour>
        <pt x="21" y="223" on="1"/>
        <pt x="21" y="290" on="0"/>
        <pt x="72" y="421" on="0"/>
        <pt x="120" y="464" on="1"/>
        <pt x="132" y="529" on="0"/>
        <pt x="233" y="610" on="0"/>
        <pt x="421" y="610" on="0"/>
        <pt x="534" y="463" on="0"/>
        <pt x="534" y="345" on="1"/>
        <pt x="534" y="268" on="0"/>
        <pt x="511" y="199" on="1"/>
        <pt x="557" y="215" on="0"/>
        <pt x="632" y="264" on="0"/>
        <pt x="633" y="264" on="1"/>
        <pt x="644" y="264" on="0"/>
        <pt x="644" y="251" on="1"/>
        <pt x="644" y="240" on="0"/>
        <pt x="548" y="177" on="0"/>
        <pt x="497" y="164" on="1"/>
        <pt x="460" y="83" on="0"/>
        <pt x="324" y="-10" on="0"/>
        <pt x="131" y="-10" on="0"/>
        <pt x="21" y="119" on="0"/>
      </contour>
      <contour>
        <pt x="443" y="187" on="1"/>
        <pt x="456" y="232" on="0"/>
        <pt x="456" y="287" on="1"/>
        <pt x="456" y="405" on="0"/>
        <pt x="367" y="569" on="0"/>
        <pt x="285" y="569" on="1"/>
        <pt x="250" y="569" on="0"/>
        <pt x="181" y="530" on="0"/>
        <pt x="166" y="497" on="1"/>
        <pt x="218" y="526" on="0"/>
        <pt x="325" y="526" on="0"/>
        <pt x="325" y="511" on="1"/>
        <pt x="325" y="502" on="0"/>
        <pt x="311" y="492" on="0"/>
        <pt x="304" y="492" on="1"/>
        <pt x="218" y="492" on="0"/>
        <pt x="158" y="434" on="1"/>
        <pt x="166" y="332" on="0"/>
        <pt x="329" y="187" on="0"/>
      </contour>
      <contour>
        <pt x="265" y="41" on="1"/>
        <pt x="385" y="41" on="0"/>
        <pt x="432" y="154" on="1"/>
        <pt x="312" y="154" on="0"/>
        <pt x="135" y="280" on="0"/>
        <pt x="119" y="382" on="1"/>
        <pt x="91" y="329" on="0"/>
        <pt x="91" y="263" on="1"/>
        <pt x="91" y="172" on="0"/>
        <pt x="192" y="41" on="0"/>
      </contour>
      <contour>
        <pt x="274" y="771" on="0"/>
        <pt x="375" y="730" on="0"/>
        <pt x="396" y="730" on="0"/>
        <pt x="418" y="763" on="0"/>
        <pt x="424" y="763" on="1"/>
        <pt x="437" y="763" on="0"/>
        <pt x="437" y="720" on="0"/>
        <pt x="391" y="672" on="0"/>
        <pt x="339" y="672" on="0"/>
        <pt x="267" y="715" on="0"/>
        <pt x="248" y="715" on="1"/>
        <pt x="241" y="715" on="0"/>
        <pt x="228" y="687" on="0"/>
        <pt x="220" y="687" on="1"/>
        <pt x="203" y="687" on="0"/>
        <pt x="203" y="727" on="0"/>
        <pt x="232" y="771" on="0"/>
      </contour>
    </TTGlyph>
    <TTGlyph name="P" xMin="16" yMin="-27" xMax="539" yMax="635">
      <contour>
        <pt x="291" y="579" on="1"/>
        <pt x="297" y="580" on="0"/>
        <pt x="350" y="580" on="0"/>
        <pt x="425" y="561" on="0"/>
        <pt x="496" y="518" on="0"/>
        <pt x="539" y="435" on="0"/>
        <pt x="539" y="378" on="1"/>
        <pt x="539" y="284" on="0"/>
        <pt x="393" y="168" on="0"/>
        <pt x="273" y="168" on="1"/>
        <pt x="273" y="-27" on="0"/>
        <pt x="204" y="-27" on="1"/>
        <pt x="158" y="-27" on="0"/>
        <pt x="158" y="12" on="1"/>
        <pt x="158" y="24" on="0"/>
        <pt x="182" y="66" on="0"/>
        <pt x="192" y="120" on="0"/>
        <pt x="195" y="180" on="1"/>
        <pt x="154" y="193" on="0"/>
        <pt x="154" y="239" on="0"/>
        <pt x="175" y="239" on="1"/>
        <pt x="186" y="239" on="0"/>
        <pt x="197" y="236" on="1"/>
        <pt x="210" y="503" on="0"/>
        <pt x="215" y="531" on="1"/>
        <pt x="158" y="517" on="0"/>
        <pt x="83" y="453" on="0"/>
        <pt x="83" y="409" on="1"/>
        <pt x="83" y="384" on="0"/>
        <pt x="62" y="356" on="0"/>
        <pt x="46" y="356" on="1"/>
        <pt x="16" y="356" on="0"/>
        <pt x="16" y="390" on="1"/>
        <pt x="16" y="457" on="0"/>
        <pt x="135" y="554" on="0"/>
        <pt x="224" y="571" on="1"/>
        <pt x="243" y="635" on="0"/>
        <pt x="277" y="635" on="1"/>
        <pt x="291" y="635" on="0"/>
      </contour>
      <contour>
        <pt x="464" y="350" on="1"/>
        <pt x="464" y="440" on="0"/>
        <pt x="361" y="535" on="0"/>
        <pt x="288" y="538" on="1"/>
        <pt x="273" y="361" on="0"/>
        <pt x="273" y="205" on="1"/>
        <pt x="287" y="203" on="0"/>
        <pt x="295" y="203" on="1"/>
        <pt x="379" y="203" on="0"/>
        <pt x="464" y="289" on="0"/>
      </contour>
    </TTGlyph>
    <TTGlyph name="Q" xMin="36" yMin="-83" xMax="555" yMax="592">
      <contour>
        <pt x="342" y="592" on="1"/>
        <pt x="439" y="592" on="0"/>
        <pt x="551" y="466" on="0"/>
        <pt x="551" y="244" on="0"/>
        <pt x="456" y="62" on="0"/>
        <pt x="371" y="19" on="1"/>
        <pt x="414" y="-19" on="0"/>
        <pt x="432" y="-19" on="1"/>
        <pt x="485" y="-19" on="0"/>
        <pt x="518" y="30" on="1"/>
        <pt x="535" y="55" on="0"/>
        <pt x="555" y="55" on="0"/>
        <pt x="555" y="45" on="1"/>
        <pt x="555" y="21" on="0"/>
        <pt x="538" y="-5" on="1"/>
        <pt x="488" y="-83" on="0"/>
        <pt x="399" y="-83" on="1"/>
        <pt x="360" y="-83" on="0"/>
        <pt x="293" y="-5" on="1"/>
        <pt x="265" y="-10" on="0"/>
        <pt x="242" y="-10" on="1"/>
        <pt x="151" y="-10" on="0"/>
        <pt x="36" y="122" on="0"/>
        <pt x="36" y="217" on="1"/>
        <pt x="36" y="363" on="0"/>
        <pt x="108" y="472" on="1"/>
        <pt x="143" y="527" on="0"/>
        <pt x="264" y="592" on="0"/>
      </contour>
      <contour>
        <pt x="315" y="546" on="1"/>
        <pt x="208" y="546" on="0"/>
        <pt x="107" y="388" on="0"/>
        <pt x="107" y="258" on="1"/>
        <pt x="107" y="204" on="0"/>
        <pt x="151" y="110" on="0"/>
        <pt x="186" y="79" on="1"/>
        <pt x="215" y="108" on="0"/>
        <pt x="277" y="108" on="0"/>
        <pt x="339" y="50" on="1"/>
        <pt x="404" y="71" on="0"/>
        <pt x="472" y="202" on="0"/>
        <pt x="472" y="404" on="0"/>
        <pt x="384" y="546" on="0"/>
      </contour>
    </TTGlyph>
    <TTGlyph name="R" xMin="0" yMin="-118" xMax="600" yMax="635">
      <contour>
        <pt x="551" y="-43" on="1"/>
        <pt x="584" y="-35" on="1"/>
        <pt x="600" y="-35" on="0"/>
        <pt x="600" y="-51" on="1"/>
        <pt x="599" y="-77" on="0"/>
        <pt x="548" y="-118" on="0"/>
        <pt x="484" y="-118" on="0"/>
        <pt x="465" y="-87" on="1"/>
        <pt x="438" y="-42" on="0"/>
        <pt x="414" y="74" on="1"/>
        <pt x="403" y="130" on="0"/>
        <pt x="388" y="166" on="1"/>
        <pt x="361" y="157" on="0"/>
        <pt x="301" y="157" on="0"/>
        <pt x="256" y="182" on="0"/>
        <pt x="256" y="200" on="1"/>
        <pt x="258" y="246" on="0"/>
        <pt x="330" y="246" on="1"/>
        <pt x="365" y="246" on="0"/>
        <pt x="405" y="215" on="1"/>
        <pt x="467" y="262" on="0"/>
        <pt x="467" y="346" on="1"/>
        <pt x="467" y="396" on="0"/>
        <pt x="429" y="473" on="0"/>
        <pt x="398" y="495" on="1"/>
        <pt x="337" y="538" on="0"/>
        <pt x="262" y="538" on="1"/>
        <pt x="260" y="516" on="0"/>
        <pt x="255" y="468" on="1"/>
        <pt x="245" y="368" on="0"/>
        <pt x="243" y="313" on="1"/>
        <pt x="240" y="155" on="1"/>
        <pt x="240" y="-27" on="0"/>
        <pt x="168" y="-27" on="1"/>
        <pt x="122" y="-27" on="0"/>
        <pt x="122" y="12" on="1"/>
        <pt x="122" y="22" on="0"/>
        <pt x="149" y="70" on="0"/>
        <pt x="161" y="133" on="0"/>
        <pt x="175" y="440" on="0"/>
        <pt x="187" y="528" on="1"/>
        <pt x="134" y="513" on="0"/>
        <pt x="67" y="451" on="0"/>
        <pt x="67" y="409" on="1"/>
        <pt x="67" y="385" on="0"/>
        <pt x="45" y="356" on="0"/>
        <pt x="29" y="356" on="1"/>
        <pt x="0" y="356" on="0"/>
        <pt x="0" y="387" on="1"/>
        <pt x="0" y="457" on="0"/>
        <pt x="113" y="548" on="0"/>
        <pt x="196" y="568" on="1"/>
        <pt x="216" y="635" on="0"/>
        <pt x="252" y="635" on="1"/>
        <pt x="266" y="635" on="0"/>
        <pt x="266" y="603" on="1"/>
        <pt x="266" y="596" on="0"/>
        <pt x="264" y="578" on="1"/>
        <pt x="275" y="580" on="0"/>
        <pt x="337" y="580" on="0"/>
        <pt x="415" y="562" on="0"/>
        <pt x="494" y="519" on="0"/>
        <pt x="542" y="432" on="0"/>
        <pt x="542" y="316" on="0"/>
        <pt x="482" y="216" on="0"/>
        <pt x="434" y="186" on="1"/>
        <pt x="468" y="144" on="0"/>
        <pt x="507" y="22" on="0"/>
        <pt x="541" y="-43" on="0"/>
      </contour>
      <contour>
        <pt x="297" y="204" on="0"/>
        <pt x="325" y="192" on="0"/>
        <pt x="356" y="192" on="0"/>
        <pt x="369" y="197" on="1"/>
        <pt x="349" y="220" on="0"/>
        <pt x="297" y="220" on="0"/>
      </contour>
    </TTGlyph>
    <TTGlyph name="Racute" xMin="0" yMin="-118" xMax="600" yMax="770">
      <contour>
        <pt x="551" y="-43" on="1"/>
        <pt x="584" y="-35" on="1"/>
        <pt x="600" y="-35" on="0"/>
        <pt x="600" y="-51" on="1"/>
        <pt x="599" y="-77" on="0"/>
        <pt x="548" y="-118" on="0"/>
        <pt x="484" y="-118" on="0"/>
        <pt x="465" y="-87" on="1"/>
        <pt x="438" y="-42" on="0"/>
        <pt x="414" y="74" on="1"/>
        <pt x="403" y="130" on="0"/>
        <pt x="388" y="166" on="1"/>
        <pt x="361" y="157" on="0"/>
        <pt x="301" y="157" on="0"/>
        <pt x="256" y="182" on="0"/>
        <pt x="256" y="200" on="1"/>
        <pt x="258" y="246" on="0"/>
        <pt x="330" y="246" on="1"/>
        <pt x="365" y="246" on="0"/>
        <pt x="405" y="215" on="1"/>
        <pt x="467" y="262" on="0"/>
        <pt x="467" y="346" on="1"/>
        <pt x="467" y="396" on="0"/>
        <pt x="429" y="473" on="0"/>
        <pt x="398" y="495" on="1"/>
        <pt x="337" y="538" on="0"/>
        <pt x="262" y="538" on="1"/>
        <pt x="260" y="516" on="0"/>
        <pt x="255" y="468" on="1"/>
        <pt x="245" y="368" on="0"/>
        <pt x="243" y="313" on="1"/>
        <pt x="240" y="155" on="1"/>
        <pt x="240" y="-27" on="0"/>
        <pt x="168" y="-27" on="1"/>
        <pt x="122" y="-27" on="0"/>
        <pt x="122" y="12" on="1"/>
        <pt x="122" y="22" on="0"/>
        <pt x="149" y="70" on="0"/>
        <pt x="161" y="133" on="0"/>
        <pt x="175" y="440" on="0"/>
        <pt x="187" y="528" on="1"/>
        <pt x="134" y="513" on="0"/>
        <pt x="67" y="451" on="0"/>
        <pt x="67" y="409" on="1"/>
        <pt x="67" y="385" on="0"/>
        <pt x="45" y="356" on="0"/>
        <pt x="29" y="356" on="1"/>
        <pt x="0" y="356" on="0"/>
        <pt x="0" y="387" on="1"/>
        <pt x="0" y="457" on="0"/>
        <pt x="113" y="548" on="0"/>
        <pt x="196" y="568" on="1"/>
        <pt x="216" y="635" on="0"/>
        <pt x="252" y="635" on="1"/>
        <pt x="266" y="635" on="0"/>
        <pt x="266" y="603" on="1"/>
        <pt x="266" y="596" on="0"/>
        <pt x="264" y="578" on="1"/>
        <pt x="275" y="580" on="0"/>
        <pt x="337" y="580" on="0"/>
        <pt x="415" y="562" on="0"/>
        <pt x="494" y="519" on="0"/>
        <pt x="542" y="432" on="0"/>
        <pt x="542" y="316" on="0"/>
        <pt x="482" y="216" on="0"/>
        <pt x="434" y="186" on="1"/>
        <pt x="468" y="144" on="0"/>
        <pt x="507" y="22" on="0"/>
        <pt x="541" y="-43" on="0"/>
      </contour>
      <contour>
        <pt x="297" y="204" on="0"/>
        <pt x="325" y="192" on="0"/>
        <pt x="356" y="192" on="0"/>
        <pt x="369" y="197" on="1"/>
        <pt x="349" y="220" on="0"/>
        <pt x="297" y="220" on="0"/>
      </contour>
      <contour>
        <pt x="380" y="719" on="1"/>
        <pt x="380" y="727" on="0"/>
        <pt x="370" y="742" on="0"/>
        <pt x="370" y="752" on="0"/>
        <pt x="405" y="770" on="0"/>
        <pt x="427" y="770" on="0"/>
        <pt x="448" y="746" on="0"/>
        <pt x="448" y="724" on="1"/>
        <pt x="448" y="690" on="0"/>
        <pt x="405" y="658" on="1"/>
        <pt x="385" y="643" on="0"/>
        <pt x="332" y="621" on="0"/>
        <pt x="307" y="621" on="0"/>
        <pt x="307" y="630" on="1"/>
        <pt x="307" y="635" on="0"/>
        <pt x="321" y="643" on="1"/>
        <pt x="379" y="671" on="0"/>
      </contour>
    </TTGlyph>
    <TTGlyph name="Rcaron" xMin="0" yMin="-118" xMax="600" yMax="770">
      <contour>
        <pt x="551" y="-43" on="1"/>
        <pt x="584" y="-35" on="1"/>
        <pt x="600" y="-35" on="0"/>
        <pt x="600" y="-51" on="1"/>
        <pt x="599" y="-77" on="0"/>
        <pt x="548" y="-118" on="0"/>
        <pt x="484" y="-118" on="0"/>
        <pt x="465" y="-87" on="1"/>
        <pt x="438" y="-42" on="0"/>
        <pt x="414" y="74" on="1"/>
        <pt x="403" y="130" on="0"/>
        <pt x="388" y="166" on="1"/>
        <pt x="361" y="157" on="0"/>
        <pt x="301" y="157" on="0"/>
        <pt x="256" y="182" on="0"/>
        <pt x="256" y="200" on="1"/>
        <pt x="258" y="246" on="0"/>
        <pt x="330" y="246" on="1"/>
        <pt x="365" y="246" on="0"/>
        <pt x="405" y="215" on="1"/>
        <pt x="467" y="262" on="0"/>
        <pt x="467" y="346" on="1"/>
        <pt x="467" y="396" on="0"/>
        <pt x="429" y="473" on="0"/>
        <pt x="398" y="495" on="1"/>
        <pt x="337" y="538" on="0"/>
        <pt x="262" y="538" on="1"/>
        <pt x="260" y="516" on="0"/>
        <pt x="255" y="468" on="1"/>
        <pt x="245" y="368" on="0"/>
        <pt x="243" y="313" on="1"/>
        <pt x="240" y="155" on="1"/>
        <pt x="240" y="-27" on="0"/>
        <pt x="168" y="-27" on="1"/>
        <pt x="122" y="-27" on="0"/>
        <pt x="122" y="12" on="1"/>
        <pt x="122" y="22" on="0"/>
        <pt x="149" y="70" on="0"/>
        <pt x="161" y="133" on="0"/>
        <pt x="175" y="440" on="0"/>
        <pt x="187" y="528" on="1"/>
        <pt x="134" y="513" on="0"/>
        <pt x="67" y="451" on="0"/>
        <pt x="67" y="409" on="1"/>
        <pt x="67" y="385" on="0"/>
        <pt x="45" y="356" on="0"/>
        <pt x="29" y="356" on="1"/>
        <pt x="0" y="356" on="0"/>
        <pt x="0" y="387" on="1"/>
        <pt x="0" y="457" on="0"/>
        <pt x="113" y="548" on="0"/>
        <pt x="196" y="568" on="1"/>
        <pt x="216" y="635" on="0"/>
        <pt x="252" y="635" on="1"/>
        <pt x="266" y="635" on="0"/>
        <pt x="266" y="603" on="1"/>
        <pt x="266" y="596" on="0"/>
        <pt x="264" y="578" on="1"/>
        <pt x="275" y="580" on="0"/>
        <pt x="337" y="580" on="0"/>
        <pt x="415" y="562" on="0"/>
        <pt x="494" y="519" on="0"/>
        <pt x="542" y="432" on="0"/>
        <pt x="542" y="316" on="0"/>
        <pt x="482" y="216" on="0"/>
        <pt x="434" y="186" on="1"/>
        <pt x="468" y="144" on="0"/>
        <pt x="507" y="22" on="0"/>
        <pt x="541" y="-43" on="0"/>
      </contour>
      <contour>
        <pt x="297" y="204" on="0"/>
        <pt x="325" y="192" on="0"/>
        <pt x="356" y="192" on="0"/>
        <pt x="369" y="197" on="1"/>
        <pt x="349" y="220" on="0"/>
        <pt x="297" y="220" on="0"/>
      </contour>
      <contour>
        <pt x="241" y="753" on="1"/>
        <pt x="241" y="759" on="0"/>
        <pt x="258" y="770" on="0"/>
        <pt x="264" y="770" on="1"/>
        <pt x="283" y="770" on="0"/>
        <pt x="340" y="714" on="0"/>
        <pt x="352" y="679" on="1"/>
        <pt x="359" y="710" on="0"/>
        <pt x="428" y="764" on="0"/>
        <pt x="457" y="764" on="0"/>
        <pt x="457" y="755" on="1"/>
        <pt x="457" y="752" on="0"/>
        <pt x="421" y="725" on="0"/>
        <pt x="418" y="722" on="1"/>
        <pt x="390" y="694" on="0"/>
        <pt x="380" y="649" on="1"/>
        <pt x="378" y="641" on="0"/>
        <pt x="344" y="620" on="0"/>
        <pt x="336" y="620" on="1"/>
        <pt x="324" y="620" on="0"/>
        <pt x="322" y="636" on="1"/>
        <pt x="316" y="668" on="0"/>
        <pt x="272" y="734" on="0"/>
      </contour>
    </TTGlyph>
    <TTGlyph name="Rcommaaccent" xMin="0" yMin="-264" xMax="600" yMax="635">
      <contour>
        <pt x="551" y="-43" on="1"/>
        <pt x="584" y="-35" on="1"/>
        <pt x="600" y="-35" on="0"/>
        <pt x="600" y="-51" on="1"/>
        <pt x="599" y="-77" on="0"/>
        <pt x="548" y="-118" on="0"/>
        <pt x="484" y="-118" on="0"/>
        <pt x="465" y="-87" on="1"/>
        <pt x="438" y="-42" on="0"/>
        <pt x="414" y="74" on="1"/>
        <pt x="403" y="130" on="0"/>
        <pt x="388" y="166" on="1"/>
        <pt x="361" y="157" on="0"/>
        <pt x="301" y="157" on="0"/>
        <pt x="256" y="182" on="0"/>
        <pt x="256" y="200" on="1"/>
        <pt x="258" y="246" on="0"/>
        <pt x="330" y="246" on="1"/>
        <pt x="365" y="246" on="0"/>
        <pt x="405" y="215" on="1"/>
        <pt x="467" y="262" on="0"/>
        <pt x="467" y="346" on="1"/>
        <pt x="467" y="396" on="0"/>
        <pt x="429" y="473" on="0"/>
        <pt x="398" y="495" on="1"/>
        <pt x="337" y="538" on="0"/>
        <pt x="262" y="538" on="1"/>
        <pt x="260" y="516" on="0"/>
        <pt x="255" y="468" on="1"/>
        <pt x="245" y="368" on="0"/>
        <pt x="243" y="313" on="1"/>
        <pt x="240" y="155" on="1"/>
        <pt x="240" y="-27" on="0"/>
        <pt x="168" y="-27" on="1"/>
        <pt x="122" y="-27" on="0"/>
        <pt x="122" y="12" on="1"/>
        <pt x="122" y="22" on="0"/>
        <pt x="149" y="70" on="0"/>
        <pt x="161" y="133" on="0"/>
        <pt x="175" y="440" on="0"/>
        <pt x="187" y="528" on="1"/>
        <pt x="134" y="513" on="0"/>
        <pt x="67" y="451" on="0"/>
        <pt x="67" y="409" on="1"/>
        <pt x="67" y="385" on="0"/>
        <pt x="45" y="356" on="0"/>
        <pt x="29" y="356" on="1"/>
        <pt x="0" y="356" on="0"/>
        <pt x="0" y="387" on="1"/>
        <pt x="0" y="457" on="0"/>
        <pt x="113" y="548" on="0"/>
        <pt x="196" y="568" on="1"/>
        <pt x="216" y="635" on="0"/>
        <pt x="252" y="635" on="1"/>
        <pt x="266" y="635" on="0"/>
        <pt x="266" y="603" on="1"/>
        <pt x="266" y="596" on="0"/>
        <pt x="264" y="578" on="1"/>
        <pt x="275" y="580" on="0"/>
        <pt x="337" y="580" on="0"/>
        <pt x="415" y="562" on="0"/>
        <pt x="494" y="519" on="0"/>
        <pt x="542" y="432" on="0"/>
        <pt x="542" y="316" on="0"/>
        <pt x="482" y="216" on="0"/>
        <pt x="434" y="186" on="1"/>
        <pt x="468" y="144" on="0"/>
        <pt x="507" y="22" on="0"/>
        <pt x="541" y="-43" on="0"/>
      </contour>
      <contour>
        <pt x="297" y="204" on="0"/>
        <pt x="325" y="192" on="0"/>
        <pt x="356" y="192" on="0"/>
        <pt x="369" y="197" on="1"/>
        <pt x="349" y="220" on="0"/>
        <pt x="297" y="220" on="0"/>
      </contour>
      <contour>
        <pt x="247" y="-109" on="0"/>
        <pt x="285" y="-74" on="0"/>
        <pt x="315" y="-74" on="0"/>
        <pt x="339" y="-111" on="0"/>
        <pt x="339" y="-161" on="0"/>
        <pt x="266" y="-264" on="0"/>
        <pt x="241" y="-264" on="1"/>
        <pt x="233" y="-264" on="0"/>
        <pt x="233" y="-242" on="0"/>
        <pt x="273" y="-190" on="0"/>
        <pt x="273" y="-161" on="0"/>
        <pt x="247" y="-131" on="0"/>
      </contour>
    </TTGlyph>
    <TTGlyph name="S" xMin="12" yMin="-10" xMax="422" yMax="581">
      <contour>
        <pt x="333" y="459" on="1"/>
        <pt x="338" y="485" on="1"/>
        <pt x="334" y="539" on="0"/>
        <pt x="265" y="539" on="1"/>
        <pt x="225" y="539" on="0"/>
        <pt x="166" y="482" on="0"/>
        <pt x="166" y="419" on="0"/>
        <pt x="219" y="372" on="0"/>
        <pt x="294" y="335" on="0"/>
        <pt x="369" y="292" on="0"/>
        <pt x="422" y="224" on="0"/>
        <pt x="422" y="181" on="1"/>
        <pt x="422" y="92" on="0"/>
        <pt x="282" y="-10" on="0"/>
        <pt x="120" y="-10" on="0"/>
        <pt x="12" y="49" on="0"/>
        <pt x="12" y="109" on="1"/>
        <pt x="12" y="141" on="0"/>
        <pt x="56" y="193" on="0"/>
        <pt x="97" y="193" on="1"/>
        <pt x="113" y="193" on="0"/>
        <pt x="139" y="175" on="0"/>
        <pt x="142" y="160" on="1"/>
        <pt x="142" y="145" on="0"/>
        <pt x="124" y="145" on="1"/>
        <pt x="90" y="145" on="0"/>
        <pt x="90" y="116" on="1"/>
        <pt x="91" y="83" on="0"/>
        <pt x="152" y="29" on="0"/>
        <pt x="263" y="29" on="0"/>
        <pt x="342" y="105" on="0"/>
        <pt x="342" y="159" on="1"/>
        <pt x="342" y="195" on="0"/>
        <pt x="288" y="253" on="0"/>
        <pt x="212" y="294" on="0"/>
        <pt x="135" y="336" on="0"/>
        <pt x="81" y="396" on="0"/>
        <pt x="81" y="434" on="1"/>
        <pt x="81" y="501" on="0"/>
        <pt x="196" y="581" on="0"/>
        <pt x="269" y="581" on="1"/>
        <pt x="318" y="581" on="0"/>
        <pt x="398" y="541" on="0"/>
        <pt x="399" y="500" on="1"/>
        <pt x="399" y="476" on="0"/>
        <pt x="375" y="444" on="0"/>
        <pt x="334" y="444" on="0"/>
      </contour>
    </TTGlyph>
    <TTGlyph name="Sacute" xMin="12" yMin="-10" xMax="422" yMax="770">
      <contour>
        <pt x="333" y="459" on="1"/>
        <pt x="338" y="485" on="1"/>
        <pt x="334" y="539" on="0"/>
        <pt x="265" y="539" on="1"/>
        <pt x="225" y="539" on="0"/>
        <pt x="166" y="482" on="0"/>
        <pt x="166" y="419" on="0"/>
        <pt x="219" y="372" on="0"/>
        <pt x="294" y="335" on="0"/>
        <pt x="369" y="292" on="0"/>
        <pt x="422" y="224" on="0"/>
        <pt x="422" y="181" on="1"/>
        <pt x="422" y="92" on="0"/>
        <pt x="282" y="-10" on="0"/>
        <pt x="120" y="-10" on="0"/>
        <pt x="12" y="49" on="0"/>
        <pt x="12" y="109" on="1"/>
        <pt x="12" y="141" on="0"/>
        <pt x="56" y="193" on="0"/>
        <pt x="97" y="193" on="1"/>
        <pt x="113" y="193" on="0"/>
        <pt x="139" y="175" on="0"/>
        <pt x="142" y="160" on="1"/>
        <pt x="142" y="145" on="0"/>
        <pt x="124" y="145" on="1"/>
        <pt x="90" y="145" on="0"/>
        <pt x="90" y="116" on="1"/>
        <pt x="91" y="83" on="0"/>
        <pt x="152" y="29" on="0"/>
        <pt x="263" y="29" on="0"/>
        <pt x="342" y="105" on="0"/>
        <pt x="342" y="159" on="1"/>
        <pt x="342" y="195" on="0"/>
        <pt x="288" y="253" on="0"/>
        <pt x="212" y="294" on="0"/>
        <pt x="135" y="336" on="0"/>
        <pt x="81" y="396" on="0"/>
        <pt x="81" y="434" on="1"/>
        <pt x="81" y="501" on="0"/>
        <pt x="196" y="581" on="0"/>
        <pt x="269" y="581" on="1"/>
        <pt x="318" y="581" on="0"/>
        <pt x="398" y="541" on="0"/>
        <pt x="399" y="500" on="1"/>
        <pt x="399" y="476" on="0"/>
        <pt x="375" y="444" on="0"/>
        <pt x="334" y="444" on="0"/>
      </contour>
      <contour>
        <pt x="287" y="719" on="1"/>
        <pt x="287" y="727" on="0"/>
        <pt x="277" y="742" on="0"/>
        <pt x="277" y="752" on="0"/>
        <pt x="312" y="770" on="0"/>
        <pt x="334" y="770" on="0"/>
        <pt x="355" y="746" on="0"/>
        <pt x="355" y="724" on="1"/>
        <pt x="355" y="690" on="0"/>
        <pt x="312" y="658" on="1"/>
        <pt x="292" y="643" on="0"/>
        <pt x="239" y="621" on="0"/>
        <pt x="214" y="621" on="0"/>
        <pt x="214" y="630" on="1"/>
        <pt x="214" y="635" on="0"/>
        <pt x="228" y="643" on="1"/>
        <pt x="286" y="671" on="0"/>
      </contour>
    </TTGlyph>
    <TTGlyph name="T" xMin="11" yMin="-5" xMax="645" yMax="621">
      <contour>
        <pt x="307" y="326" on="1"/>
        <pt x="307" y="496" on="1"/>
        <pt x="288" y="500" on="0"/>
        <pt x="216" y="517" on="0"/>
        <pt x="197" y="521" on="1"/>
        <pt x="140" y="533" on="0"/>
        <pt x="107" y="533" on="1"/>
        <pt x="44" y="533" on="0"/>
        <pt x="44" y="498" on="1"/>
        <pt x="44" y="459" on="0"/>
        <pt x="97" y="405" on="0"/>
        <pt x="139" y="405" on="0"/>
        <pt x="172" y="427" on="0"/>
        <pt x="185" y="427" on="1"/>
        <pt x="202" y="427" on="0"/>
        <pt x="202" y="392" on="0"/>
        <pt x="171" y="370" on="0"/>
        <pt x="138" y="370" on="1"/>
        <pt x="85" y="370" on="0"/>
        <pt x="11" y="462" on="0"/>
        <pt x="11" y="558" on="0"/>
        <pt x="55" y="606" on="0"/>
        <pt x="88" y="606" on="1"/>
        <pt x="164" y="606" on="0"/>
        <pt x="314" y="558" on="1"/>
        <pt x="326" y="621" on="0"/>
        <pt x="359" y="621" on="1"/>
        <pt x="374" y="621" on="0"/>
        <pt x="374" y="539" on="1"/>
        <pt x="471" y="509" on="0"/>
        <pt x="541" y="509" on="1"/>
        <pt x="586" y="509" on="0"/>
        <pt x="620" y="538" on="1"/>
        <pt x="630" y="546" on="0"/>
        <pt x="645" y="546" on="0"/>
        <pt x="645" y="539" on="1"/>
        <pt x="645" y="512" on="0"/>
        <pt x="565" y="469" on="0"/>
        <pt x="453" y="469" on="0"/>
        <pt x="374" y="483" on="1"/>
        <pt x="376" y="345" on="0"/>
        <pt x="376" y="241" on="0"/>
        <pt x="369" y="167" on="0"/>
        <pt x="345" y="86" on="0"/>
        <pt x="306" y="31" on="0"/>
        <pt x="237" y="-5" on="0"/>
        <pt x="146" y="-5" on="0"/>
        <pt x="73" y="37" on="0"/>
        <pt x="73" y="81" on="1"/>
        <pt x="73" y="108" on="0"/>
        <pt x="101" y="143" on="0"/>
        <pt x="148" y="143" on="0"/>
        <pt x="148" y="132" on="1"/>
        <pt x="148" y="127" on="0"/>
        <pt x="136" y="98" on="0"/>
        <pt x="136" y="69" on="0"/>
        <pt x="173" y="35" on="0"/>
        <pt x="208" y="35" on="1"/>
        <pt x="307" y="35" on="0"/>
      </contour>
    </TTGlyph>
    <TTGlyph name="Thorn" xMin="0" yMin="-27" xMax="521" yMax="635">
      <contour>
        <pt x="261" y="635" on="1"/>
        <pt x="275" y="635" on="0"/>
        <pt x="275" y="565" on="0"/>
        <pt x="265" y="473" on="1"/>
        <pt x="274" y="474" on="0"/>
        <pt x="333" y="474" on="0"/>
        <pt x="408" y="458" on="0"/>
        <pt x="479" y="424" on="0"/>
        <pt x="521" y="356" on="0"/>
        <pt x="521" y="310" on="1"/>
        <pt x="521" y="236" on="0"/>
        <pt x="381" y="139" on="0"/>
        <pt x="287" y="139" on="1"/>
        <pt x="257" y="139" on="1"/>
        <pt x="254" y="-27" on="0"/>
        <pt x="188" y="-27" on="1"/>
        <pt x="142" y="-27" on="0"/>
        <pt x="142" y="12" on="1"/>
        <pt x="142" y="24" on="0"/>
        <pt x="151" y="40" on="1"/>
        <pt x="173" y="79" on="0"/>
        <pt x="177" y="149" on="1"/>
        <pt x="137" y="159" on="0"/>
        <pt x="137" y="178" on="1"/>
        <pt x="137" y="188" on="0"/>
        <pt x="149" y="202" on="0"/>
        <pt x="170" y="202" on="0"/>
        <pt x="180" y="199" on="1"/>
        <pt x="190" y="432" on="1"/>
        <pt x="137" y="421" on="0"/>
        <pt x="67" y="369" on="0"/>
        <pt x="67" y="335" on="1"/>
        <pt x="67" y="315" on="0"/>
        <pt x="46" y="292" on="0"/>
        <pt x="30" y="292" on="1"/>
        <pt x="0" y="292" on="0"/>
        <pt x="0" y="320" on="1"/>
        <pt x="0" y="372" on="0"/>
        <pt x="109" y="448" on="0"/>
        <pt x="192" y="465" on="1"/>
        <pt x="194" y="536" on="0"/>
        <pt x="230" y="635" on="0"/>
      </contour>
      <contour>
        <pt x="446" y="287" on="1"/>
        <pt x="446" y="363" on="0"/>
        <pt x="339" y="439" on="0"/>
        <pt x="262" y="440" on="1"/>
        <pt x="257" y="382" on="0"/>
        <pt x="257" y="174" on="1"/>
        <pt x="264" y="172" on="0"/>
        <pt x="278" y="172" on="1"/>
        <pt x="362" y="172" on="0"/>
        <pt x="446" y="238" on="0"/>
      </contour>
    </TTGlyph>
    <TTGlyph name="U" xMin="0" yMin="-5" xMax="564" yMax="580">
      <contour>
        <pt x="415" y="46" on="1"/>
        <pt x="432" y="46" on="0"/>
        <pt x="492" y="129" on="0"/>
        <pt x="551" y="260" on="0"/>
        <pt x="564" y="260" on="0"/>
        <pt x="564" y="252" on="1"/>
        <pt x="564" y="224" on="0"/>
        <pt x="535" y="163" on="1"/>
        <pt x="456" y="-5" on="0"/>
        <pt x="403" y="-5" on="1"/>
        <pt x="357" y="-5" on="0"/>
        <pt x="338" y="10" on="1"/>
        <pt x="330" y="18" on="0"/>
        <pt x="330" y="80" on="0"/>
        <pt x="335" y="145" on="1"/>
        <pt x="297" y="80" on="0"/>
        <pt x="212" y="-5" on="0"/>
        <pt x="129" y="-5" on="0"/>
        <pt x="77" y="84" on="0"/>
        <pt x="77" y="235" on="0"/>
        <pt x="107" y="462" on="0"/>
        <pt x="107" y="517" on="1"/>
        <pt x="107" y="531" on="0"/>
        <pt x="100" y="531" on="1"/>
        <pt x="84" y="531" on="0"/>
        <pt x="43" y="484" on="0"/>
        <pt x="36" y="435" on="1"/>
        <pt x="35" y="424" on="0"/>
        <pt x="20" y="407" on="0"/>
        <pt x="12" y="407" on="1"/>
        <pt x="0" y="407" on="0"/>
        <pt x="0" y="447" on="0"/>
        <pt x="40" y="520" on="0"/>
        <pt x="105" y="580" on="0"/>
        <pt x="136" y="580" on="1"/>
        <pt x="172" y="580" on="0"/>
        <pt x="171" y="465" on="0"/>
        <pt x="147" y="245" on="0"/>
        <pt x="147" y="190" on="1"/>
        <pt x="147" y="50" on="0"/>
        <pt x="199" y="50" on="1"/>
        <pt x="229" y="50" on="0"/>
        <pt x="309" y="146" on="0"/>
        <pt x="340" y="210" on="1"/>
        <pt x="360" y="466" on="0"/>
        <pt x="369" y="527" on="1"/>
        <pt x="371" y="536" on="0"/>
        <pt x="429" y="580" on="0"/>
        <pt x="460" y="580" on="0"/>
        <pt x="460" y="522" on="1"/>
        <pt x="460" y="478" on="0"/>
        <pt x="446" y="414" on="0"/>
        <pt x="425" y="328" on="0"/>
        <pt x="420" y="307" on="1"/>
        <pt x="410" y="173" on="0"/>
        <pt x="410" y="73" on="1"/>
        <pt x="410" y="46" on="0"/>
      </contour>
    </TTGlyph>
    <TTGlyph name="Uacute" xMin="0" yMin="-5" xMax="565" yMax="770">
      <contour>
        <pt x="416" y="46" on="1"/>
        <pt x="433" y="46" on="0"/>
        <pt x="493" y="129" on="0"/>
        <pt x="552" y="260" on="0"/>
        <pt x="565" y="260" on="0"/>
        <pt x="565" y="252" on="1"/>
        <pt x="565" y="224" on="0"/>
        <pt x="536" y="163" on="1"/>
        <pt x="457" y="-5" on="0"/>
        <pt x="403" y="-5" on="1"/>
        <pt x="357" y="-5" on="0"/>
        <pt x="338" y="10" on="1"/>
        <pt x="330" y="18" on="0"/>
        <pt x="330" y="80" on="0"/>
        <pt x="335" y="145" on="1"/>
        <pt x="297" y="80" on="0"/>
        <pt x="212" y="-5" on="0"/>
        <pt x="129" y="-5" on="0"/>
        <pt x="77" y="84" on="0"/>
        <pt x="77" y="235" on="0"/>
        <pt x="107" y="462" on="0"/>
        <pt x="107" y="517" on="1"/>
        <pt x="107" y="531" on="0"/>
        <pt x="100" y="531" on="1"/>
        <pt x="84" y="531" on="0"/>
        <pt x="43" y="484" on="0"/>
        <pt x="36" y="435" on="1"/>
        <pt x="35" y="424" on="0"/>
        <pt x="20" y="407" on="0"/>
        <pt x="12" y="407" on="1"/>
        <pt x="0" y="407" on="0"/>
        <pt x="0" y="447" on="0"/>
        <pt x="40" y="520" on="0"/>
        <pt x="105" y="580" on="0"/>
        <pt x="136" y="580" on="1"/>
        <pt x="172" y="580" on="0"/>
        <pt x="171" y="465" on="0"/>
        <pt x="147" y="245" on="0"/>
        <pt x="147" y="190" on="1"/>
        <pt x="147" y="50" on="0"/>
        <pt x="199" y="50" on="1"/>
        <pt x="229" y="50" on="0"/>
        <pt x="309" y="146" on="0"/>
        <pt x="340" y="210" on="1"/>
        <pt x="360" y="466" on="0"/>
        <pt x="369" y="527" on="1"/>
        <pt x="371" y="536" on="0"/>
        <pt x="429" y="580" on="0"/>
        <pt x="460" y="580" on="0"/>
        <pt x="460" y="522" on="1"/>
        <pt x="460" y="478" on="0"/>
        <pt x="446" y="414" on="0"/>
        <pt x="425" y="328" on="0"/>
        <pt x="420" y="307" on="1"/>
        <pt x="410" y="173" on="0"/>
        <pt x="410" y="73" on="1"/>
        <pt x="410" y="46" on="0"/>
      </contour>
      <contour>
        <pt x="301" y="719" on="1"/>
        <pt x="301" y="727" on="0"/>
        <pt x="291" y="742" on="0"/>
        <pt x="291" y="752" on="0"/>
        <pt x="326" y="770" on="0"/>
        <pt x="348" y="770" on="0"/>
        <pt x="369" y="746" on="0"/>
        <pt x="369" y="724" on="1"/>
        <pt x="369" y="690" on="0"/>
        <pt x="326" y="658" on="1"/>
        <pt x="306" y="643" on="0"/>
        <pt x="253" y="621" on="0"/>
        <pt x="228" y="621" on="0"/>
        <pt x="228" y="630" on="1"/>
        <pt x="228" y="635" on="0"/>
        <pt x="242" y="643" on="1"/>
        <pt x="300" y="671" on="0"/>
      </contour>
    </TTGlyph>
    <TTGlyph name="Ucircumflex" xMin="0" yMin="-5" xMax="565" yMax="770">
      <contour>
        <pt x="416" y="46" on="1"/>
        <pt x="433" y="46" on="0"/>
        <pt x="493" y="129" on="0"/>
        <pt x="552" y="260" on="0"/>
        <pt x="565" y="260" on="0"/>
        <pt x="565" y="252" on="1"/>
        <pt x="565" y="224" on="0"/>
        <pt x="536" y="163" on="1"/>
        <pt x="457" y="-5" on="0"/>
        <pt x="403" y="-5" on="1"/>
        <pt x="357" y="-5" on="0"/>
        <pt x="338" y="10" on="1"/>
        <pt x="330" y="18" on="0"/>
        <pt x="330" y="80" on="0"/>
        <pt x="335" y="145" on="1"/>
        <pt x="297" y="80" on="0"/>
        <pt x="212" y="-5" on="0"/>
        <pt x="129" y="-5" on="0"/>
        <pt x="77" y="84" on="0"/>
        <pt x="77" y="235" on="0"/>
        <pt x="107" y="462" on="0"/>
        <pt x="107" y="517" on="1"/>
        <pt x="107" y="531" on="0"/>
        <pt x="100" y="531" on="1"/>
        <pt x="84" y="531" on="0"/>
        <pt x="43" y="484" on="0"/>
        <pt x="36" y="435" on="1"/>
        <pt x="35" y="424" on="0"/>
        <pt x="20" y="407" on="0"/>
        <pt x="12" y="407" on="1"/>
        <pt x="0" y="407" on="0"/>
        <pt x="0" y="447" on="0"/>
        <pt x="40" y="520" on="0"/>
        <pt x="105" y="580" on="0"/>
        <pt x="136" y="580" on="1"/>
        <pt x="172" y="580" on="0"/>
        <pt x="171" y="465" on="0"/>
        <pt x="147" y="245" on="0"/>
        <pt x="147" y="190" on="1"/>
        <pt x="147" y="50" on="0"/>
        <pt x="199" y="50" on="1"/>
        <pt x="229" y="50" on="0"/>
        <pt x="309" y="146" on="0"/>
        <pt x="340" y="210" on="1"/>
        <pt x="360" y="466" on="0"/>
        <pt x="369" y="527" on="1"/>
        <pt x="371" y="536" on="0"/>
        <pt x="429" y="580" on="0"/>
        <pt x="460" y="580" on="0"/>
        <pt x="460" y="522" on="1"/>
        <pt x="460" y="478" on="0"/>
        <pt x="446" y="414" on="0"/>
        <pt x="425" y="328" on="0"/>
        <pt x="420" y="307" on="1"/>
        <pt x="410" y="173" on="0"/>
        <pt x="410" y="73" on="1"/>
        <pt x="410" y="46" on="0"/>
      </contour>
      <contour>
        <pt x="398" y="631" on="0"/>
        <pt x="374" y="615" on="0"/>
        <pt x="368" y="615" on="1"/>
        <pt x="316" y="615" on="0"/>
        <pt x="281" y="686" on="1"/>
        <pt x="269" y="660" on="0"/>
        <pt x="207" y="626" on="0"/>
        <pt x="178" y="626" on="0"/>
        <pt x="177" y="635" on="1"/>
        <pt x="177" y="639" on="0"/>
        <pt x="194" y="647" on="0"/>
        <pt x="211" y="658" on="0"/>
        <pt x="233" y="679" on="0"/>
        <pt x="245" y="690" on="0"/>
        <pt x="253" y="711" on="0"/>
        <pt x="254" y="714" on="1"/>
        <pt x="259" y="726" on="0"/>
        <pt x="259" y="741" on="1"/>
        <pt x="260" y="749" on="0"/>
        <pt x="295" y="770" on="0"/>
        <pt x="303" y="770" on="1"/>
        <pt x="315" y="770" on="0"/>
        <pt x="321" y="731" on="0"/>
        <pt x="328" y="705" on="0"/>
        <pt x="340" y="685" on="1"/>
        <pt x="357" y="659" on="0"/>
        <pt x="382" y="648" on="1"/>
        <pt x="398" y="641" on="0"/>
      </contour>
    </TTGlyph>
    <TTGlyph name="Udieresis" xMin="0" yMin="-5" xMax="564" yMax="705">
      <contour>
        <pt x="416" y="46" on="1"/>
        <pt x="432" y="46" on="0"/>
        <pt x="492" y="129" on="0"/>
        <pt x="551" y="260" on="0"/>
        <pt x="564" y="260" on="0"/>
        <pt x="564" y="252" on="1"/>
        <pt x="564" y="224" on="0"/>
        <pt x="535" y="163" on="1"/>
        <pt x="456" y="-5" on="0"/>
        <pt x="403" y="-5" on="1"/>
        <pt x="357" y="-5" on="0"/>
        <pt x="338" y="10" on="1"/>
        <pt x="330" y="18" on="0"/>
        <pt x="330" y="80" on="0"/>
        <pt x="335" y="145" on="1"/>
        <pt x="297" y="80" on="0"/>
        <pt x="212" y="-5" on="0"/>
        <pt x="129" y="-5" on="0"/>
        <pt x="77" y="84" on="0"/>
        <pt x="77" y="235" on="0"/>
        <pt x="107" y="462" on="0"/>
        <pt x="107" y="517" on="1"/>
        <pt x="107" y="531" on="0"/>
        <pt x="100" y="531" on="1"/>
        <pt x="84" y="531" on="0"/>
        <pt x="43" y="484" on="0"/>
        <pt x="36" y="435" on="1"/>
        <pt x="35" y="424" on="0"/>
        <pt x="20" y="407" on="0"/>
        <pt x="12" y="407" on="1"/>
        <pt x="0" y="407" on="0"/>
        <pt x="0" y="447" on="0"/>
        <pt x="40" y="520" on="0"/>
        <pt x="105" y="580" on="0"/>
        <pt x="136" y="580" on="1"/>
        <pt x="172" y="580" on="0"/>
        <pt x="171" y="465" on="0"/>
        <pt x="147" y="245" on="0"/>
        <pt x="147" y="190" on="1"/>
        <pt x="147" y="50" on="0"/>
        <pt x="199" y="50" on="1"/>
        <pt x="229" y="50" on="0"/>
        <pt x="309" y="146" on="0"/>
        <pt x="340" y="210" on="1"/>
        <pt x="360" y="466" on="0"/>
        <pt x="369" y="527" on="1"/>
        <pt x="371" y="536" on="0"/>
        <pt x="429" y="580" on="0"/>
        <pt x="460" y="580" on="0"/>
        <pt x="460" y="522" on="1"/>
        <pt x="460" y="478" on="0"/>
        <pt x="446" y="414" on="0"/>
        <pt x="425" y="328" on="0"/>
        <pt x="420" y="307" on="1"/>
        <pt x="410" y="173" on="0"/>
        <pt x="410" y="73" on="1"/>
        <pt x="410" y="46" on="0"/>
      </contour>
      <contour>
        <pt x="189" y="623" on="0"/>
        <pt x="162" y="641" on="0"/>
        <pt x="162" y="681" on="0"/>
        <pt x="199" y="705" on="0"/>
        <pt x="231" y="705" on="0"/>
        <pt x="253" y="687" on="0"/>
        <pt x="253" y="674" on="1"/>
        <pt x="253" y="623" on="0"/>
        <pt x="202" y="623" on="1"/>
      </contour>
      <contour>
        <pt x="333" y="623" on="0"/>
        <pt x="306" y="641" on="0"/>
        <pt x="306" y="681" on="0"/>
        <pt x="344" y="705" on="0"/>
        <pt x="376" y="705" on="0"/>
        <pt x="397" y="687" on="0"/>
        <pt x="397" y="674" on="1"/>
        <pt x="397" y="623" on="0"/>
        <pt x="347" y="623" on="1"/>
      </contour>
    </TTGlyph>
    <TTGlyph name="Ugrave" xMin="0" yMin="-5" xMax="565" yMax="770">
      <contour>
        <pt x="416" y="46" on="1"/>
        <pt x="433" y="46" on="0"/>
        <pt x="493" y="129" on="0"/>
        <pt x="552" y="260" on="0"/>
        <pt x="565" y="260" on="0"/>
        <pt x="565" y="252" on="1"/>
        <pt x="565" y="224" on="0"/>
        <pt x="536" y="163" on="1"/>
        <pt x="457" y="-5" on="0"/>
        <pt x="403" y="-5" on="1"/>
        <pt x="357" y="-5" on="0"/>
        <pt x="338" y="10" on="1"/>
        <pt x="330" y="18" on="0"/>
        <pt x="330" y="80" on="0"/>
        <pt x="335" y="145" on="1"/>
        <pt x="297" y="80" on="0"/>
        <pt x="212" y="-5" on="0"/>
        <pt x="129" y="-5" on="0"/>
        <pt x="77" y="84" on="0"/>
        <pt x="77" y="235" on="0"/>
        <pt x="107" y="462" on="0"/>
        <pt x="107" y="517" on="1"/>
        <pt x="107" y="531" on="0"/>
        <pt x="100" y="531" on="1"/>
        <pt x="84" y="531" on="0"/>
        <pt x="43" y="484" on="0"/>
        <pt x="36" y="435" on="1"/>
        <pt x="35" y="424" on="0"/>
        <pt x="20" y="407" on="0"/>
        <pt x="12" y="407" on="1"/>
        <pt x="0" y="407" on="0"/>
        <pt x="0" y="447" on="0"/>
        <pt x="40" y="520" on="0"/>
        <pt x="105" y="580" on="0"/>
        <pt x="136" y="580" on="1"/>
        <pt x="172" y="580" on="0"/>
        <pt x="171" y="465" on="0"/>
        <pt x="147" y="245" on="0"/>
        <pt x="147" y="190" on="1"/>
        <pt x="147" y="50" on="0"/>
        <pt x="199" y="50" on="1"/>
        <pt x="229" y="50" on="0"/>
        <pt x="309" y="146" on="0"/>
        <pt x="340" y="210" on="1"/>
        <pt x="360" y="466" on="0"/>
        <pt x="369" y="527" on="1"/>
        <pt x="371" y="536" on="0"/>
        <pt x="429" y="580" on="0"/>
        <pt x="460" y="580" on="0"/>
        <pt x="460" y="522" on="1"/>
        <pt x="460" y="478" on="0"/>
        <pt x="446" y="414" on="0"/>
        <pt x="425" y="328" on="0"/>
        <pt x="420" y="307" on="1"/>
        <pt x="410" y="173" on="0"/>
        <pt x="410" y="73" on="1"/>
        <pt x="410" y="46" on="0"/>
      </contour>
      <contour>
        <pt x="260" y="747" on="0"/>
        <pt x="275" y="711" on="0"/>
        <pt x="283" y="699" on="0"/>
        <pt x="290" y="690" on="0"/>
        <pt x="296" y="684" on="0"/>
        <pt x="306" y="677" on="0"/>
        <pt x="312" y="673" on="0"/>
        <pt x="325" y="666" on="0"/>
        <pt x="330" y="664" on="0"/>
        <pt x="338" y="660" on="1"/>
        <pt x="348" y="655" on="1"/>
        <pt x="361" y="648" on="0"/>
        <pt x="361" y="638" on="1"/>
        <pt x="361" y="623" on="0"/>
        <pt x="326" y="623" on="0"/>
        <pt x="270" y="642" on="0"/>
        <pt x="249" y="656" on="1"/>
        <pt x="199" y="690" on="0"/>
        <pt x="199" y="728" on="1"/>
        <pt x="199" y="739" on="0"/>
        <pt x="231" y="770" on="0"/>
        <pt x="246" y="770" on="0"/>
      </contour>
    </TTGlyph>
    <TTGlyph name="V" xMin="18" yMin="-20" xMax="484" yMax="714">
      <contour>
        <pt x="234" y="-20" on="1"/>
        <pt x="151" y="-20" on="0"/>
        <pt x="121" y="52" on="1"/>
        <pt x="100" y="101" on="0"/>
        <pt x="88" y="176" on="1"/>
        <pt x="58" y="142" on="0"/>
        <pt x="38" y="117" on="0"/>
        <pt x="30" y="117" on="1"/>
        <pt x="18" y="117" on="0"/>
        <pt x="18" y="127" on="1"/>
        <pt x="18" y="133" on="0"/>
        <pt x="24" y="139" on="1"/>
        <pt x="59" y="174" on="0"/>
        <pt x="84" y="203" on="1"/>
        <pt x="76" y="260" on="0"/>
        <pt x="76" y="389" on="0"/>
        <pt x="100" y="503" on="0"/>
        <pt x="157" y="580" on="0"/>
        <pt x="199" y="580" on="1"/>
        <pt x="250" y="580" on="0"/>
        <pt x="250" y="493" on="1"/>
        <pt x="250" y="381" on="0"/>
        <pt x="160" y="262" on="1"/>
        <pt x="167" y="172" on="0"/>
        <pt x="195" y="93" on="1"/>
        <pt x="206" y="61" on="0"/>
        <pt x="233" y="30" on="0"/>
        <pt x="282" y="30" on="0"/>
        <pt x="343" y="97" on="0"/>
        <pt x="395" y="204" on="0"/>
        <pt x="431" y="355" on="0"/>
        <pt x="431" y="519" on="0"/>
        <pt x="407" y="586" on="0"/>
        <pt x="378" y="613" on="1"/>
        <pt x="340" y="645" on="0"/>
        <pt x="340" y="676" on="1"/>
        <pt x="340" y="691" on="0"/>
        <pt x="365" y="714" on="0"/>
        <pt x="378" y="714" on="1"/>
        <pt x="411" y="714" on="0"/>
        <pt x="456" y="672" on="0"/>
        <pt x="466" y="636" on="1"/>
        <pt x="484" y="573" on="0"/>
        <pt x="484" y="498" on="1"/>
        <pt x="484" y="357" on="0"/>
        <pt x="407" y="113" on="0"/>
        <pt x="292" y="-20" on="0"/>
      </contour>
      <contour>
        <pt x="212" y="480" on="1"/>
        <pt x="212" y="533" on="0"/>
        <pt x="200" y="533" on="1"/>
        <pt x="192" y="533" on="0"/>
        <pt x="172" y="485" on="0"/>
        <pt x="156" y="399" on="0"/>
        <pt x="156" y="317" on="0"/>
        <pt x="157" y="300" on="1"/>
        <pt x="212" y="392" on="0"/>
      </contour>
    </TTGlyph>
    <TTGlyph name="W" xMin="0" yMin="-15" xMax="665" yMax="627">
      <contour>
        <pt x="452" y="480" on="1"/>
        <pt x="446" y="406" on="1"/>
        <pt x="446" y="266" on="0"/>
        <pt x="482" y="53" on="0"/>
        <pt x="507" y="53" on="1"/>
        <pt x="541" y="53" on="0"/>
        <pt x="623" y="243" on="0"/>
        <pt x="623" y="338" on="1"/>
        <pt x="623" y="447" on="0"/>
        <pt x="600" y="486" on="1"/>
        <pt x="591" y="500" on="0"/>
        <pt x="572" y="519" on="1"/>
        <pt x="537" y="554" on="0"/>
        <pt x="537" y="586" on="1"/>
        <pt x="537" y="601" on="0"/>
        <pt x="554" y="620" on="0"/>
        <pt x="566" y="620" on="1"/>
        <pt x="597" y="620" on="0"/>
        <pt x="639" y="571" on="0"/>
        <pt x="648" y="532" on="1"/>
        <pt x="665" y="463" on="0"/>
        <pt x="665" y="386" on="1"/>
        <pt x="665" y="207" on="0"/>
        <pt x="532" y="-15" on="0"/>
        <pt x="468" y="-15" on="1"/>
        <pt x="422" y="-15" on="0"/>
        <pt x="377" y="181" on="0"/>
        <pt x="377" y="332" on="1"/>
        <pt x="317" y="82" on="0"/>
        <pt x="250" y="16" on="1"/>
        <pt x="217" y="-15" on="0"/>
        <pt x="179" y="-15" on="1"/>
        <pt x="159" y="-15" on="0"/>
        <pt x="120" y="20" on="0"/>
        <pt x="111" y="49" on="1"/>
        <pt x="91" y="108" on="0"/>
        <pt x="91" y="274" on="1"/>
        <pt x="49" y="280" on="0"/>
        <pt x="16" y="296" on="1"/>
        <pt x="0" y="304" on="0"/>
        <pt x="0" y="324" on="0"/>
        <pt x="20" y="324" on="1"/>
        <pt x="92" y="309" on="1"/>
        <pt x="101" y="482" on="0"/>
        <pt x="157" y="576" on="1"/>
        <pt x="187" y="627" on="0"/>
        <pt x="224" y="627" on="1"/>
        <pt x="291" y="627" on="0"/>
        <pt x="291" y="527" on="1"/>
        <pt x="291" y="446" on="0"/>
        <pt x="229" y="298" on="0"/>
        <pt x="167" y="278" on="1"/>
        <pt x="167" y="211" on="0"/>
        <pt x="175" y="158" on="1"/>
        <pt x="191" y="53" on="0"/>
        <pt x="214" y="53" on="1"/>
        <pt x="233" y="53" on="0"/>
        <pt x="295" y="168" on="0"/>
        <pt x="354" y="364" on="0"/>
        <pt x="363" y="459" on="1"/>
        <pt x="364" y="473" on="0"/>
        <pt x="416" y="509" on="0"/>
        <pt x="426" y="509" on="1"/>
        <pt x="452" y="509" on="0"/>
      </contour>
      <contour>
        <pt x="210" y="326" on="0"/>
        <pt x="257" y="455" on="0"/>
        <pt x="257" y="530" on="0"/>
        <pt x="254" y="548" on="1"/>
        <pt x="247" y="579" on="0"/>
        <pt x="235" y="579" on="1"/>
        <pt x="213" y="579" on="0"/>
        <pt x="170" y="396" on="0"/>
        <pt x="167" y="309" on="1"/>
      </contour>
    </TTGlyph>
    <TTGlyph name="X" xMin="26" yMin="-20" xMax="568" yMax="600">
      <contour>
        <pt x="405" y="-20" on="1"/>
        <pt x="367" y="-20" on="0"/>
        <pt x="309" y="59" on="0"/>
        <pt x="249" y="189" on="1"/>
        <pt x="120" y="-20" on="0"/>
        <pt x="76" y="-20" on="1"/>
        <pt x="26" y="-20" on="0"/>
        <pt x="26" y="9" on="1"/>
        <pt x="26" y="25" on="0"/>
        <pt x="74" y="72" on="0"/>
        <pt x="180" y="176" on="0"/>
        <pt x="227" y="238" on="1"/>
        <pt x="184" y="324" on="0"/>
        <pt x="148" y="378" on="1"/>
        <pt x="147" y="376" on="0"/>
        <pt x="96" y="260" on="1"/>
        <pt x="86" y="234" on="0"/>
        <pt x="70" y="234" on="1"/>
        <pt x="59" y="234" on="0"/>
        <pt x="59" y="262" on="0"/>
        <pt x="70" y="284" on="1"/>
        <pt x="102" y="341" on="0"/>
        <pt x="127" y="410" on="1"/>
        <pt x="96" y="460" on="0"/>
        <pt x="96" y="473" on="1"/>
        <pt x="96" y="517" on="0"/>
        <pt x="118" y="600" on="0"/>
        <pt x="139" y="600" on="1"/>
        <pt x="187" y="600" on="0"/>
        <pt x="187" y="517" on="1"/>
        <pt x="201" y="489" on="0"/>
        <pt x="282" y="317" on="1"/>
        <pt x="304" y="344" on="0"/>
        <pt x="378" y="493" on="0"/>
        <pt x="442" y="600" on="0"/>
        <pt x="492" y="600" on="0"/>
        <pt x="492" y="579" on="1"/>
        <pt x="492" y="553" on="0"/>
        <pt x="475" y="523" on="0"/>
        <pt x="437" y="489" on="0"/>
        <pt x="426" y="474" on="1"/>
        <pt x="370" y="393" on="0"/>
        <pt x="302" y="275" on="1"/>
        <pt x="403" y="61" on="0"/>
        <pt x="425" y="61" on="1"/>
        <pt x="459" y="61" on="0"/>
        <pt x="537" y="234" on="1"/>
        <pt x="549" y="261" on="0"/>
        <pt x="558" y="261" on="1"/>
        <pt x="561" y="261" on="0"/>
        <pt x="568" y="250" on="0"/>
        <pt x="568" y="242" on="1"/>
        <pt x="566" y="200" on="0"/>
        <pt x="446" y="-20" on="0"/>
      </contour>
    </TTGlyph>
    <TTGlyph name="Y" xMin="6" yMin="-320" xMax="519" yMax="600">
      <contour>
        <pt x="113" y="517" on="1"/>
        <pt x="113" y="531" on="0"/>
        <pt x="106" y="531" on="1"/>
        <pt x="90" y="531" on="0"/>
        <pt x="49" y="484" on="0"/>
        <pt x="42" y="435" on="1"/>
        <pt x="41" y="424" on="0"/>
        <pt x="26" y="407" on="0"/>
        <pt x="18" y="407" on="1"/>
        <pt x="6" y="407" on="0"/>
        <pt x="6" y="447" on="0"/>
        <pt x="46" y="520" on="0"/>
        <pt x="111" y="580" on="0"/>
        <pt x="142" y="580" on="1"/>
        <pt x="178" y="580" on="0"/>
        <pt x="177" y="465" on="0"/>
        <pt x="153" y="245" on="0"/>
        <pt x="153" y="190" on="1"/>
        <pt x="153" y="50" on="0"/>
        <pt x="205" y="50" on="1"/>
        <pt x="243" y="50" on="0"/>
        <pt x="344" y="192" on="0"/>
        <pt x="370" y="266" on="1"/>
        <pt x="390" y="484" on="0"/>
        <pt x="401" y="547" on="1"/>
        <pt x="403" y="556" on="0"/>
        <pt x="461" y="600" on="0"/>
        <pt x="492" y="600" on="0"/>
        <pt x="492" y="553" on="1"/>
        <pt x="492" y="498" on="0"/>
        <pt x="482" y="458" on="1"/>
        <pt x="455" y="355" on="0"/>
        <pt x="448" y="327" on="1"/>
        <pt x="436" y="247" on="0"/>
        <pt x="431" y="100" on="1"/>
        <pt x="475" y="123" on="0"/>
        <pt x="507" y="123" on="1"/>
        <pt x="519" y="123" on="0"/>
        <pt x="519" y="106" on="0"/>
        <pt x="507" y="101" on="1"/>
        <pt x="466" y="88" on="0"/>
        <pt x="429" y="64" on="1"/>
        <pt x="429" y="-159" on="0"/>
        <pt x="368" y="-320" on="0"/>
        <pt x="268" y="-320" on="1"/>
        <pt x="158" y="-320" on="0"/>
        <pt x="158" y="-227" on="1"/>
        <pt x="158" y="-158" on="0"/>
        <pt x="265" y="-13" on="0"/>
        <pt x="355" y="51" on="1"/>
        <pt x="358" y="114" on="0"/>
        <pt x="363" y="186" on="1"/>
        <pt x="323" y="107" on="0"/>
        <pt x="224" y="-5" on="0"/>
        <pt x="135" y="-5" on="0"/>
        <pt x="83" y="84" on="0"/>
        <pt x="83" y="235" on="0"/>
        <pt x="113" y="462" on="0"/>
      </contour>
      <contour>
        <pt x="295" y="-33" on="0"/>
        <pt x="226" y="-150" on="0"/>
        <pt x="226" y="-239" on="0"/>
        <pt x="260" y="-284" on="0"/>
        <pt x="282" y="-284" on="1"/>
        <pt x="313" y="-284" on="0"/>
        <pt x="346" y="-151" on="0"/>
        <pt x="352" y="9" on="1"/>
      </contour>
    </TTGlyph>
    <TTGlyph name="Yacute" xMin="6" yMin="-320" xMax="519" yMax="770">
      <contour>
        <pt x="113" y="517" on="1"/>
        <pt x="113" y="531" on="0"/>
        <pt x="106" y="531" on="1"/>
        <pt x="90" y="531" on="0"/>
        <pt x="49" y="484" on="0"/>
        <pt x="42" y="435" on="1"/>
        <pt x="41" y="424" on="0"/>
        <pt x="26" y="407" on="0"/>
        <pt x="18" y="407" on="1"/>
        <pt x="6" y="407" on="0"/>
        <pt x="6" y="447" on="0"/>
        <pt x="46" y="520" on="0"/>
        <pt x="111" y="580" on="0"/>
        <pt x="142" y="580" on="1"/>
        <pt x="178" y="580" on="0"/>
        <pt x="177" y="465" on="0"/>
        <pt x="153" y="245" on="0"/>
        <pt x="153" y="190" on="1"/>
        <pt x="153" y="50" on="0"/>
        <pt x="205" y="50" on="1"/>
        <pt x="243" y="50" on="0"/>
        <pt x="344" y="192" on="0"/>
        <pt x="370" y="266" on="1"/>
        <pt x="390" y="484" on="0"/>
        <pt x="401" y="547" on="1"/>
        <pt x="403" y="556" on="0"/>
        <pt x="461" y="600" on="0"/>
        <pt x="492" y="600" on="0"/>
        <pt x="492" y="553" on="1"/>
        <pt x="492" y="498" on="0"/>
        <pt x="482" y="458" on="1"/>
        <pt x="455" y="355" on="0"/>
        <pt x="448" y="327" on="1"/>
        <pt x="436" y="247" on="0"/>
        <pt x="431" y="100" on="1"/>
        <pt x="475" y="123" on="0"/>
        <pt x="507" y="123" on="1"/>
        <pt x="519" y="123" on="0"/>
        <pt x="519" y="106" on="0"/>
        <pt x="507" y="101" on="1"/>
        <pt x="466" y="88" on="0"/>
        <pt x="429" y="64" on="1"/>
        <pt x="429" y="-159" on="0"/>
        <pt x="368" y="-320" on="0"/>
        <pt x="268" y="-320" on="1"/>
        <pt x="158" y="-320" on="0"/>
        <pt x="158" y="-227" on="1"/>
        <pt x="158" y="-158" on="0"/>
        <pt x="265" y="-13" on="0"/>
        <pt x="355" y="51" on="1"/>
        <pt x="358" y="114" on="0"/>
        <pt x="363" y="186" on="1"/>
        <pt x="323" y="107" on="0"/>
        <pt x="224" y="-5" on="0"/>
        <pt x="135" y="-5" on="0"/>
        <pt x="83" y="84" on="0"/>
        <pt x="83" y="235" on="0"/>
        <pt x="113" y="462" on="0"/>
      </contour>
      <contour>
        <pt x="295" y="-33" on="0"/>
        <pt x="226" y="-150" on="0"/>
        <pt x="226" y="-239" on="0"/>
        <pt x="260" y="-284" on="0"/>
        <pt x="282" y="-284" on="1"/>
        <pt x="313" y="-284" on="0"/>
        <pt x="346" y="-151" on="0"/>
        <pt x="352" y="9" on="1"/>
      </contour>
      <contour>
        <pt x="312" y="719" on="1"/>
        <pt x="312" y="727" on="0"/>
        <pt x="302" y="742" on="0"/>
        <pt x="302" y="752" on="0"/>
        <pt x="337" y="770" on="0"/>
        <pt x="359" y="770" on="0"/>
        <pt x="380" y="746" on="0"/>
        <pt x="380" y="724" on="1"/>
        <pt x="380" y="690" on="0"/>
        <pt x="337" y="658" on="1"/>
        <pt x="317" y="643" on="0"/>
        <pt x="264" y="621" on="0"/>
        <pt x="239" y="621" on="0"/>
        <pt x="239" y="630" on="1"/>
        <pt x="239" y="635" on="0"/>
        <pt x="253" y="643" on="1"/>
        <pt x="311" y="671" on="0"/>
      </contour>
    </TTGlyph>
    <TTGlyph name="Ydieresis" xMin="6" yMin="-320" xMax="519" yMax="735">
      <contour>
        <pt x="113" y="517" on="1"/>
        <pt x="113" y="531" on="0"/>
        <pt x="106" y="531" on="1"/>
        <pt x="90" y="531" on="0"/>
        <pt x="49" y="484" on="0"/>
        <pt x="42" y="435" on="1"/>
        <pt x="41" y="424" on="0"/>
        <pt x="26" y="407" on="0"/>
        <pt x="18" y="407" on="1"/>
        <pt x="6" y="407" on="0"/>
        <pt x="6" y="447" on="0"/>
        <pt x="46" y="520" on="0"/>
        <pt x="111" y="580" on="0"/>
        <pt x="142" y="580" on="1"/>
        <pt x="178" y="580" on="0"/>
        <pt x="177" y="465" on="0"/>
        <pt x="153" y="245" on="0"/>
        <pt x="153" y="190" on="1"/>
        <pt x="153" y="50" on="0"/>
        <pt x="205" y="50" on="1"/>
        <pt x="243" y="50" on="0"/>
        <pt x="344" y="192" on="0"/>
        <pt x="370" y="266" on="1"/>
        <pt x="390" y="484" on="0"/>
        <pt x="401" y="547" on="1"/>
        <pt x="403" y="556" on="0"/>
        <pt x="461" y="600" on="0"/>
        <pt x="492" y="600" on="0"/>
        <pt x="492" y="553" on="1"/>
        <pt x="492" y="498" on="0"/>
        <pt x="482" y="458" on="1"/>
        <pt x="455" y="355" on="0"/>
        <pt x="448" y="327" on="1"/>
        <pt x="436" y="247" on="0"/>
        <pt x="431" y="100" on="1"/>
        <pt x="475" y="123" on="0"/>
        <pt x="507" y="123" on="1"/>
        <pt x="519" y="123" on="0"/>
        <pt x="519" y="106" on="0"/>
        <pt x="507" y="101" on="1"/>
        <pt x="466" y="88" on="0"/>
        <pt x="429" y="64" on="1"/>
        <pt x="429" y="-159" on="0"/>
        <pt x="368" y="-320" on="0"/>
        <pt x="268" y="-320" on="1"/>
        <pt x="158" y="-320" on="0"/>
        <pt x="158" y="-227" on="1"/>
        <pt x="158" y="-158" on="0"/>
        <pt x="265" y="-13" on="0"/>
        <pt x="355" y="51" on="1"/>
        <pt x="358" y="114" on="0"/>
        <pt x="363" y="186" on="1"/>
        <pt x="323" y="107" on="0"/>
        <pt x="224" y="-5" on="0"/>
        <pt x="135" y="-5" on="0"/>
        <pt x="83" y="84" on="0"/>
        <pt x="83" y="235" on="0"/>
        <pt x="113" y="462" on="0"/>
      </contour>
      <contour>
        <pt x="295" y="-33" on="0"/>
        <pt x="226" y="-150" on="0"/>
        <pt x="226" y="-239" on="0"/>
        <pt x="260" y="-284" on="0"/>
        <pt x="282" y="-284" on="1"/>
        <pt x="313" y="-284" on="0"/>
        <pt x="346" y="-151" on="0"/>
        <pt x="352" y="9" on="1"/>
      </contour>
      <contour>
        <pt x="208" y="653" on="0"/>
        <pt x="181" y="671" on="0"/>
        <pt x="181" y="711" on="0"/>
        <pt x="218" y="735" on="0"/>
        <pt x="250" y="735" on="0"/>
        <pt x="272" y="717" on="0"/>
        <pt x="272" y="704" on="1"/>
        <pt x="272" y="653" on="0"/>
        <pt x="221" y="653" on="1"/>
      </contour>
      <contour>
        <pt x="352" y="653" on="0"/>
        <pt x="325" y="671" on="0"/>
        <pt x="325" y="711" on="0"/>
        <pt x="363" y="735" on="0"/>
        <pt x="395" y="735" on="0"/>
        <pt x="416" y="717" on="0"/>
        <pt x="416" y="704" on="1"/>
        <pt x="416" y="653" on="0"/>
        <pt x="366" y="653" on="1"/>
      </contour>
    </TTGlyph>
    <TTGlyph name="Z" xMin="29" yMin="-25" xMax="562" yMax="620">
      <contour>
        <pt x="513" y="477" on="0"/>
        <pt x="467" y="435" on="0"/>
        <pt x="404" y="435" on="0"/>
        <pt x="363" y="454" on="1"/>
        <pt x="255" y="324" on="0"/>
        <pt x="155" y="125" on="1"/>
        <pt x="203" y="118" on="0"/>
        <pt x="384" y="60" on="0"/>
        <pt x="395" y="60" on="1"/>
        <pt x="452" y="60" on="0"/>
        <pt x="518" y="203" on="1"/>
        <pt x="544" y="260" on="0"/>
        <pt x="556" y="260" on="1"/>
        <pt x="562" y="260" on="0"/>
        <pt x="562" y="235" on="0"/>
        <pt x="494" y="82" on="0"/>
        <pt x="449" y="8" on="0"/>
        <pt x="399" y="-25" on="0"/>
        <pt x="350" y="-25" on="1"/>
        <pt x="326" y="-25" on="0"/>
        <pt x="170" y="61" on="0"/>
        <pt x="130" y="61" on="1"/>
        <pt x="99" y="0" on="0"/>
        <pt x="72" y="0" on="1"/>
        <pt x="29" y="0" on="0"/>
        <pt x="29" y="38" on="1"/>
        <pt x="29" y="55" on="0"/>
        <pt x="70" y="110" on="0"/>
        <pt x="97" y="122" on="1"/>
        <pt x="221" y="334" on="0"/>
        <pt x="338" y="467" on="1"/>
        <pt x="210" y="540" on="0"/>
        <pt x="143" y="540" on="1"/>
        <pt x="118" y="540" on="0"/>
        <pt x="118" y="497" on="1"/>
        <pt x="118" y="485" on="0"/>
        <pt x="130" y="440" on="0"/>
        <pt x="130" y="436" on="1"/>
        <pt x="130" y="424" on="0"/>
        <pt x="107" y="424" on="0"/>
        <pt x="82" y="493" on="0"/>
        <pt x="82" y="567" on="0"/>
        <pt x="112" y="620" on="0"/>
        <pt x="161" y="620" on="0"/>
        <pt x="213" y="608" on="0"/>
        <pt x="251" y="594" on="0"/>
        <pt x="302" y="565" on="0"/>
        <pt x="314" y="558" on="1"/>
        <pt x="358" y="528" on="0"/>
        <pt x="380" y="512" on="1"/>
        <pt x="432" y="562" on="0"/>
        <pt x="462" y="562" on="1"/>
        <pt x="482" y="562" on="0"/>
        <pt x="513" y="536" on="0"/>
      </contour>
      <contour>
        <pt x="460" y="507" on="1"/>
        <pt x="460" y="521" on="0"/>
        <pt x="428" y="521" on="0"/>
        <pt x="403" y="498" on="1"/>
        <pt x="420" y="489" on="0"/>
        <pt x="430" y="489" on="1"/>
        <pt x="460" y="489" on="0"/>
      </contour>
    </TTGlyph>
    <TTGlyph name="Zacute" xMin="29" yMin="-25" xMax="562" yMax="770">
      <contour>
        <pt x="460" y="507" on="1"/>
        <pt x="460" y="521" on="0"/>
        <pt x="428" y="521" on="0"/>
        <pt x="403" y="498" on="1"/>
        <pt x="420" y="489" on="0"/>
        <pt x="430" y="489" on="1"/>
        <pt x="460" y="489" on="0"/>
      </contour>
      <contour>
        <pt x="343" y="719" on="1"/>
        <pt x="343" y="727" on="0"/>
        <pt x="333" y="742" on="0"/>
        <pt x="333" y="752" on="0"/>
        <pt x="368" y="770" on="0"/>
        <pt x="390" y="770" on="0"/>
        <pt x="411" y="746" on="0"/>
        <pt x="411" y="724" on="1"/>
        <pt x="411" y="690" on="0"/>
        <pt x="368" y="658" on="1"/>
        <pt x="348" y="643" on="0"/>
        <pt x="295" y="621" on="0"/>
        <pt x="270" y="621" on="0"/>
        <pt x="270" y="630" on="1"/>
        <pt x="270" y="635" on="0"/>
        <pt x="284" y="643" on="1"/>
        <pt x="342" y="671" on="0"/>
      </contour>
      <contour>
        <pt x="350" y="-25" on="1"/>
        <pt x="334" y="-25" on="0"/>
        <pt x="171" y="61" on="0"/>
        <pt x="130" y="61" on="1"/>
        <pt x="99" y="0" on="0"/>
        <pt x="72" y="0" on="1"/>
        <pt x="29" y="0" on="0"/>
        <pt x="29" y="38" on="1"/>
        <pt x="29" y="55" on="0"/>
        <pt x="70" y="110" on="0"/>
        <pt x="97" y="122" on="1"/>
        <pt x="221" y="334" on="0"/>
        <pt x="338" y="467" on="1"/>
        <pt x="210" y="540" on="0"/>
        <pt x="143" y="540" on="1"/>
        <pt x="118" y="540" on="0"/>
        <pt x="118" y="497" on="1"/>
        <pt x="118" y="485" on="0"/>
        <pt x="130" y="440" on="0"/>
        <pt x="130" y="436" on="1"/>
        <pt x="130" y="424" on="0"/>
        <pt x="107" y="424" on="0"/>
        <pt x="82" y="493" on="0"/>
        <pt x="82" y="567" on="0"/>
        <pt x="112" y="620" on="0"/>
        <pt x="161" y="620" on="0"/>
        <pt x="213" y="608" on="0"/>
        <pt x="251" y="594" on="0"/>
        <pt x="302" y="565" on="0"/>
        <pt x="314" y="558" on="1"/>
        <pt x="358" y="528" on="0"/>
        <pt x="380" y="512" on="1"/>
        <pt x="432" y="562" on="0"/>
        <pt x="462" y="562" on="1"/>
        <pt x="482" y="562" on="0"/>
        <pt x="513" y="536" on="0"/>
        <pt x="513" y="477" on="0"/>
        <pt x="467" y="435" on="0"/>
        <pt x="404" y="435" on="0"/>
        <pt x="363" y="454" on="1"/>
        <pt x="255" y="324" on="0"/>
        <pt x="155" y="125" on="1"/>
        <pt x="203" y="118" on="0"/>
        <pt x="384" y="60" on="0"/>
        <pt x="395" y="60" on="1"/>
        <pt x="452" y="60" on="0"/>
        <pt x="518" y="203" on="1"/>
        <pt x="544" y="260" on="0"/>
        <pt x="556" y="260" on="1"/>
        <pt x="562" y="260" on="0"/>
        <pt x="562" y="235" on="0"/>
        <pt x="494" y="82" on="0"/>
        <pt x="449" y="8" on="0"/>
        <pt x="399" y="-25" on="0"/>
      </contour>
    </TTGlyph>
    <TTGlyph name="Zdotaccent" xMin="29" yMin="-25" xMax="564" yMax="705">
      <contour>
        <pt x="460" y="507" on="1"/>
        <pt x="460" y="521" on="0"/>
        <pt x="428" y="521" on="0"/>
        <pt x="403" y="498" on="1"/>
        <pt x="420" y="489" on="0"/>
        <pt x="430" y="489" on="1"/>
        <pt x="460" y="489" on="0"/>
      </contour>
      <contour>
        <pt x="307" y="623" on="0"/>
        <pt x="280" y="641" on="0"/>
        <pt x="280" y="681" on="0"/>
        <pt x="317" y="705" on="0"/>
        <pt x="349" y="705" on="0"/>
        <pt x="371" y="687" on="0"/>
        <pt x="371" y="674" on="1"/>
        <pt x="371" y="623" on="0"/>
        <pt x="320" y="623" on="1"/>
      </contour>
      <contour>
        <pt x="352" y="-25" on="1"/>
        <pt x="336" y="-25" on="0"/>
        <pt x="171" y="61" on="0"/>
        <pt x="130" y="61" on="1"/>
        <pt x="99" y="0" on="0"/>
        <pt x="72" y="0" on="1"/>
        <pt x="29" y="0" on="0"/>
        <pt x="29" y="38" on="1"/>
        <pt x="29" y="55" on="0"/>
        <pt x="70" y="110" on="0"/>
        <pt x="97" y="122" on="1"/>
        <pt x="221" y="334" on="0"/>
        <pt x="338" y="467" on="1"/>
        <pt x="210" y="540" on="0"/>
        <pt x="143" y="540" on="1"/>
        <pt x="118" y="540" on="0"/>
        <pt x="118" y="497" on="1"/>
        <pt x="118" y="485" on="0"/>
        <pt x="130" y="440" on="0"/>
        <pt x="130" y="436" on="1"/>
        <pt x="130" y="424" on="0"/>
        <pt x="107" y="424" on="0"/>
        <pt x="82" y="493" on="0"/>
        <pt x="82" y="567" on="0"/>
        <pt x="112" y="620" on="0"/>
        <pt x="161" y="620" on="0"/>
        <pt x="213" y="608" on="0"/>
        <pt x="251" y="594" on="0"/>
        <pt x="302" y="565" on="0"/>
        <pt x="314" y="558" on="1"/>
        <pt x="358" y="528" on="0"/>
        <pt x="380" y="512" on="1"/>
        <pt x="432" y="562" on="0"/>
        <pt x="462" y="562" on="1"/>
        <pt x="482" y="562" on="0"/>
        <pt x="513" y="536" on="0"/>
        <pt x="513" y="477" on="0"/>
        <pt x="467" y="435" on="0"/>
        <pt x="404" y="435" on="0"/>
        <pt x="363" y="454" on="1"/>
        <pt x="255" y="324" on="0"/>
        <pt x="155" y="125" on="1"/>
        <pt x="202" y="118" on="0"/>
        <pt x="384" y="60" on="0"/>
        <pt x="397" y="60" on="1"/>
        <pt x="454" y="60" on="0"/>
        <pt x="520" y="203" on="1"/>
        <pt x="546" y="260" on="0"/>
        <pt x="558" y="260" on="1"/>
        <pt x="564" y="260" on="0"/>
        <pt x="564" y="235" on="0"/>
        <pt x="496" y="82" on="0"/>
        <pt x="451" y="8" on="0"/>
        <pt x="401" y="-25" on="0"/>
      </contour>
    </TTGlyph>
</ttFont>
